<ttFont>
<head>
    <!-- Most of this table will be recalculated by the compiler -->
    <tableVersion value="1.0"/>
    <fontRevision value="1.002"/>
    <checkSumAdjustment value="0xfbfee97"/>
    <magicNumber value="0x5f0f3cf5"/>
    <flags value="00000000 00001111"/>
    <unitsPerEm value="1000"/>
    <created value="Sat Jan  4 16:14:24 2020"/>
    <modified value="Wed Feb  3 17:22:17 2021"/>
    <xMin value="-179"/>
    <yMin value="-456"/>
    <xMax value="1394"/>
    <yMax value="1206"/>
    <macStyle value="00000000 00000001"/>
    <lowestRecPPEM value="6"/>
    <fontDirectionHint value="2"/>
    <indexToLocFormat value="1"/>
    <glyphDataFormat value="0"/>
  </head>
    <TTGlyph name=".notdef" xMin="40" yMin="0" xMax="544" yMax="700">
      <contour>
        <pt x="40" y="35" on="1"/>
        <pt x="40" y="665" on="1"/>
        <pt x="40" y="682" on="0"/>
        <pt x="58" y="700" on="0"/>
        <pt x="75" y="700" on="1"/>
        <pt x="509" y="700" on="1"/>
        <pt x="526" y="700" on="0"/>
        <pt x="544" y="682" on="0"/>
        <pt x="544" y="665" on="1"/>
        <pt x="544" y="35" on="1"/>
        <pt x="544" y="18" on="0"/>
        <pt x="526" y="0" on="0"/>
        <pt x="509" y="0" on="1"/>
        <pt x="75" y="0" on="1"/>
        <pt x="58" y="0" on="0"/>
        <pt x="40" y="18" on="0"/>
      </contour>
      <contour>
        <pt x="509" y="670" on="1"/>
        <pt x="95" y="670" on="1"/>
        <pt x="92" y="670" on="0"/>
        <pt x="90" y="666" on="0"/>
        <pt x="92" y="664" on="1"/>
        <pt x="508" y="65" on="1"/>
        <pt x="510" y="62" on="0"/>
        <pt x="514" y="63" on="0"/>
        <pt x="514" y="67" on="1"/>
        <pt x="514" y="665" on="1"/>
        <pt x="514" y="667" on="0"/>
        <pt x="511" y="670" on="0"/>
      </contour>
      <contour>
        <pt x="70" y="633" on="1"/>
        <pt x="70" y="35" on="1"/>
        <pt x="70" y="33" on="0"/>
        <pt x="73" y="30" on="0"/>
        <pt x="75" y="30" on="1"/>
        <pt x="488" y="30" on="1"/>
        <pt x="491" y="30" on="0"/>
        <pt x="493" y="34" on="0"/>
        <pt x="491" y="36" on="1"/>
        <pt x="76" y="635" on="1"/>
        <pt x="74" y="638" on="0"/>
        <pt x="70" y="637" on="0"/>
      </contour>
    </TTGlyph>
    <TTGlyph name="A" xMin="-5" yMin="0" xMax="698" yMax="700">
      <contour>
        <pt x="330" y="535" on="1"/>
        <pt x="361" y="535" on="1"/>
        <pt x="348" y="482" on="0"/>
        <pt x="319" y="394" on="0"/>
        <pt x="299" y="343" on="1"/>
        <pt x="172" y="0" on="1"/>
        <pt x="-5" y="0" on="1"/>
        <pt x="273" y="700" on="1"/>
        <pt x="423" y="700" on="1"/>
        <pt x="698" y="0" on="1"/>
        <pt x="517" y="0" on="1"/>
        <pt x="389" y="345" on="1"/>
        <pt x="371" y="396" on="0"/>
        <pt x="343" y="482" on="0"/>
      </contour>
      <contour>
        <pt x="349" y="127" on="1"/>
        <pt x="128" y="127" on="1"/>
        <pt x="184" y="260" on="1"/>
        <pt x="349" y="260" on="1"/>
      </contour>
      <contour>
        <pt x="560" y="127" on="1"/>
        <pt x="349" y="127" on="1"/>
        <pt x="349" y="260" on="1"/>
        <pt x="506" y="260" on="1"/>
      </contour>
    </TTGlyph>
    <TTGlyph name="AE" xMin="-12" yMin="0" xMax="1036" yMax="700">
      <contour>
        <pt x="238" y="141" on="1"/>
        <pt x="318" y="281" on="1"/>
        <pt x="554" y="281" on="1"/>
        <pt x="536" y="213" on="1"/>
        <pt x="536" y="552" on="1"/>
        <pt x="555" y="541" on="1"/>
        <pt x="185" y="0" on="1"/>
        <pt x="-12" y="0" on="1"/>
        <pt x="476" y="700" on="1"/>
        <pt x="1036" y="700" on="1"/>
        <pt x="1036" y="552" on="1"/>
        <pt x="699" y="552" on="1"/>
        <pt x="708" y="561" on="1"/>
        <pt x="708" y="408" on="1"/>
        <pt x="700" y="425" on="1"/>
        <pt x="991" y="425" on="1"/>
        <pt x="991" y="284" on="1"/>
        <pt x="698" y="284" on="1"/>
        <pt x="708" y="298" on="1"/>
        <pt x="708" y="127" on="1"/>
        <pt x="699" y="148" on="1"/>
        <pt x="1036" y="148" on="1"/>
        <pt x="1036" y="0" on="1"/>
        <pt x="536" y="0" on="1"/>
        <pt x="536" y="166" on="1"/>
        <pt x="559" y="141" on="1"/>
      </contour>
    </TTGlyph>
    <TTGlyph name="AEacute" xMin="-12" yMin="0" xMax="1036" yMax="987">
      <contour>
        <pt x="238" y="141" on="1"/>
        <pt x="318" y="281" on="1"/>
        <pt x="554" y="281" on="1"/>
        <pt x="536" y="213" on="1"/>
        <pt x="536" y="552" on="1"/>
        <pt x="555" y="541" on="1"/>
        <pt x="185" y="0" on="1"/>
        <pt x="-12" y="0" on="1"/>
        <pt x="476" y="700" on="1"/>
        <pt x="1036" y="700" on="1"/>
        <pt x="1036" y="552" on="1"/>
        <pt x="699" y="552" on="1"/>
        <pt x="708" y="561" on="1"/>
        <pt x="708" y="408" on="1"/>
        <pt x="700" y="425" on="1"/>
        <pt x="991" y="425" on="1"/>
        <pt x="991" y="284" on="1"/>
        <pt x="698" y="284" on="1"/>
        <pt x="708" y="298" on="1"/>
        <pt x="708" y="127" on="1"/>
        <pt x="699" y="148" on="1"/>
        <pt x="1036" y="148" on="1"/>
        <pt x="1036" y="0" on="1"/>
        <pt x="536" y="0" on="1"/>
        <pt x="536" y="166" on="1"/>
        <pt x="559" y="141" on="1"/>
      </contour>
      <contour>
        <pt x="890" y="876" on="1"/>
        <pt x="680" y="763" on="1"/>
        <pt x="628" y="842" on="1"/>
        <pt x="813" y="987" on="1"/>
      </contour>
    </TTGlyph>
    <TTGlyph name="Aacute" xMin="-5" yMin="0" xMax="698" yMax="987">
      <contour>
        <pt x="330" y="535" on="1"/>
        <pt x="361" y="535" on="1"/>
        <pt x="348" y="482" on="0"/>
        <pt x="319" y="394" on="0"/>
        <pt x="299" y="343" on="1"/>
        <pt x="172" y="0" on="1"/>
        <pt x="-5" y="0" on="1"/>
        <pt x="273" y="700" on="1"/>
        <pt x="423" y="700" on="1"/>
        <pt x="698" y="0" on="1"/>
        <pt x="517" y="0" on="1"/>
        <pt x="389" y="345" on="1"/>
        <pt x="371" y="396" on="0"/>
        <pt x="343" y="482" on="0"/>
      </contour>
      <contour>
        <pt x="349" y="127" on="1"/>
        <pt x="128" y="127" on="1"/>
        <pt x="184" y="260" on="1"/>
        <pt x="349" y="260" on="1"/>
      </contour>
      <contour>
        <pt x="560" y="127" on="1"/>
        <pt x="349" y="127" on="1"/>
        <pt x="349" y="260" on="1"/>
        <pt x="506" y="260" on="1"/>
      </contour>
      <contour>
        <pt x="520" y="876" on="1"/>
        <pt x="310" y="763" on="1"/>
        <pt x="258" y="842" on="1"/>
        <pt x="443" y="987" on="1"/>
      </contour>
    </TTGlyph>
    <TTGlyph name="Abreve" xMin="-5" yMin="0" xMax="698" yMax="936">
      <contour>
        <pt x="330" y="535" on="1"/>
        <pt x="361" y="535" on="1"/>
        <pt x="348" y="482" on="0"/>
        <pt x="319" y="394" on="0"/>
        <pt x="299" y="343" on="1"/>
        <pt x="172" y="0" on="1"/>
        <pt x="-5" y="0" on="1"/>
        <pt x="273" y="700" on="1"/>
        <pt x="423" y="700" on="1"/>
        <pt x="698" y="0" on="1"/>
        <pt x="517" y="0" on="1"/>
        <pt x="389" y="345" on="1"/>
        <pt x="371" y="396" on="0"/>
        <pt x="343" y="482" on="0"/>
      </contour>
      <contour>
        <pt x="349" y="127" on="1"/>
        <pt x="128" y="127" on="1"/>
        <pt x="184" y="260" on="1"/>
        <pt x="349" y="260" on="1"/>
      </contour>
      <contour>
        <pt x="560" y="127" on="1"/>
        <pt x="349" y="127" on="1"/>
        <pt x="349" y="260" on="1"/>
        <pt x="506" y="260" on="1"/>
      </contour>
      <contour>
        <pt x="346" y="764" on="1"/>
        <pt x="277" y="764" on="0"/>
        <pt x="179" y="849" on="0"/>
        <pt x="164" y="924" on="1"/>
        <pt x="272" y="936" on="1"/>
        <pt x="282" y="906" on="0"/>
        <pt x="323" y="871" on="0"/>
        <pt x="346" y="871" on="1"/>
        <pt x="369" y="871" on="0"/>
        <pt x="411" y="906" on="0"/>
        <pt x="421" y="936" on="1"/>
        <pt x="528" y="924" on="1"/>
        <pt x="514" y="849" on="0"/>
        <pt x="415" y="764" on="0"/>
      </contour>
    </TTGlyph>
    <TTGlyph name="Acircumflex" xMin="-5" yMin="0" xMax="698" yMax="945">
      <contour>
        <pt x="330" y="535" on="1"/>
        <pt x="361" y="535" on="1"/>
        <pt x="348" y="482" on="0"/>
        <pt x="319" y="394" on="0"/>
        <pt x="299" y="343" on="1"/>
        <pt x="172" y="0" on="1"/>
        <pt x="-5" y="0" on="1"/>
        <pt x="273" y="700" on="1"/>
        <pt x="423" y="700" on="1"/>
        <pt x="698" y="0" on="1"/>
        <pt x="517" y="0" on="1"/>
        <pt x="389" y="345" on="1"/>
        <pt x="371" y="396" on="0"/>
        <pt x="343" y="482" on="0"/>
      </contour>
      <contour>
        <pt x="349" y="127" on="1"/>
        <pt x="128" y="127" on="1"/>
        <pt x="184" y="260" on="1"/>
        <pt x="349" y="260" on="1"/>
      </contour>
      <contour>
        <pt x="560" y="127" on="1"/>
        <pt x="349" y="127" on="1"/>
        <pt x="349" y="260" on="1"/>
        <pt x="506" y="260" on="1"/>
      </contour>
      <contour>
        <pt x="479" y="767" on="1"/>
        <pt x="333" y="850" on="1"/>
        <pt x="363" y="850" on="1"/>
        <pt x="216" y="767" on="1"/>
        <pt x="159" y="824" on="1"/>
        <pt x="302" y="945" on="1"/>
        <pt x="394" y="945" on="1"/>
        <pt x="537" y="824" on="1"/>
      </contour>
    </TTGlyph>
    <TTGlyph name="Adieresis" xMin="-5" yMin="0" xMax="698" yMax="940">
      <contour>
        <pt x="330" y="535" on="1"/>
        <pt x="361" y="535" on="1"/>
        <pt x="348" y="482" on="0"/>
        <pt x="319" y="394" on="0"/>
        <pt x="299" y="343" on="1"/>
        <pt x="172" y="0" on="1"/>
        <pt x="-5" y="0" on="1"/>
        <pt x="273" y="700" on="1"/>
        <pt x="423" y="700" on="1"/>
        <pt x="698" y="0" on="1"/>
        <pt x="517" y="0" on="1"/>
        <pt x="389" y="345" on="1"/>
        <pt x="371" y="396" on="0"/>
        <pt x="343" y="482" on="0"/>
      </contour>
      <contour>
        <pt x="349" y="127" on="1"/>
        <pt x="128" y="127" on="1"/>
        <pt x="184" y="260" on="1"/>
        <pt x="349" y="260" on="1"/>
      </contour>
      <contour>
        <pt x="560" y="127" on="1"/>
        <pt x="349" y="127" on="1"/>
        <pt x="349" y="260" on="1"/>
        <pt x="506" y="260" on="1"/>
      </contour>
      <contour>
        <pt x="313" y="851" on="1"/>
        <pt x="313" y="812" on="0"/>
        <pt x="265" y="763" on="0"/>
        <pt x="223" y="763" on="1"/>
        <pt x="180" y="763" on="0"/>
        <pt x="134" y="809" on="0"/>
        <pt x="134" y="851" on="1"/>
        <pt x="134" y="890" on="0"/>
        <pt x="182" y="940" on="0"/>
        <pt x="223" y="940" on="1"/>
        <pt x="266" y="940" on="0"/>
        <pt x="313" y="894" on="0"/>
      </contour>
      <contour>
        <pt x="562" y="851" on="1"/>
        <pt x="562" y="812" on="0"/>
        <pt x="514" y="763" on="0"/>
        <pt x="473" y="763" on="1"/>
        <pt x="430" y="763" on="0"/>
        <pt x="383" y="809" on="0"/>
        <pt x="383" y="851" on="1"/>
        <pt x="383" y="890" on="0"/>
        <pt x="431" y="940" on="0"/>
        <pt x="473" y="940" on="1"/>
        <pt x="516" y="940" on="0"/>
        <pt x="562" y="894" on="0"/>
      </contour>
    </TTGlyph>
    <TTGlyph name="Agrave" xMin="-5" yMin="0" xMax="698" yMax="988">
      <contour>
        <pt x="330" y="535" on="1"/>
        <pt x="361" y="535" on="1"/>
        <pt x="348" y="482" on="0"/>
        <pt x="319" y="394" on="0"/>
        <pt x="299" y="343" on="1"/>
        <pt x="172" y="0" on="1"/>
        <pt x="-5" y="0" on="1"/>
        <pt x="273" y="700" on="1"/>
        <pt x="423" y="700" on="1"/>
        <pt x="698" y="0" on="1"/>
        <pt x="517" y="0" on="1"/>
        <pt x="389" y="345" on="1"/>
        <pt x="371" y="396" on="0"/>
        <pt x="343" y="482" on="0"/>
      </contour>
      <contour>
        <pt x="349" y="127" on="1"/>
        <pt x="128" y="127" on="1"/>
        <pt x="184" y="260" on="1"/>
        <pt x="349" y="260" on="1"/>
      </contour>
      <contour>
        <pt x="560" y="127" on="1"/>
        <pt x="349" y="127" on="1"/>
        <pt x="349" y="260" on="1"/>
        <pt x="506" y="260" on="1"/>
      </contour>
      <contour>
        <pt x="439" y="844" on="1"/>
        <pt x="388" y="765" on="1"/>
        <pt x="178" y="877" on="1"/>
        <pt x="255" y="988" on="1"/>
      </contour>
    </TTGlyph>
    <TTGlyph name="Amacron" xMin="-5" yMin="0" xMax="698" yMax="877">
      <contour>
        <pt x="330" y="535" on="1"/>
        <pt x="361" y="535" on="1"/>
        <pt x="348" y="482" on="0"/>
        <pt x="319" y="394" on="0"/>
        <pt x="299" y="343" on="1"/>
        <pt x="172" y="0" on="1"/>
        <pt x="-5" y="0" on="1"/>
        <pt x="273" y="700" on="1"/>
        <pt x="423" y="700" on="1"/>
        <pt x="698" y="0" on="1"/>
        <pt x="517" y="0" on="1"/>
        <pt x="389" y="345" on="1"/>
        <pt x="371" y="396" on="0"/>
        <pt x="343" y="482" on="0"/>
      </contour>
      <contour>
        <pt x="349" y="127" on="1"/>
        <pt x="128" y="127" on="1"/>
        <pt x="184" y="260" on="1"/>
        <pt x="349" y="260" on="1"/>
      </contour>
      <contour>
        <pt x="560" y="127" on="1"/>
        <pt x="349" y="127" on="1"/>
        <pt x="349" y="260" on="1"/>
        <pt x="506" y="260" on="1"/>
      </contour>
      <contour>
        <pt x="529" y="772" on="1"/>
        <pt x="166" y="772" on="1"/>
        <pt x="166" y="877" on="1"/>
        <pt x="529" y="877" on="1"/>
      </contour>
    </TTGlyph>
    <TTGlyph name="Aogonek" xMin="-5" yMin="-217" xMax="713" yMax="700">
      <contour>
        <pt x="583" y="7" on="1"/>
        <pt x="517" y="0" on="1"/>
        <pt x="391" y="345" on="1"/>
        <pt x="384" y="361" on="0"/>
        <pt x="373" y="393" on="0"/>
        <pt x="365" y="416" on="1"/>
        <pt x="357" y="440" on="0"/>
        <pt x="345" y="479" on="0"/>
        <pt x="338" y="505" on="1"/>
        <pt x="353" y="506" on="1"/>
        <pt x="344" y="479" on="0"/>
        <pt x="331" y="437" on="0"/>
        <pt x="322" y="412" on="1"/>
        <pt x="314" y="390" on="0"/>
        <pt x="303" y="360" on="0"/>
        <pt x="297" y="343" on="1"/>
        <pt x="171" y="0" on="1"/>
        <pt x="-5" y="0" on="1"/>
        <pt x="271" y="700" on="1"/>
        <pt x="424" y="700" on="1"/>
        <pt x="692" y="16" on="1"/>
        <pt x="688" y="0" on="1"/>
        <pt x="640" y="-15" on="0"/>
        <pt x="581" y="-59" on="0"/>
        <pt x="581" y="-83" on="1"/>
        <pt x="581" y="-96" on="0"/>
        <pt x="598" y="-113" on="0"/>
        <pt x="612" y="-113" on="1"/>
        <pt x="622" y="-113" on="0"/>
        <pt x="642" y="-101" on="0"/>
        <pt x="653" y="-89" on="1"/>
        <pt x="713" y="-156" on="1"/>
        <pt x="691" y="-180" on="0"/>
        <pt x="628" y="-217" on="0"/>
        <pt x="592" y="-217" on="1"/>
        <pt x="537" y="-217" on="0"/>
        <pt x="466" y="-156" on="0"/>
        <pt x="466" y="-107" on="1"/>
        <pt x="466" y="-70" on="0"/>
        <pt x="523" y="-3" on="0"/>
        <pt x="581" y="29" on="1"/>
      </contour>
      <contour>
        <pt x="349" y="127" on="1"/>
        <pt x="138" y="127" on="1"/>
        <pt x="194" y="260" on="1"/>
        <pt x="349" y="260" on="1"/>
      </contour>
      <contour>
        <pt x="550" y="127" on="1"/>
        <pt x="349" y="127" on="1"/>
        <pt x="349" y="260" on="1"/>
        <pt x="506" y="260" on="1"/>
      </contour>
    </TTGlyph>
    <TTGlyph name="Aring" xMin="-5" yMin="0" xMax="698" yMax="915">
      <contour>
        <pt x="330" y="535" on="1"/>
        <pt x="361" y="535" on="1"/>
        <pt x="348" y="482" on="0"/>
        <pt x="319" y="394" on="0"/>
        <pt x="299" y="343" on="1"/>
        <pt x="172" y="0" on="1"/>
        <pt x="-5" y="0" on="1"/>
        <pt x="273" y="700" on="1"/>
        <pt x="423" y="700" on="1"/>
        <pt x="698" y="0" on="1"/>
        <pt x="517" y="0" on="1"/>
        <pt x="389" y="345" on="1"/>
        <pt x="371" y="396" on="0"/>
        <pt x="343" y="482" on="0"/>
      </contour>
      <contour>
        <pt x="349" y="127" on="1"/>
        <pt x="128" y="127" on="1"/>
        <pt x="184" y="260" on="1"/>
        <pt x="349" y="260" on="1"/>
      </contour>
      <contour>
        <pt x="560" y="127" on="1"/>
        <pt x="349" y="127" on="1"/>
        <pt x="349" y="260" on="1"/>
        <pt x="506" y="260" on="1"/>
      </contour>
      <contour>
        <pt x="483" y="782" on="1"/>
        <pt x="483" y="732" on="0"/>
        <pt x="401" y="657" on="0"/>
        <pt x="347" y="657" on="1"/>
        <pt x="292" y="657" on="0"/>
        <pt x="210" y="732" on="0"/>
        <pt x="210" y="782" on="1"/>
        <pt x="210" y="836" on="0"/>
        <pt x="291" y="915" on="0"/>
        <pt x="347" y="915" on="1"/>
        <pt x="401" y="915" on="0"/>
        <pt x="483" y="836" on="0"/>
      </contour>
      <contour>
        <pt x="307" y="782" on="1"/>
        <pt x="307" y="766" on="0"/>
        <pt x="331" y="743" on="0"/>
        <pt x="347" y="743" on="1"/>
        <pt x="363" y="743" on="0"/>
        <pt x="387" y="766" on="0"/>
        <pt x="387" y="782" on="1"/>
        <pt x="387" y="800" on="0"/>
        <pt x="363" y="822" on="0"/>
        <pt x="347" y="822" on="1"/>
        <pt x="330" y="822" on="0"/>
        <pt x="307" y="799" on="0"/>
      </contour>
    </TTGlyph>
    <TTGlyph name="Aringacute" xMin="-5" yMin="0" xMax="698" yMax="1168">
      <contour>
        <pt x="330" y="535" on="1"/>
        <pt x="361" y="535" on="1"/>
        <pt x="348" y="482" on="0"/>
        <pt x="319" y="394" on="0"/>
        <pt x="299" y="343" on="1"/>
        <pt x="172" y="0" on="1"/>
        <pt x="-5" y="0" on="1"/>
        <pt x="273" y="700" on="1"/>
        <pt x="423" y="700" on="1"/>
        <pt x="698" y="0" on="1"/>
        <pt x="517" y="0" on="1"/>
        <pt x="389" y="345" on="1"/>
        <pt x="371" y="396" on="0"/>
        <pt x="343" y="482" on="0"/>
      </contour>
      <contour>
        <pt x="349" y="127" on="1"/>
        <pt x="128" y="127" on="1"/>
        <pt x="184" y="260" on="1"/>
        <pt x="349" y="260" on="1"/>
      </contour>
      <contour>
        <pt x="560" y="127" on="1"/>
        <pt x="349" y="127" on="1"/>
        <pt x="349" y="260" on="1"/>
        <pt x="506" y="260" on="1"/>
      </contour>
      <contour>
        <pt x="483" y="782" on="1"/>
        <pt x="483" y="732" on="0"/>
        <pt x="401" y="657" on="0"/>
        <pt x="347" y="657" on="1"/>
        <pt x="292" y="657" on="0"/>
        <pt x="210" y="732" on="0"/>
        <pt x="210" y="782" on="1"/>
        <pt x="210" y="836" on="0"/>
        <pt x="291" y="915" on="0"/>
        <pt x="347" y="915" on="1"/>
        <pt x="401" y="915" on="0"/>
        <pt x="483" y="836" on="0"/>
      </contour>
      <contour>
        <pt x="307" y="782" on="1"/>
        <pt x="307" y="766" on="0"/>
        <pt x="331" y="743" on="0"/>
        <pt x="347" y="743" on="1"/>
        <pt x="363" y="743" on="0"/>
        <pt x="387" y="766" on="0"/>
        <pt x="387" y="782" on="1"/>
        <pt x="387" y="800" on="0"/>
        <pt x="363" y="822" on="0"/>
        <pt x="347" y="822" on="1"/>
        <pt x="330" y="822" on="0"/>
        <pt x="307" y="799" on="0"/>
      </contour>
      <contour>
        <pt x="507" y="1057" on="1"/>
        <pt x="297" y="944" on="1"/>
        <pt x="246" y="1023" on="1"/>
        <pt x="430" y="1168" on="1"/>
      </contour>
    </TTGlyph>
    <TTGlyph name="Atilde" xMin="-5" yMin="0" xMax="698" yMax="932">
      <contour>
        <pt x="330" y="535" on="1"/>
        <pt x="361" y="535" on="1"/>
        <pt x="348" y="482" on="0"/>
        <pt x="319" y="394" on="0"/>
        <pt x="299" y="343" on="1"/>
        <pt x="172" y="0" on="1"/>
        <pt x="-5" y="0" on="1"/>
        <pt x="273" y="700" on="1"/>
        <pt x="423" y="700" on="1"/>
        <pt x="698" y="0" on="1"/>
        <pt x="517" y="0" on="1"/>
        <pt x="389" y="345" on="1"/>
        <pt x="371" y="396" on="0"/>
        <pt x="343" y="482" on="0"/>
      </contour>
      <contour>
        <pt x="349" y="127" on="1"/>
        <pt x="128" y="127" on="1"/>
        <pt x="184" y="260" on="1"/>
        <pt x="349" y="260" on="1"/>
      </contour>
      <contour>
        <pt x="560" y="127" on="1"/>
        <pt x="349" y="127" on="1"/>
        <pt x="349" y="260" on="1"/>
        <pt x="506" y="260" on="1"/>
      </contour>
      <contour>
        <pt x="260" y="786" on="1"/>
        <pt x="156" y="786" on="1"/>
        <pt x="156" y="853" on="0"/>
        <pt x="224" y="932" on="0"/>
        <pt x="282" y="932" on="1"/>
        <pt x="297" y="932" on="0"/>
        <pt x="331" y="923" on="0"/>
        <pt x="363" y="909" on="1"/>
        <pt x="386" y="900" on="0"/>
        <pt x="404" y="892" on="0"/>
        <pt x="412" y="892" on="1"/>
        <pt x="425" y="892" on="0"/>
        <pt x="438" y="914" on="0"/>
        <pt x="437" y="932" on="1"/>
        <pt x="539" y="932" on="1"/>
        <pt x="539" y="869" on="0"/>
        <pt x="477" y="785" on="0"/>
        <pt x="427" y="785" on="1"/>
        <pt x="410" y="785" on="0"/>
        <pt x="371" y="795" on="0"/>
        <pt x="334" y="809" on="1"/>
        <pt x="312" y="818" on="0"/>
        <pt x="293" y="825" on="0"/>
        <pt x="287" y="825" on="1"/>
        <pt x="275" y="825" on="0"/>
        <pt x="260" y="804" on="0"/>
      </contour>
    </TTGlyph>
    <TTGlyph name="B" xMin="86" yMin="0" xMax="661" yMax="700">
      <contour>
        <pt x="86" y="700" on="1"/>
        <pt x="398" y="700" on="1"/>
        <pt x="508" y="700" on="0"/>
        <pt x="624" y="609" on="0"/>
        <pt x="624" y="529" on="1"/>
        <pt x="624" y="452" on="0"/>
        <pt x="532" y="364" on="0"/>
        <pt x="446" y="363" on="1"/>
        <pt x="447" y="399" on="1"/>
        <pt x="540" y="397" on="0"/>
        <pt x="661" y="296" on="0"/>
        <pt x="661" y="213" on="1"/>
        <pt x="661" y="106" on="0"/>
        <pt x="518" y="0" on="0"/>
        <pt x="408" y="0" on="1"/>
        <pt x="86" y="0" on="1"/>
      </contour>
      <contour>
        <pt x="449" y="486" on="1"/>
        <pt x="449" y="517" on="0"/>
        <pt x="409" y="552" on="0"/>
        <pt x="366" y="552" on="1"/>
        <pt x="231" y="552" on="1"/>
        <pt x="255" y="581" on="1"/>
        <pt x="255" y="399" on="1"/>
        <pt x="232" y="421" on="1"/>
        <pt x="371" y="421" on="1"/>
        <pt x="410" y="421" on="0"/>
        <pt x="449" y="456" on="0"/>
      </contour>
      <contour>
        <pt x="484" y="222" on="1"/>
        <pt x="484" y="254" on="0"/>
        <pt x="438" y="290" on="0"/>
        <pt x="397" y="290" on="1"/>
        <pt x="236" y="290" on="1"/>
        <pt x="255" y="317" on="1"/>
        <pt x="255" y="124" on="1"/>
        <pt x="235" y="148" on="1"/>
        <pt x="402" y="148" on="1"/>
        <pt x="441" y="148" on="0"/>
        <pt x="484" y="186" on="0"/>
      </contour>
    </TTGlyph>
    <TTGlyph name="C" xMin="43" yMin="-10" xMax="677" yMax="715">
      <contour>
        <pt x="585" y="224" on="1"/>
        <pt x="672" y="87" on="1"/>
        <pt x="634" y="45" on="0"/>
        <pt x="487" y="-10" on="0"/>
        <pt x="410" y="-10" on="1"/>
        <pt x="249" y="-10" on="0"/>
        <pt x="43" y="194" on="0"/>
        <pt x="43" y="353" on="1"/>
        <pt x="43" y="510" on="0"/>
        <pt x="255" y="715" on="0"/>
        <pt x="417" y="715" on="1"/>
        <pt x="491" y="715" on="0"/>
        <pt x="630" y="658" on="0"/>
        <pt x="677" y="604" on="1"/>
        <pt x="567" y="479" on="1"/>
        <pt x="539" y="511" on="0"/>
        <pt x="464" y="549" on="0"/>
        <pt x="416" y="549" on="1"/>
        <pt x="337" y="549" on="0"/>
        <pt x="227" y="443" on="0"/>
        <pt x="227" y="351" on="1"/>
        <pt x="227" y="262" on="0"/>
        <pt x="339" y="156" on="0"/>
        <pt x="431" y="156" on="1"/>
        <pt x="477" y="156" on="0"/>
        <pt x="558" y="194" on="0"/>
      </contour>
    </TTGlyph>
    <TTGlyph name="Cacute" xMin="43" yMin="-10" xMax="677" yMax="987">
      <contour>
        <pt x="585" y="224" on="1"/>
        <pt x="672" y="87" on="1"/>
        <pt x="634" y="45" on="0"/>
        <pt x="487" y="-10" on="0"/>
        <pt x="410" y="-10" on="1"/>
        <pt x="249" y="-10" on="0"/>
        <pt x="43" y="194" on="0"/>
        <pt x="43" y="353" on="1"/>
        <pt x="43" y="510" on="0"/>
        <pt x="255" y="715" on="0"/>
        <pt x="417" y="715" on="1"/>
        <pt x="491" y="715" on="0"/>
        <pt x="630" y="658" on="0"/>
        <pt x="677" y="604" on="1"/>
        <pt x="567" y="479" on="1"/>
        <pt x="539" y="511" on="0"/>
        <pt x="464" y="549" on="0"/>
        <pt x="416" y="549" on="1"/>
        <pt x="337" y="549" on="0"/>
        <pt x="227" y="443" on="0"/>
        <pt x="227" y="351" on="1"/>
        <pt x="227" y="262" on="0"/>
        <pt x="339" y="156" on="0"/>
        <pt x="431" y="156" on="1"/>
        <pt x="477" y="156" on="0"/>
        <pt x="558" y="194" on="0"/>
      </contour>
      <contour>
        <pt x="555" y="876" on="1"/>
        <pt x="345" y="763" on="1"/>
        <pt x="294" y="842" on="1"/>
        <pt x="478" y="987" on="1"/>
      </contour>
    </TTGlyph>
    <TTGlyph name="Ccaron" xMin="43" yMin="-10" xMax="677" yMax="950">
      <contour>
        <pt x="585" y="224" on="1"/>
        <pt x="672" y="87" on="1"/>
        <pt x="634" y="45" on="0"/>
        <pt x="487" y="-10" on="0"/>
        <pt x="410" y="-10" on="1"/>
        <pt x="249" y="-10" on="0"/>
        <pt x="43" y="194" on="0"/>
        <pt x="43" y="353" on="1"/>
        <pt x="43" y="510" on="0"/>
        <pt x="255" y="715" on="0"/>
        <pt x="417" y="715" on="1"/>
        <pt x="491" y="715" on="0"/>
        <pt x="630" y="658" on="0"/>
        <pt x="677" y="604" on="1"/>
        <pt x="567" y="479" on="1"/>
        <pt x="539" y="511" on="0"/>
        <pt x="464" y="549" on="0"/>
        <pt x="416" y="549" on="1"/>
        <pt x="337" y="549" on="0"/>
        <pt x="227" y="443" on="0"/>
        <pt x="227" y="351" on="1"/>
        <pt x="227" y="262" on="0"/>
        <pt x="339" y="156" on="0"/>
        <pt x="431" y="156" on="1"/>
        <pt x="477" y="156" on="0"/>
        <pt x="558" y="194" on="0"/>
      </contour>
      <contour>
        <pt x="521" y="950" on="1"/>
        <pt x="370" y="862" on="1"/>
        <pt x="400" y="862" on="1"/>
        <pt x="248" y="950" on="1"/>
        <pt x="187" y="898" on="1"/>
        <pt x="336" y="765" on="1"/>
        <pt x="433" y="765" on="1"/>
        <pt x="582" y="898" on="1"/>
      </contour>
    </TTGlyph>
    <TTGlyph name="Ccedilla" xMin="43" yMin="-244" xMax="677" yMax="715">
      <contour>
        <pt x="585" y="224" on="1"/>
        <pt x="672" y="87" on="1"/>
        <pt x="634" y="45" on="0"/>
        <pt x="487" y="-10" on="0"/>
        <pt x="410" y="-10" on="1"/>
        <pt x="249" y="-10" on="0"/>
        <pt x="43" y="194" on="0"/>
        <pt x="43" y="353" on="1"/>
        <pt x="43" y="510" on="0"/>
        <pt x="255" y="715" on="0"/>
        <pt x="417" y="715" on="1"/>
        <pt x="491" y="715" on="0"/>
        <pt x="630" y="658" on="0"/>
        <pt x="677" y="604" on="1"/>
        <pt x="567" y="479" on="1"/>
        <pt x="539" y="511" on="0"/>
        <pt x="464" y="549" on="0"/>
        <pt x="416" y="549" on="1"/>
        <pt x="337" y="549" on="0"/>
        <pt x="227" y="443" on="0"/>
        <pt x="227" y="351" on="1"/>
        <pt x="227" y="262" on="0"/>
        <pt x="339" y="156" on="0"/>
        <pt x="431" y="156" on="1"/>
        <pt x="477" y="156" on="0"/>
        <pt x="558" y="194" on="0"/>
      </contour>
      <contour>
        <pt x="378" y="-87" on="1"/>
        <pt x="304" y="-80" on="1"/>
        <pt x="372" y="27" on="1"/>
        <pt x="458" y="27" on="1"/>
      </contour>
      <contour>
        <pt x="515" y="-136" on="1"/>
        <pt x="515" y="-159" on="0"/>
        <pt x="478" y="-209" on="0"/>
        <pt x="445" y="-224" on="1"/>
        <pt x="416" y="-235" on="0"/>
        <pt x="345" y="-244" on="0"/>
        <pt x="305" y="-243" on="1"/>
        <pt x="295" y="-164" on="1"/>
        <pt x="325" y="-164" on="0"/>
        <pt x="390" y="-144" on="0"/>
        <pt x="390" y="-126" on="1"/>
        <pt x="390" y="-111" on="0"/>
        <pt x="352" y="-94" on="0"/>
        <pt x="322" y="-94" on="1"/>
        <pt x="304" y="-82" on="1"/>
        <pt x="304" y="-80" on="1"/>
        <pt x="392" y="-36" on="1"/>
        <pt x="455" y="-39" on="0"/>
        <pt x="515" y="-95" on="0"/>
      </contour>
    </TTGlyph>
    <TTGlyph name="Ccircumflex" xMin="43" yMin="-10" xMax="677" yMax="945">
      <contour>
        <pt x="585" y="224" on="1"/>
        <pt x="672" y="87" on="1"/>
        <pt x="634" y="45" on="0"/>
        <pt x="487" y="-10" on="0"/>
        <pt x="410" y="-10" on="1"/>
        <pt x="249" y="-10" on="0"/>
        <pt x="43" y="194" on="0"/>
        <pt x="43" y="353" on="1"/>
        <pt x="43" y="510" on="0"/>
        <pt x="255" y="715" on="0"/>
        <pt x="417" y="715" on="1"/>
        <pt x="491" y="715" on="0"/>
        <pt x="630" y="658" on="0"/>
        <pt x="677" y="604" on="1"/>
        <pt x="567" y="479" on="1"/>
        <pt x="539" y="511" on="0"/>
        <pt x="464" y="549" on="0"/>
        <pt x="416" y="549" on="1"/>
        <pt x="337" y="549" on="0"/>
        <pt x="227" y="443" on="0"/>
        <pt x="227" y="351" on="1"/>
        <pt x="227" y="262" on="0"/>
        <pt x="339" y="156" on="0"/>
        <pt x="431" y="156" on="1"/>
        <pt x="477" y="156" on="0"/>
        <pt x="558" y="194" on="0"/>
      </contour>
      <contour>
        <pt x="518" y="767" on="1"/>
        <pt x="372" y="850" on="1"/>
        <pt x="401" y="850" on="1"/>
        <pt x="255" y="767" on="1"/>
        <pt x="197" y="824" on="1"/>
        <pt x="340" y="945" on="1"/>
        <pt x="433" y="945" on="1"/>
        <pt x="576" y="824" on="1"/>
      </contour>
    </TTGlyph>
    <TTGlyph name="Cdotaccent" xMin="43" yMin="-10" xMax="677" yMax="938">
      <contour>
        <pt x="585" y="224" on="1"/>
        <pt x="672" y="87" on="1"/>
        <pt x="634" y="45" on="0"/>
        <pt x="487" y="-10" on="0"/>
        <pt x="410" y="-10" on="1"/>
        <pt x="249" y="-10" on="0"/>
        <pt x="43" y="194" on="0"/>
        <pt x="43" y="353" on="1"/>
        <pt x="43" y="510" on="0"/>
        <pt x="255" y="715" on="0"/>
        <pt x="417" y="715" on="1"/>
        <pt x="491" y="715" on="0"/>
        <pt x="630" y="658" on="0"/>
        <pt x="677" y="604" on="1"/>
        <pt x="567" y="479" on="1"/>
        <pt x="539" y="511" on="0"/>
        <pt x="464" y="549" on="0"/>
        <pt x="416" y="549" on="1"/>
        <pt x="337" y="549" on="0"/>
        <pt x="227" y="443" on="0"/>
        <pt x="227" y="351" on="1"/>
        <pt x="227" y="262" on="0"/>
        <pt x="339" y="156" on="0"/>
        <pt x="431" y="156" on="1"/>
        <pt x="477" y="156" on="0"/>
        <pt x="558" y="194" on="0"/>
      </contour>
      <contour>
        <pt x="489" y="852" on="1"/>
        <pt x="489" y="814" on="0"/>
        <pt x="435" y="766" on="0"/>
        <pt x="389" y="766" on="1"/>
        <pt x="342" y="766" on="0"/>
        <pt x="289" y="811" on="0"/>
        <pt x="289" y="852" on="1"/>
        <pt x="289" y="890" on="0"/>
        <pt x="343" y="938" on="0"/>
        <pt x="389" y="938" on="1"/>
        <pt x="436" y="938" on="0"/>
        <pt x="489" y="893" on="0"/>
      </contour>
    </TTGlyph>
    <TTGlyph name="D" xMin="86" yMin="0" xMax="733" yMax="700">
      <contour>
        <pt x="86" y="700" on="1"/>
        <pt x="383" y="700" on="1"/>
        <pt x="538" y="700" on="0"/>
        <pt x="733" y="504" on="0"/>
        <pt x="733" y="350" on="1"/>
        <pt x="733" y="196" on="0"/>
        <pt x="538" y="0" on="0"/>
        <pt x="383" y="0" on="1"/>
        <pt x="86" y="0" on="1"/>
      </contour>
      <contour>
        <pt x="240" y="157" on="1"/>
        <pt x="378" y="157" on="1"/>
        <pt x="456" y="157" on="0"/>
        <pt x="551" y="264" on="0"/>
        <pt x="551" y="350" on="1"/>
        <pt x="551" y="436" on="0"/>
        <pt x="456" y="543" on="0"/>
        <pt x="378" y="543" on="1"/>
        <pt x="237" y="543" on="1"/>
        <pt x="266" y="578" on="1"/>
        <pt x="266" y="120" on="1"/>
      </contour>
    </TTGlyph>
    <TTGlyph name="Dcaron" xMin="86" yMin="0" xMax="733" yMax="950">
      <contour>
        <pt x="86" y="700" on="1"/>
        <pt x="383" y="700" on="1"/>
        <pt x="538" y="700" on="0"/>
        <pt x="733" y="504" on="0"/>
        <pt x="733" y="350" on="1"/>
        <pt x="733" y="196" on="0"/>
        <pt x="538" y="0" on="0"/>
        <pt x="383" y="0" on="1"/>
        <pt x="86" y="0" on="1"/>
      </contour>
      <contour>
        <pt x="240" y="157" on="1"/>
        <pt x="378" y="157" on="1"/>
        <pt x="456" y="157" on="0"/>
        <pt x="551" y="264" on="0"/>
        <pt x="551" y="350" on="1"/>
        <pt x="551" y="436" on="0"/>
        <pt x="456" y="543" on="0"/>
        <pt x="378" y="543" on="1"/>
        <pt x="237" y="543" on="1"/>
        <pt x="266" y="578" on="1"/>
        <pt x="266" y="120" on="1"/>
      </contour>
      <contour>
        <pt x="485" y="950" on="1"/>
        <pt x="333" y="862" on="1"/>
        <pt x="363" y="862" on="1"/>
        <pt x="211" y="950" on="1"/>
        <pt x="151" y="898" on="1"/>
        <pt x="300" y="765" on="1"/>
        <pt x="396" y="765" on="1"/>
        <pt x="545" y="898" on="1"/>
      </contour>
    </TTGlyph>
    <TTGlyph name="Dcroat" xMin="13" yMin="0" xMax="733" yMax="700">
      <contour>
        <pt x="86" y="700" on="1"/>
        <pt x="383" y="700" on="1"/>
        <pt x="538" y="700" on="0"/>
        <pt x="733" y="504" on="0"/>
        <pt x="733" y="350" on="1"/>
        <pt x="733" y="196" on="0"/>
        <pt x="538" y="0" on="0"/>
        <pt x="383" y="0" on="1"/>
        <pt x="86" y="0" on="1"/>
      </contour>
      <contour>
        <pt x="240" y="157" on="1"/>
        <pt x="378" y="157" on="1"/>
        <pt x="456" y="157" on="0"/>
        <pt x="551" y="264" on="0"/>
        <pt x="551" y="350" on="1"/>
        <pt x="551" y="436" on="0"/>
        <pt x="456" y="543" on="0"/>
        <pt x="378" y="543" on="1"/>
        <pt x="237" y="543" on="1"/>
        <pt x="266" y="578" on="1"/>
        <pt x="266" y="120" on="1"/>
      </contour>
      <contour>
        <pt x="347" y="287" on="1"/>
        <pt x="13" y="287" on="1"/>
        <pt x="13" y="410" on="1"/>
        <pt x="347" y="410" on="1"/>
      </contour>
    </TTGlyph>
    <TTGlyph name="E" xMin="86" yMin="0" xMax="594" yMax="700">
      <contour>
        <pt x="260" y="0" on="1"/>
        <pt x="86" y="0" on="1"/>
        <pt x="86" y="700" on="1"/>
        <pt x="260" y="700" on="1"/>
      </contour>
      <contour>
        <pt x="594" y="0" on="1"/>
        <pt x="171" y="0" on="1"/>
        <pt x="171" y="151" on="1"/>
        <pt x="594" y="151" on="1"/>
      </contour>
      <contour>
        <pt x="539" y="284" on="1"/>
        <pt x="171" y="284" on="1"/>
        <pt x="171" y="428" on="1"/>
        <pt x="539" y="428" on="1"/>
      </contour>
      <contour>
        <pt x="582" y="549" on="1"/>
        <pt x="171" y="549" on="1"/>
        <pt x="171" y="700" on="1"/>
        <pt x="582" y="700" on="1"/>
      </contour>
    </TTGlyph>
    <TTGlyph name="Eacute" xMin="86" yMin="0" xMax="594" yMax="987">
      <contour>
        <pt x="260" y="0" on="1"/>
        <pt x="86" y="0" on="1"/>
        <pt x="86" y="700" on="1"/>
        <pt x="260" y="700" on="1"/>
      </contour>
      <contour>
        <pt x="594" y="0" on="1"/>
        <pt x="171" y="0" on="1"/>
        <pt x="171" y="151" on="1"/>
        <pt x="594" y="151" on="1"/>
      </contour>
      <contour>
        <pt x="539" y="284" on="1"/>
        <pt x="171" y="284" on="1"/>
        <pt x="171" y="428" on="1"/>
        <pt x="539" y="428" on="1"/>
      </contour>
      <contour>
        <pt x="582" y="549" on="1"/>
        <pt x="171" y="549" on="1"/>
        <pt x="171" y="700" on="1"/>
        <pt x="582" y="700" on="1"/>
      </contour>
      <contour>
        <pt x="501" y="876" on="1"/>
        <pt x="291" y="763" on="1"/>
        <pt x="240" y="842" on="1"/>
        <pt x="424" y="987" on="1"/>
      </contour>
    </TTGlyph>
    <TTGlyph name="Ebreve" xMin="86" yMin="0" xMax="594" yMax="936">
      <contour>
        <pt x="260" y="0" on="1"/>
        <pt x="86" y="0" on="1"/>
        <pt x="86" y="700" on="1"/>
        <pt x="260" y="700" on="1"/>
      </contour>
      <contour>
        <pt x="594" y="0" on="1"/>
        <pt x="171" y="0" on="1"/>
        <pt x="171" y="151" on="1"/>
        <pt x="594" y="151" on="1"/>
      </contour>
      <contour>
        <pt x="539" y="284" on="1"/>
        <pt x="171" y="284" on="1"/>
        <pt x="171" y="428" on="1"/>
        <pt x="539" y="428" on="1"/>
      </contour>
      <contour>
        <pt x="582" y="549" on="1"/>
        <pt x="171" y="549" on="1"/>
        <pt x="171" y="700" on="1"/>
        <pt x="582" y="700" on="1"/>
      </contour>
      <contour>
        <pt x="337" y="764" on="1"/>
        <pt x="268" y="764" on="0"/>
        <pt x="170" y="849" on="0"/>
        <pt x="155" y="924" on="1"/>
        <pt x="263" y="936" on="1"/>
        <pt x="273" y="906" on="0"/>
        <pt x="314" y="871" on="0"/>
        <pt x="337" y="871" on="1"/>
        <pt x="360" y="871" on="0"/>
        <pt x="402" y="906" on="0"/>
        <pt x="412" y="936" on="1"/>
        <pt x="519" y="924" on="1"/>
        <pt x="505" y="849" on="0"/>
        <pt x="406" y="764" on="0"/>
      </contour>
    </TTGlyph>
    <TTGlyph name="Ecaron" xMin="86" yMin="0" xMax="594" yMax="950">
      <contour>
        <pt x="260" y="0" on="1"/>
        <pt x="86" y="0" on="1"/>
        <pt x="86" y="700" on="1"/>
        <pt x="260" y="700" on="1"/>
      </contour>
      <contour>
        <pt x="594" y="0" on="1"/>
        <pt x="171" y="0" on="1"/>
        <pt x="171" y="151" on="1"/>
        <pt x="594" y="151" on="1"/>
      </contour>
      <contour>
        <pt x="539" y="284" on="1"/>
        <pt x="171" y="284" on="1"/>
        <pt x="171" y="428" on="1"/>
        <pt x="539" y="428" on="1"/>
      </contour>
      <contour>
        <pt x="582" y="549" on="1"/>
        <pt x="171" y="549" on="1"/>
        <pt x="171" y="700" on="1"/>
        <pt x="582" y="700" on="1"/>
      </contour>
      <contour>
        <pt x="474" y="950" on="1"/>
        <pt x="322" y="862" on="1"/>
        <pt x="352" y="862" on="1"/>
        <pt x="200" y="950" on="1"/>
        <pt x="140" y="898" on="1"/>
        <pt x="289" y="765" on="1"/>
        <pt x="385" y="765" on="1"/>
        <pt x="534" y="898" on="1"/>
      </contour>
    </TTGlyph>
    <TTGlyph name="Ecircumflex" xMin="86" yMin="0" xMax="594" yMax="945">
      <contour>
        <pt x="260" y="0" on="1"/>
        <pt x="86" y="0" on="1"/>
        <pt x="86" y="700" on="1"/>
        <pt x="260" y="700" on="1"/>
      </contour>
      <contour>
        <pt x="594" y="0" on="1"/>
        <pt x="171" y="0" on="1"/>
        <pt x="171" y="151" on="1"/>
        <pt x="594" y="151" on="1"/>
      </contour>
      <contour>
        <pt x="539" y="284" on="1"/>
        <pt x="171" y="284" on="1"/>
        <pt x="171" y="428" on="1"/>
        <pt x="539" y="428" on="1"/>
      </contour>
      <contour>
        <pt x="582" y="549" on="1"/>
        <pt x="171" y="549" on="1"/>
        <pt x="171" y="700" on="1"/>
        <pt x="582" y="700" on="1"/>
      </contour>
      <contour>
        <pt x="470" y="767" on="1"/>
        <pt x="324" y="850" on="1"/>
        <pt x="354" y="850" on="1"/>
        <pt x="207" y="767" on="1"/>
        <pt x="150" y="824" on="1"/>
        <pt x="293" y="945" on="1"/>
        <pt x="385" y="945" on="1"/>
        <pt x="528" y="824" on="1"/>
      </contour>
    </TTGlyph>
    <TTGlyph name="Edieresis" xMin="86" yMin="0" xMax="594" yMax="940">
      <contour>
        <pt x="260" y="0" on="1"/>
        <pt x="86" y="0" on="1"/>
        <pt x="86" y="700" on="1"/>
        <pt x="260" y="700" on="1"/>
      </contour>
      <contour>
        <pt x="594" y="0" on="1"/>
        <pt x="171" y="0" on="1"/>
        <pt x="171" y="151" on="1"/>
        <pt x="594" y="151" on="1"/>
      </contour>
      <contour>
        <pt x="539" y="284" on="1"/>
        <pt x="171" y="284" on="1"/>
        <pt x="171" y="428" on="1"/>
        <pt x="539" y="428" on="1"/>
      </contour>
      <contour>
        <pt x="582" y="549" on="1"/>
        <pt x="171" y="549" on="1"/>
        <pt x="171" y="700" on="1"/>
        <pt x="582" y="700" on="1"/>
      </contour>
      <contour>
        <pt x="304" y="851" on="1"/>
        <pt x="304" y="812" on="0"/>
        <pt x="256" y="763" on="0"/>
        <pt x="214" y="763" on="1"/>
        <pt x="171" y="763" on="0"/>
        <pt x="125" y="809" on="0"/>
        <pt x="125" y="851" on="1"/>
        <pt x="125" y="890" on="0"/>
        <pt x="173" y="940" on="0"/>
        <pt x="214" y="940" on="1"/>
        <pt x="257" y="940" on="0"/>
        <pt x="304" y="894" on="0"/>
      </contour>
      <contour>
        <pt x="553" y="851" on="1"/>
        <pt x="553" y="812" on="0"/>
        <pt x="505" y="763" on="0"/>
        <pt x="464" y="763" on="1"/>
        <pt x="421" y="763" on="0"/>
        <pt x="374" y="809" on="0"/>
        <pt x="374" y="851" on="1"/>
        <pt x="374" y="890" on="0"/>
        <pt x="422" y="940" on="0"/>
        <pt x="464" y="940" on="1"/>
        <pt x="507" y="940" on="0"/>
        <pt x="553" y="894" on="0"/>
      </contour>
    </TTGlyph>
    <TTGlyph name="Edotaccent" xMin="86" yMin="0" xMax="594" yMax="938">
      <contour>
        <pt x="260" y="0" on="1"/>
        <pt x="86" y="0" on="1"/>
        <pt x="86" y="700" on="1"/>
        <pt x="260" y="700" on="1"/>
      </contour>
      <contour>
        <pt x="594" y="0" on="1"/>
        <pt x="171" y="0" on="1"/>
        <pt x="171" y="151" on="1"/>
        <pt x="594" y="151" on="1"/>
      </contour>
      <contour>
        <pt x="539" y="284" on="1"/>
        <pt x="171" y="284" on="1"/>
        <pt x="171" y="428" on="1"/>
        <pt x="539" y="428" on="1"/>
      </contour>
      <contour>
        <pt x="582" y="549" on="1"/>
        <pt x="171" y="549" on="1"/>
        <pt x="171" y="700" on="1"/>
        <pt x="582" y="700" on="1"/>
      </contour>
      <contour>
        <pt x="438" y="852" on="1"/>
        <pt x="438" y="814" on="0"/>
        <pt x="385" y="766" on="0"/>
        <pt x="339" y="766" on="1"/>
        <pt x="292" y="766" on="0"/>
        <pt x="239" y="811" on="0"/>
        <pt x="239" y="852" on="1"/>
        <pt x="239" y="890" on="0"/>
        <pt x="293" y="938" on="0"/>
        <pt x="339" y="938" on="1"/>
        <pt x="386" y="938" on="0"/>
        <pt x="438" y="893" on="0"/>
      </contour>
    </TTGlyph>
    <TTGlyph name="Egrave" xMin="86" yMin="0" xMax="594" yMax="988">
      <contour>
        <pt x="260" y="0" on="1"/>
        <pt x="86" y="0" on="1"/>
        <pt x="86" y="700" on="1"/>
        <pt x="260" y="700" on="1"/>
      </contour>
      <contour>
        <pt x="594" y="0" on="1"/>
        <pt x="171" y="0" on="1"/>
        <pt x="171" y="151" on="1"/>
        <pt x="594" y="151" on="1"/>
      </contour>
      <contour>
        <pt x="539" y="284" on="1"/>
        <pt x="171" y="284" on="1"/>
        <pt x="171" y="428" on="1"/>
        <pt x="539" y="428" on="1"/>
      </contour>
      <contour>
        <pt x="582" y="549" on="1"/>
        <pt x="171" y="549" on="1"/>
        <pt x="171" y="700" on="1"/>
        <pt x="582" y="700" on="1"/>
      </contour>
      <contour>
        <pt x="441" y="844" on="1"/>
        <pt x="390" y="765" on="1"/>
        <pt x="180" y="877" on="1"/>
        <pt x="257" y="988" on="1"/>
      </contour>
    </TTGlyph>
    <TTGlyph name="Emacron" xMin="86" yMin="0" xMax="594" yMax="877">
      <contour>
        <pt x="260" y="0" on="1"/>
        <pt x="86" y="0" on="1"/>
        <pt x="86" y="700" on="1"/>
        <pt x="260" y="700" on="1"/>
      </contour>
      <contour>
        <pt x="594" y="0" on="1"/>
        <pt x="171" y="0" on="1"/>
        <pt x="171" y="151" on="1"/>
        <pt x="594" y="151" on="1"/>
      </contour>
      <contour>
        <pt x="539" y="284" on="1"/>
        <pt x="171" y="284" on="1"/>
        <pt x="171" y="428" on="1"/>
        <pt x="539" y="428" on="1"/>
      </contour>
      <contour>
        <pt x="582" y="549" on="1"/>
        <pt x="171" y="549" on="1"/>
        <pt x="171" y="700" on="1"/>
        <pt x="582" y="700" on="1"/>
      </contour>
      <contour>
        <pt x="515" y="772" on="1"/>
        <pt x="152" y="772" on="1"/>
        <pt x="152" y="877" on="1"/>
        <pt x="515" y="877" on="1"/>
      </contour>
    </TTGlyph>
    <TTGlyph name="Eng" xMin="79" yMin="-204" xMax="716" yMax="700">
      <contour>
        <pt x="547" y="58" on="1"/>
        <pt x="555" y="-2" on="1"/>
        <pt x="227" y="440" on="1"/>
        <pt x="241" y="449" on="1"/>
        <pt x="244" y="414" on="0"/>
        <pt x="250" y="347" on="0"/>
        <pt x="251" y="323" on="1"/>
        <pt x="253" y="297" on="0"/>
        <pt x="254" y="250" on="0"/>
        <pt x="254" y="224" on="1"/>
        <pt x="254" y="0" on="1"/>
        <pt x="79" y="0" on="1"/>
        <pt x="79" y="700" on="1"/>
        <pt x="240" y="700" on="1"/>
        <pt x="574" y="245" on="1"/>
        <pt x="560" y="238" on="1"/>
        <pt x="548" y="323" on="0"/>
        <pt x="541" y="445" on="0"/>
        <pt x="542" y="537" on="1"/>
        <pt x="542" y="700" on="1"/>
        <pt x="716" y="700" on="1"/>
        <pt x="716" y="65" on="1"/>
        <pt x="716" y="-8" on="1"/>
        <pt x="716" y="-110" on="0"/>
        <pt x="594" y="-204" on="0"/>
        <pt x="485" y="-204" on="1"/>
        <pt x="413" y="-71" on="1"/>
        <pt x="461" y="-71" on="0"/>
        <pt x="547" y="-37" on="0"/>
        <pt x="547" y="0" on="1"/>
      </contour>
    </TTGlyph>
    <TTGlyph name="Eogonek" xMin="86" yMin="-213" xMax="619" yMax="700">
      <contour>
        <pt x="260" y="0" on="1"/>
        <pt x="86" y="0" on="1"/>
        <pt x="86" y="700" on="1"/>
        <pt x="260" y="700" on="1"/>
      </contour>
      <contour>
        <pt x="594" y="0" on="1"/>
        <pt x="171" y="0" on="1"/>
        <pt x="171" y="151" on="1"/>
        <pt x="594" y="151" on="1"/>
      </contour>
      <contour>
        <pt x="539" y="284" on="1"/>
        <pt x="171" y="284" on="1"/>
        <pt x="171" y="428" on="1"/>
        <pt x="539" y="428" on="1"/>
      </contour>
      <contour>
        <pt x="582" y="549" on="1"/>
        <pt x="171" y="549" on="1"/>
        <pt x="171" y="700" on="1"/>
        <pt x="582" y="700" on="1"/>
      </contour>
      <contour>
        <pt x="497" y="-213" on="1"/>
        <pt x="445" y="-213" on="0"/>
        <pt x="375" y="-148" on="0"/>
        <pt x="375" y="-101" on="1"/>
        <pt x="375" y="-50" on="0"/>
        <pt x="465" y="28" on="0"/>
        <pt x="543" y="50" on="1"/>
        <pt x="565" y="44" on="1"/>
        <pt x="587" y="0" on="1"/>
        <pt x="547" y="-9" on="0"/>
        <pt x="489" y="-53" on="0"/>
        <pt x="489" y="-79" on="1"/>
        <pt x="489" y="-91" on="0"/>
        <pt x="503" y="-106" on="0"/>
        <pt x="516" y="-106" on="1"/>
        <pt x="525" y="-106" on="0"/>
        <pt x="539" y="-94" on="0"/>
        <pt x="547" y="-82" on="1"/>
        <pt x="619" y="-135" on="1"/>
        <pt x="604" y="-163" on="0"/>
        <pt x="538" y="-213" on="0"/>
      </contour>
    </TTGlyph>
    <TTGlyph name="Eth" xMin="13" yMin="0" xMax="733" yMax="700">
      <contour>
        <pt x="86" y="700" on="1"/>
        <pt x="383" y="700" on="1"/>
        <pt x="538" y="700" on="0"/>
        <pt x="733" y="504" on="0"/>
        <pt x="733" y="350" on="1"/>
        <pt x="733" y="196" on="0"/>
        <pt x="538" y="0" on="0"/>
        <pt x="383" y="0" on="1"/>
        <pt x="86" y="0" on="1"/>
      </contour>
      <contour>
        <pt x="240" y="157" on="1"/>
        <pt x="378" y="157" on="1"/>
        <pt x="456" y="157" on="0"/>
        <pt x="551" y="264" on="0"/>
        <pt x="551" y="350" on="1"/>
        <pt x="551" y="436" on="0"/>
        <pt x="456" y="543" on="0"/>
        <pt x="378" y="543" on="1"/>
        <pt x="237" y="543" on="1"/>
        <pt x="266" y="578" on="1"/>
        <pt x="266" y="120" on="1"/>
      </contour>
      <contour>
        <pt x="347" y="287" on="1"/>
        <pt x="13" y="287" on="1"/>
        <pt x="13" y="410" on="1"/>
        <pt x="347" y="410" on="1"/>
      </contour>
    </TTGlyph>
    <TTGlyph name="Euro" xMin="18" yMin="-10" xMax="653" yMax="715">
      <contour>
        <pt x="484" y="253" on="1"/>
        <pt x="18" y="253" on="1"/>
        <pt x="18" y="325" on="1"/>
        <pt x="484" y="324" on="1"/>
      </contour>
      <contour>
        <pt x="484" y="377" on="1"/>
        <pt x="18" y="377" on="1"/>
        <pt x="18" y="448" on="1"/>
        <pt x="484" y="448" on="1"/>
      </contour>
      <contour>
        <pt x="462" y="-10" on="1"/>
        <pt x="300" y="-10" on="0"/>
        <pt x="91" y="194" on="0"/>
        <pt x="91" y="353" on="1"/>
        <pt x="91" y="510" on="0"/>
        <pt x="301" y="715" on="0"/>
        <pt x="462" y="715" on="1"/>
        <pt x="515" y="715" on="0"/>
        <pt x="608" y="691" on="0"/>
        <pt x="653" y="662" on="1"/>
        <pt x="566" y="520" on="1"/>
        <pt x="535" y="542" on="0"/>
        <pt x="479" y="557" on="0"/>
        <pt x="448" y="557" on="1"/>
        <pt x="371" y="557" on="0"/>
        <pt x="270" y="442" on="0"/>
        <pt x="270" y="353" on="1"/>
        <pt x="270" y="263" on="0"/>
        <pt x="370" y="149" on="0"/>
        <pt x="448" y="149" on="1"/>
        <pt x="482" y="149" on="0"/>
        <pt x="537" y="163" on="0"/>
        <pt x="568" y="186" on="1"/>
        <pt x="648" y="42" on="1"/>
        <pt x="603" y="14" on="0"/>
        <pt x="511" y="-10" on="0"/>
      </contour>
    </TTGlyph>
    <TTGlyph name="F" xMin="86" yMin="0" xMax="573" yMax="700">
      <contour>
        <pt x="86" y="0" on="1"/>
        <pt x="86" y="700" on="1"/>
        <pt x="266" y="700" on="1"/>
        <pt x="266" y="0" on="1"/>
      </contour>
      <contour>
        <pt x="533" y="263" on="1"/>
        <pt x="171" y="263" on="1"/>
        <pt x="171" y="411" on="1"/>
        <pt x="533" y="411" on="1"/>
      </contour>
      <contour>
        <pt x="573" y="543" on="1"/>
        <pt x="171" y="543" on="1"/>
        <pt x="171" y="700" on="1"/>
        <pt x="573" y="700" on="1"/>
      </contour>
    </TTGlyph>
    <TTGlyph name="G" xMin="43" yMin="-10" xMax="743" yMax="715">
      <contour>
        <pt x="43" y="353" on="1"/>
        <pt x="43" y="510" on="0"/>
        <pt x="255" y="715" on="0"/>
        <pt x="423" y="715" on="1"/>
        <pt x="511" y="715" on="0"/>
        <pt x="655" y="650" on="0"/>
        <pt x="699" y="600" on="1"/>
        <pt x="590" y="485" on="1"/>
        <pt x="555" y="518" on="0"/>
        <pt x="473" y="558" on="0"/>
        <pt x="421" y="558" on="1"/>
        <pt x="338" y="558" on="0"/>
        <pt x="227" y="442" on="0"/>
        <pt x="227" y="353" on="1"/>
        <pt x="227" y="266" on="0"/>
        <pt x="343" y="148" on="0"/>
        <pt x="429" y="148" on="1"/>
        <pt x="489" y="148" on="0"/>
        <pt x="572" y="219" on="0"/>
        <pt x="572" y="272" on="1"/>
        <pt x="572" y="298" on="1"/>
        <pt x="595" y="261" on="1"/>
        <pt x="405" y="261" on="1"/>
        <pt x="405" y="398" on="1"/>
        <pt x="738" y="398" on="1"/>
        <pt x="740" y="381" on="0"/>
        <pt x="743" y="313" on="0"/>
        <pt x="743" y="299" on="1"/>
        <pt x="743" y="163" on="0"/>
        <pt x="555" y="-10" on="0"/>
        <pt x="413" y="-10" on="1"/>
        <pt x="242" y="-10" on="0"/>
        <pt x="43" y="197" on="0"/>
      </contour>
    </TTGlyph>
    <TTGlyph name="Gbreve" xMin="43" yMin="-10" xMax="743" yMax="936">
      <contour>
        <pt x="43" y="353" on="1"/>
        <pt x="43" y="510" on="0"/>
        <pt x="255" y="715" on="0"/>
        <pt x="423" y="715" on="1"/>
        <pt x="511" y="715" on="0"/>
        <pt x="655" y="650" on="0"/>
        <pt x="699" y="600" on="1"/>
        <pt x="590" y="485" on="1"/>
        <pt x="555" y="518" on="0"/>
        <pt x="473" y="558" on="0"/>
        <pt x="421" y="558" on="1"/>
        <pt x="338" y="558" on="0"/>
        <pt x="227" y="442" on="0"/>
        <pt x="227" y="353" on="1"/>
        <pt x="227" y="266" on="0"/>
        <pt x="343" y="148" on="0"/>
        <pt x="429" y="148" on="1"/>
        <pt x="489" y="148" on="0"/>
        <pt x="572" y="219" on="0"/>
        <pt x="572" y="272" on="1"/>
        <pt x="572" y="298" on="1"/>
        <pt x="595" y="261" on="1"/>
        <pt x="405" y="261" on="1"/>
        <pt x="405" y="398" on="1"/>
        <pt x="738" y="398" on="1"/>
        <pt x="740" y="381" on="0"/>
        <pt x="743" y="313" on="0"/>
        <pt x="743" y="299" on="1"/>
        <pt x="743" y="163" on="0"/>
        <pt x="555" y="-10" on="0"/>
        <pt x="413" y="-10" on="1"/>
        <pt x="242" y="-10" on="0"/>
        <pt x="43" y="197" on="0"/>
      </contour>
      <contour>
        <pt x="411" y="764" on="1"/>
        <pt x="342" y="764" on="0"/>
        <pt x="244" y="849" on="0"/>
        <pt x="229" y="924" on="1"/>
        <pt x="337" y="936" on="1"/>
        <pt x="347" y="906" on="0"/>
        <pt x="388" y="871" on="0"/>
        <pt x="411" y="871" on="1"/>
        <pt x="434" y="871" on="0"/>
        <pt x="476" y="906" on="0"/>
        <pt x="486" y="936" on="1"/>
        <pt x="593" y="924" on="1"/>
        <pt x="579" y="849" on="0"/>
        <pt x="480" y="764" on="0"/>
      </contour>
    </TTGlyph>
    <TTGlyph name="Gcaron" xMin="43" yMin="-10" xMax="743" yMax="950">
      <contour>
        <pt x="43" y="353" on="1"/>
        <pt x="43" y="510" on="0"/>
        <pt x="255" y="715" on="0"/>
        <pt x="423" y="715" on="1"/>
        <pt x="511" y="715" on="0"/>
        <pt x="655" y="650" on="0"/>
        <pt x="699" y="600" on="1"/>
        <pt x="590" y="485" on="1"/>
        <pt x="555" y="518" on="0"/>
        <pt x="473" y="558" on="0"/>
        <pt x="421" y="558" on="1"/>
        <pt x="338" y="558" on="0"/>
        <pt x="227" y="442" on="0"/>
        <pt x="227" y="353" on="1"/>
        <pt x="227" y="266" on="0"/>
        <pt x="343" y="148" on="0"/>
        <pt x="429" y="148" on="1"/>
        <pt x="489" y="148" on="0"/>
        <pt x="572" y="219" on="0"/>
        <pt x="572" y="272" on="1"/>
        <pt x="572" y="298" on="1"/>
        <pt x="595" y="261" on="1"/>
        <pt x="405" y="261" on="1"/>
        <pt x="405" y="398" on="1"/>
        <pt x="738" y="398" on="1"/>
        <pt x="740" y="381" on="0"/>
        <pt x="743" y="313" on="0"/>
        <pt x="743" y="299" on="1"/>
        <pt x="743" y="163" on="0"/>
        <pt x="555" y="-10" on="0"/>
        <pt x="413" y="-10" on="1"/>
        <pt x="242" y="-10" on="0"/>
        <pt x="43" y="197" on="0"/>
      </contour>
      <contour>
        <pt x="548" y="950" on="1"/>
        <pt x="396" y="862" on="1"/>
        <pt x="426" y="862" on="1"/>
        <pt x="275" y="950" on="1"/>
        <pt x="214" y="898" on="1"/>
        <pt x="363" y="765" on="1"/>
        <pt x="460" y="765" on="1"/>
        <pt x="609" y="898" on="1"/>
      </contour>
    </TTGlyph>
    <TTGlyph name="Gcircumflex" xMin="43" yMin="-10" xMax="743" yMax="945">
      <contour>
        <pt x="43" y="353" on="1"/>
        <pt x="43" y="510" on="0"/>
        <pt x="255" y="715" on="0"/>
        <pt x="423" y="715" on="1"/>
        <pt x="511" y="715" on="0"/>
        <pt x="655" y="650" on="0"/>
        <pt x="699" y="600" on="1"/>
        <pt x="590" y="485" on="1"/>
        <pt x="555" y="518" on="0"/>
        <pt x="473" y="558" on="0"/>
        <pt x="421" y="558" on="1"/>
        <pt x="338" y="558" on="0"/>
        <pt x="227" y="442" on="0"/>
        <pt x="227" y="353" on="1"/>
        <pt x="227" y="266" on="0"/>
        <pt x="343" y="148" on="0"/>
        <pt x="429" y="148" on="1"/>
        <pt x="489" y="148" on="0"/>
        <pt x="572" y="219" on="0"/>
        <pt x="572" y="272" on="1"/>
        <pt x="572" y="298" on="1"/>
        <pt x="595" y="261" on="1"/>
        <pt x="405" y="261" on="1"/>
        <pt x="405" y="398" on="1"/>
        <pt x="738" y="398" on="1"/>
        <pt x="740" y="381" on="0"/>
        <pt x="743" y="313" on="0"/>
        <pt x="743" y="299" on="1"/>
        <pt x="743" y="163" on="0"/>
        <pt x="555" y="-10" on="0"/>
        <pt x="413" y="-10" on="1"/>
        <pt x="242" y="-10" on="0"/>
        <pt x="43" y="197" on="0"/>
      </contour>
      <contour>
        <pt x="544" y="767" on="1"/>
        <pt x="398" y="850" on="1"/>
        <pt x="428" y="850" on="1"/>
        <pt x="281" y="767" on="1"/>
        <pt x="224" y="824" on="1"/>
        <pt x="367" y="945" on="1"/>
        <pt x="459" y="945" on="1"/>
        <pt x="602" y="824" on="1"/>
      </contour>
    </TTGlyph>
    <TTGlyph name="Gdotaccent" xMin="43" yMin="-10" xMax="743" yMax="938">
      <contour>
        <pt x="43" y="353" on="1"/>
        <pt x="43" y="510" on="0"/>
        <pt x="255" y="715" on="0"/>
        <pt x="423" y="715" on="1"/>
        <pt x="511" y="715" on="0"/>
        <pt x="655" y="650" on="0"/>
        <pt x="699" y="600" on="1"/>
        <pt x="590" y="485" on="1"/>
        <pt x="555" y="518" on="0"/>
        <pt x="473" y="558" on="0"/>
        <pt x="421" y="558" on="1"/>
        <pt x="338" y="558" on="0"/>
        <pt x="227" y="442" on="0"/>
        <pt x="227" y="353" on="1"/>
        <pt x="227" y="266" on="0"/>
        <pt x="343" y="148" on="0"/>
        <pt x="429" y="148" on="1"/>
        <pt x="489" y="148" on="0"/>
        <pt x="572" y="219" on="0"/>
        <pt x="572" y="272" on="1"/>
        <pt x="572" y="298" on="1"/>
        <pt x="595" y="261" on="1"/>
        <pt x="405" y="261" on="1"/>
        <pt x="405" y="398" on="1"/>
        <pt x="738" y="398" on="1"/>
        <pt x="740" y="381" on="0"/>
        <pt x="743" y="313" on="0"/>
        <pt x="743" y="299" on="1"/>
        <pt x="743" y="163" on="0"/>
        <pt x="555" y="-10" on="0"/>
        <pt x="413" y="-10" on="1"/>
        <pt x="242" y="-10" on="0"/>
        <pt x="43" y="197" on="0"/>
      </contour>
      <contour>
        <pt x="498" y="852" on="1"/>
        <pt x="498" y="814" on="0"/>
        <pt x="444" y="766" on="0"/>
        <pt x="398" y="766" on="1"/>
        <pt x="351" y="766" on="0"/>
        <pt x="298" y="811" on="0"/>
        <pt x="298" y="852" on="1"/>
        <pt x="298" y="890" on="0"/>
        <pt x="352" y="938" on="0"/>
        <pt x="398" y="938" on="1"/>
        <pt x="445" y="938" on="0"/>
        <pt x="498" y="893" on="0"/>
      </contour>
    </TTGlyph>
    <TTGlyph name="H" xMin="86" yMin="0" xMax="696" yMax="700">
      <contour>
        <pt x="86" y="700" on="1"/>
        <pt x="266" y="700" on="1"/>
        <pt x="266" y="0" on="1"/>
        <pt x="86" y="0" on="1"/>
      </contour>
      <contour>
        <pt x="516" y="700" on="1"/>
        <pt x="696" y="700" on="1"/>
        <pt x="696" y="0" on="1"/>
        <pt x="516" y="0" on="1"/>
      </contour>
      <contour>
        <pt x="156" y="269" on="1"/>
        <pt x="156" y="429" on="1"/>
        <pt x="614" y="429" on="1"/>
        <pt x="614" y="269" on="1"/>
      </contour>
    </TTGlyph>
    <TTGlyph name="Hbar" xMin="30" yMin="0" xMax="787" yMax="700">
      <contour>
        <pt x="108" y="481" on="1"/>
        <pt x="30" y="481" on="1"/>
        <pt x="30" y="625" on="1"/>
        <pt x="111" y="625" on="1"/>
        <pt x="199" y="615" on="1"/>
        <pt x="593" y="615" on="1"/>
        <pt x="692" y="625" on="1"/>
        <pt x="787" y="625" on="1"/>
        <pt x="787" y="481" on="1"/>
        <pt x="694" y="481" on="1"/>
        <pt x="605" y="491" on="1"/>
        <pt x="189" y="491" on="1"/>
      </contour>
      <contour>
        <pt x="102" y="700" on="1"/>
        <pt x="282" y="700" on="1"/>
        <pt x="282" y="0" on="1"/>
        <pt x="102" y="0" on="1"/>
      </contour>
      <contour>
        <pt x="532" y="700" on="1"/>
        <pt x="712" y="700" on="1"/>
        <pt x="712" y="0" on="1"/>
        <pt x="532" y="0" on="1"/>
      </contour>
      <contour>
        <pt x="172" y="269" on="1"/>
        <pt x="172" y="429" on="1"/>
        <pt x="630" y="429" on="1"/>
        <pt x="630" y="269" on="1"/>
      </contour>
    </TTGlyph>
    <TTGlyph name="Hcircumflex" xMin="86" yMin="0" xMax="696" yMax="945">
      <contour>
        <pt x="86" y="700" on="1"/>
        <pt x="266" y="700" on="1"/>
        <pt x="266" y="0" on="1"/>
        <pt x="86" y="0" on="1"/>
      </contour>
      <contour>
        <pt x="516" y="700" on="1"/>
        <pt x="696" y="700" on="1"/>
        <pt x="696" y="0" on="1"/>
        <pt x="516" y="0" on="1"/>
      </contour>
      <contour>
        <pt x="156" y="269" on="1"/>
        <pt x="156" y="429" on="1"/>
        <pt x="614" y="429" on="1"/>
        <pt x="614" y="269" on="1"/>
      </contour>
      <contour>
        <pt x="519" y="767" on="1"/>
        <pt x="372" y="850" on="1"/>
        <pt x="402" y="850" on="1"/>
        <pt x="256" y="767" on="1"/>
        <pt x="198" y="824" on="1"/>
        <pt x="341" y="945" on="1"/>
        <pt x="433" y="945" on="1"/>
        <pt x="576" y="824" on="1"/>
      </contour>
    </TTGlyph>
    <TTGlyph name="I" xMin="74" yMin="0" xMax="493" yMax="700">
      <contour>
        <pt x="374" y="700" on="1"/>
        <pt x="374" y="0" on="1"/>
        <pt x="194" y="0" on="1"/>
        <pt x="194" y="700" on="1"/>
        <pt x="221" y="700" on="0"/>
        <pt x="347" y="700" on="0"/>
      </contour>
      <contour>
        <pt x="493" y="700" on="1"/>
        <pt x="493" y="550" on="1"/>
        <pt x="74" y="550" on="1"/>
        <pt x="74" y="700" on="1"/>
      </contour>
      <contour>
        <pt x="493" y="150" on="1"/>
        <pt x="493" y="0" on="1"/>
        <pt x="74" y="0" on="1"/>
        <pt x="74" y="150" on="1"/>
      </contour>
    </TTGlyph>
    <TTGlyph name="I.ss01" xMin="87" yMin="0" xMax="267" yMax="700">
      <contour>
        <pt x="267" y="700" on="1"/>
        <pt x="267" y="0" on="1"/>
        <pt x="87" y="0" on="1"/>
        <pt x="87" y="700" on="1"/>
        <pt x="132" y="700" on="0"/>
        <pt x="222" y="700" on="0"/>
      </contour>
    </TTGlyph>
    <TTGlyph name="IJ" xMin="74" yMin="-10" xMax="1159" yMax="700">
      <contour>
        <pt x="374" y="700" on="1"/>
        <pt x="374" y="0" on="1"/>
        <pt x="194" y="0" on="1"/>
        <pt x="194" y="700" on="1"/>
        <pt x="221" y="700" on="0"/>
        <pt x="347" y="700" on="0"/>
      </contour>
      <contour>
        <pt x="493" y="700" on="1"/>
        <pt x="493" y="550" on="1"/>
        <pt x="74" y="550" on="1"/>
        <pt x="74" y="700" on="1"/>
      </contour>
      <contour>
        <pt x="493" y="150" on="1"/>
        <pt x="493" y="0" on="1"/>
        <pt x="74" y="0" on="1"/>
        <pt x="74" y="150" on="1"/>
      </contour>
      <contour>
        <pt x="823" y="-10" on="1"/>
        <pt x="743" y="-10" on="0"/>
        <pt x="630" y="57" on="0"/>
        <pt x="598" y="116" on="1"/>
        <pt x="700" y="221" on="1"/>
        <pt x="726" y="184" on="0"/>
        <pt x="773" y="151" on="0"/>
        <pt x="801" y="151" on="1"/>
        <pt x="835" y="151" on="0"/>
        <pt x="877" y="197" on="0"/>
        <pt x="877" y="234" on="1"/>
        <pt x="877" y="700" on="1"/>
        <pt x="1051" y="700" on="1"/>
        <pt x="1051" y="213" on="1"/>
        <pt x="1051" y="110" on="0"/>
        <pt x="920" y="-10" on="0"/>
      </contour>
      <contour>
        <pt x="1159" y="700" on="1"/>
        <pt x="1159" y="544" on="1"/>
        <pt x="748" y="544" on="1"/>
        <pt x="748" y="700" on="1"/>
      </contour>
    </TTGlyph>
    <TTGlyph name="IJ.ss01" xMin="87" yMin="-10" xMax="799" yMax="700">
      <contour>
        <pt x="267" y="700" on="1"/>
        <pt x="267" y="0" on="1"/>
        <pt x="87" y="0" on="1"/>
        <pt x="87" y="700" on="1"/>
        <pt x="132" y="700" on="0"/>
        <pt x="222" y="700" on="0"/>
      </contour>
      <contour>
        <pt x="561" y="-10" on="1"/>
        <pt x="478" y="-10" on="0"/>
        <pt x="365" y="55" on="0"/>
        <pt x="338" y="106" on="1"/>
        <pt x="444" y="214" on="1"/>
        <pt x="469" y="178" on="0"/>
        <pt x="515" y="148" on="0"/>
        <pt x="545" y="148" on="1"/>
        <pt x="579" y="148" on="0"/>
        <pt x="624" y="193" on="0"/>
        <pt x="624" y="232" on="1"/>
        <pt x="624" y="700" on="1"/>
        <pt x="799" y="700" on="1"/>
        <pt x="799" y="213" on="1"/>
        <pt x="799" y="110" on="0"/>
        <pt x="667" y="-10" on="0"/>
      </contour>
    </TTGlyph>
    <TTGlyph name="IJacute" xMin="74" yMin="-10" xMax="1159" yMax="976">
      <contour>
        <pt x="374" y="700" on="1"/>
        <pt x="374" y="0" on="1"/>
        <pt x="194" y="0" on="1"/>
        <pt x="194" y="700" on="1"/>
        <pt x="221" y="700" on="0"/>
        <pt x="347" y="700" on="0"/>
      </contour>
      <contour>
        <pt x="493" y="700" on="1"/>
        <pt x="493" y="550" on="1"/>
        <pt x="74" y="550" on="1"/>
        <pt x="74" y="700" on="1"/>
      </contour>
      <contour>
        <pt x="493" y="150" on="1"/>
        <pt x="493" y="0" on="1"/>
        <pt x="74" y="0" on="1"/>
        <pt x="74" y="150" on="1"/>
      </contour>
      <contour>
        <pt x="823" y="-10" on="1"/>
        <pt x="743" y="-10" on="0"/>
        <pt x="630" y="57" on="0"/>
        <pt x="598" y="116" on="1"/>
        <pt x="700" y="221" on="1"/>
        <pt x="726" y="184" on="0"/>
        <pt x="773" y="151" on="0"/>
        <pt x="801" y="151" on="1"/>
        <pt x="835" y="151" on="0"/>
        <pt x="877" y="197" on="0"/>
        <pt x="877" y="234" on="1"/>
        <pt x="877" y="700" on="1"/>
        <pt x="1051" y="700" on="1"/>
        <pt x="1051" y="213" on="1"/>
        <pt x="1051" y="110" on="0"/>
        <pt x="920" y="-10" on="0"/>
      </contour>
      <contour>
        <pt x="1159" y="700" on="1"/>
        <pt x="1159" y="544" on="1"/>
        <pt x="748" y="544" on="1"/>
        <pt x="748" y="700" on="1"/>
      </contour>
      <contour>
        <pt x="877" y="865" on="1"/>
        <pt x="667" y="752" on="1"/>
        <pt x="616" y="831" on="1"/>
        <pt x="800" y="976" on="1"/>
      </contour>
      <contour>
        <pt x="677" y="864" on="1"/>
        <pt x="467" y="752" on="1"/>
        <pt x="416" y="831" on="1"/>
        <pt x="600" y="975" on="1"/>
      </contour>
    </TTGlyph>
    <TTGlyph name="IJacute.ss01" xMin="87" yMin="-10" xMax="903" yMax="972">
      <contour>
        <pt x="267" y="700" on="1"/>
        <pt x="267" y="0" on="1"/>
        <pt x="87" y="0" on="1"/>
        <pt x="87" y="700" on="1"/>
        <pt x="132" y="700" on="0"/>
        <pt x="222" y="700" on="0"/>
      </contour>
      <contour>
        <pt x="561" y="-10" on="1"/>
        <pt x="478" y="-10" on="0"/>
        <pt x="365" y="55" on="0"/>
        <pt x="338" y="106" on="1"/>
        <pt x="444" y="214" on="1"/>
        <pt x="469" y="178" on="0"/>
        <pt x="515" y="148" on="0"/>
        <pt x="545" y="148" on="1"/>
        <pt x="579" y="148" on="0"/>
        <pt x="624" y="193" on="0"/>
        <pt x="624" y="232" on="1"/>
        <pt x="624" y="700" on="1"/>
        <pt x="799" y="700" on="1"/>
        <pt x="799" y="213" on="1"/>
        <pt x="799" y="110" on="0"/>
        <pt x="667" y="-10" on="0"/>
      </contour>
      <contour>
        <pt x="367" y="861" on="1"/>
        <pt x="157" y="748" on="1"/>
        <pt x="106" y="827" on="1"/>
        <pt x="290" y="972" on="1"/>
      </contour>
      <contour>
        <pt x="903" y="861" on="1"/>
        <pt x="693" y="748" on="1"/>
        <pt x="641" y="827" on="1"/>
        <pt x="826" y="972" on="1"/>
      </contour>
    </TTGlyph>
    <TTGlyph name="Iacute" xMin="74" yMin="0" xMax="493" yMax="987">
      <contour>
        <pt x="374" y="700" on="1"/>
        <pt x="374" y="0" on="1"/>
        <pt x="194" y="0" on="1"/>
        <pt x="194" y="700" on="1"/>
        <pt x="221" y="700" on="0"/>
        <pt x="347" y="700" on="0"/>
      </contour>
      <contour>
        <pt x="493" y="700" on="1"/>
        <pt x="493" y="550" on="1"/>
        <pt x="74" y="550" on="1"/>
        <pt x="74" y="700" on="1"/>
      </contour>
      <contour>
        <pt x="493" y="150" on="1"/>
        <pt x="493" y="0" on="1"/>
        <pt x="74" y="0" on="1"/>
        <pt x="74" y="150" on="1"/>
      </contour>
      <contour>
        <pt x="440" y="876" on="1"/>
        <pt x="230" y="763" on="1"/>
        <pt x="179" y="842" on="1"/>
        <pt x="363" y="987" on="1"/>
      </contour>
    </TTGlyph>
    <TTGlyph name="Iacute.ss01" xMin="87" yMin="0" xMax="355" yMax="987">
      <contour>
        <pt x="267" y="700" on="1"/>
        <pt x="267" y="0" on="1"/>
        <pt x="87" y="0" on="1"/>
        <pt x="87" y="700" on="1"/>
        <pt x="132" y="700" on="0"/>
        <pt x="222" y="700" on="0"/>
      </contour>
      <contour>
        <pt x="355" y="876" on="1"/>
        <pt x="145" y="763" on="1"/>
        <pt x="94" y="842" on="1"/>
        <pt x="278" y="987" on="1"/>
      </contour>
    </TTGlyph>
    <TTGlyph name="Iacute_J.loclNLD" xMin="74" yMin="-10" xMax="1099" yMax="992">
      <contour>
        <pt x="374" y="700" on="1"/>
        <pt x="374" y="0" on="1"/>
        <pt x="194" y="0" on="1"/>
        <pt x="194" y="700" on="1"/>
        <pt x="221" y="700" on="0"/>
        <pt x="347" y="700" on="0"/>
      </contour>
      <contour>
        <pt x="493" y="700" on="1"/>
        <pt x="493" y="550" on="1"/>
        <pt x="74" y="550" on="1"/>
        <pt x="74" y="700" on="1"/>
      </contour>
      <contour>
        <pt x="493" y="150" on="1"/>
        <pt x="493" y="0" on="1"/>
        <pt x="74" y="0" on="1"/>
        <pt x="74" y="150" on="1"/>
      </contour>
      <contour>
        <pt x="440" y="876" on="1"/>
        <pt x="230" y="763" on="1"/>
        <pt x="179" y="842" on="1"/>
        <pt x="363" y="987" on="1"/>
      </contour>
      <contour>
        <pt x="763" y="-10" on="1"/>
        <pt x="683" y="-10" on="0"/>
        <pt x="570" y="57" on="0"/>
        <pt x="538" y="116" on="1"/>
        <pt x="640" y="221" on="1"/>
        <pt x="666" y="184" on="0"/>
        <pt x="713" y="151" on="0"/>
        <pt x="741" y="151" on="1"/>
        <pt x="775" y="151" on="0"/>
        <pt x="817" y="197" on="0"/>
        <pt x="817" y="234" on="1"/>
        <pt x="817" y="700" on="1"/>
        <pt x="991" y="700" on="1"/>
        <pt x="991" y="213" on="1"/>
        <pt x="991" y="110" on="0"/>
        <pt x="860" y="-10" on="0"/>
      </contour>
      <contour>
        <pt x="1099" y="700" on="1"/>
        <pt x="1099" y="544" on="1"/>
        <pt x="688" y="544" on="1"/>
        <pt x="688" y="700" on="1"/>
      </contour>
      <contour>
        <pt x="1050" y="881" on="1"/>
        <pt x="840" y="768" on="1"/>
        <pt x="788" y="847" on="1"/>
        <pt x="973" y="992" on="1"/>
      </contour>
    </TTGlyph>
    <TTGlyph name="Ibreve" xMin="74" yMin="0" xMax="493" yMax="936">
      <contour>
        <pt x="374" y="700" on="1"/>
        <pt x="374" y="0" on="1"/>
        <pt x="194" y="0" on="1"/>
        <pt x="194" y="700" on="1"/>
        <pt x="221" y="700" on="0"/>
        <pt x="347" y="700" on="0"/>
      </contour>
      <contour>
        <pt x="493" y="700" on="1"/>
        <pt x="493" y="550" on="1"/>
        <pt x="74" y="550" on="1"/>
        <pt x="74" y="700" on="1"/>
      </contour>
      <contour>
        <pt x="493" y="150" on="1"/>
        <pt x="493" y="0" on="1"/>
        <pt x="74" y="0" on="1"/>
        <pt x="74" y="150" on="1"/>
      </contour>
      <contour>
        <pt x="279" y="764" on="1"/>
        <pt x="210" y="764" on="0"/>
        <pt x="112" y="849" on="0"/>
        <pt x="97" y="924" on="1"/>
        <pt x="204" y="936" on="1"/>
        <pt x="215" y="906" on="0"/>
        <pt x="256" y="871" on="0"/>
        <pt x="279" y="871" on="1"/>
        <pt x="302" y="871" on="0"/>
        <pt x="343" y="906" on="0"/>
        <pt x="354" y="936" on="1"/>
        <pt x="461" y="924" on="1"/>
        <pt x="446" y="849" on="0"/>
        <pt x="348" y="764" on="0"/>
      </contour>
    </TTGlyph>
    <TTGlyph name="Ibreve.ss01" xMin="-7" yMin="0" xMax="357" yMax="936">
      <contour>
        <pt x="267" y="700" on="1"/>
        <pt x="267" y="0" on="1"/>
        <pt x="87" y="0" on="1"/>
        <pt x="87" y="700" on="1"/>
        <pt x="132" y="700" on="0"/>
        <pt x="222" y="700" on="0"/>
      </contour>
      <contour>
        <pt x="175" y="764" on="1"/>
        <pt x="106" y="764" on="0"/>
        <pt x="8" y="849" on="0"/>
        <pt x="-7" y="924" on="1"/>
        <pt x="101" y="936" on="1"/>
        <pt x="111" y="906" on="0"/>
        <pt x="152" y="871" on="0"/>
        <pt x="175" y="871" on="1"/>
        <pt x="198" y="871" on="0"/>
        <pt x="240" y="906" on="0"/>
        <pt x="250" y="936" on="1"/>
        <pt x="357" y="924" on="1"/>
        <pt x="343" y="849" on="0"/>
        <pt x="244" y="764" on="0"/>
      </contour>
    </TTGlyph>
    <TTGlyph name="Icircumflex" xMin="74" yMin="0" xMax="493" yMax="945">
      <contour>
        <pt x="374" y="700" on="1"/>
        <pt x="374" y="0" on="1"/>
        <pt x="194" y="0" on="1"/>
        <pt x="194" y="700" on="1"/>
        <pt x="221" y="700" on="0"/>
        <pt x="347" y="700" on="0"/>
      </contour>
      <contour>
        <pt x="493" y="700" on="1"/>
        <pt x="493" y="550" on="1"/>
        <pt x="74" y="550" on="1"/>
        <pt x="74" y="700" on="1"/>
      </contour>
      <contour>
        <pt x="493" y="150" on="1"/>
        <pt x="493" y="0" on="1"/>
        <pt x="74" y="0" on="1"/>
        <pt x="74" y="150" on="1"/>
      </contour>
      <contour>
        <pt x="412" y="767" on="1"/>
        <pt x="266" y="850" on="1"/>
        <pt x="295" y="850" on="1"/>
        <pt x="149" y="767" on="1"/>
        <pt x="91" y="824" on="1"/>
        <pt x="234" y="945" on="1"/>
        <pt x="327" y="945" on="1"/>
        <pt x="470" y="824" on="1"/>
      </contour>
    </TTGlyph>
    <TTGlyph name="Icircumflex.ss01" xMin="-12" yMin="0" xMax="366" yMax="945">
      <contour>
        <pt x="267" y="700" on="1"/>
        <pt x="267" y="0" on="1"/>
        <pt x="87" y="0" on="1"/>
        <pt x="87" y="700" on="1"/>
        <pt x="132" y="700" on="0"/>
        <pt x="222" y="700" on="0"/>
      </contour>
      <contour>
        <pt x="308" y="767" on="1"/>
        <pt x="162" y="850" on="1"/>
        <pt x="192" y="850" on="1"/>
        <pt x="45" y="767" on="1"/>
        <pt x="-12" y="824" on="1"/>
        <pt x="131" y="945" on="1"/>
        <pt x="223" y="945" on="1"/>
        <pt x="366" y="824" on="1"/>
      </contour>
    </TTGlyph>
    <TTGlyph name="Idieresis" xMin="66" yMin="0" xMax="495" yMax="940">
      <contour>
        <pt x="374" y="700" on="1"/>
        <pt x="374" y="0" on="1"/>
        <pt x="194" y="0" on="1"/>
        <pt x="194" y="700" on="1"/>
        <pt x="221" y="700" on="0"/>
        <pt x="347" y="700" on="0"/>
      </contour>
      <contour>
        <pt x="493" y="700" on="1"/>
        <pt x="493" y="550" on="1"/>
        <pt x="74" y="550" on="1"/>
        <pt x="74" y="700" on="1"/>
      </contour>
      <contour>
        <pt x="493" y="150" on="1"/>
        <pt x="493" y="0" on="1"/>
        <pt x="74" y="0" on="1"/>
        <pt x="74" y="150" on="1"/>
      </contour>
      <contour>
        <pt x="246" y="851" on="1"/>
        <pt x="246" y="812" on="0"/>
        <pt x="197" y="763" on="0"/>
        <pt x="156" y="763" on="1"/>
        <pt x="113" y="763" on="0"/>
        <pt x="66" y="809" on="0"/>
        <pt x="66" y="851" on="1"/>
        <pt x="66" y="890" on="0"/>
        <pt x="115" y="940" on="0"/>
        <pt x="156" y="940" on="1"/>
        <pt x="199" y="940" on="0"/>
        <pt x="246" y="894" on="0"/>
      </contour>
      <contour>
        <pt x="495" y="851" on="1"/>
        <pt x="495" y="812" on="0"/>
        <pt x="447" y="763" on="0"/>
        <pt x="405" y="763" on="1"/>
        <pt x="362" y="763" on="0"/>
        <pt x="316" y="809" on="0"/>
        <pt x="316" y="851" on="1"/>
        <pt x="316" y="890" on="0"/>
        <pt x="364" y="940" on="0"/>
        <pt x="405" y="940" on="1"/>
        <pt x="448" y="940" on="0"/>
        <pt x="495" y="894" on="0"/>
      </contour>
    </TTGlyph>
    <TTGlyph name="Idieresis.ss01" xMin="-37" yMin="0" xMax="391" yMax="940">
      <contour>
        <pt x="267" y="700" on="1"/>
        <pt x="267" y="0" on="1"/>
        <pt x="87" y="0" on="1"/>
        <pt x="87" y="700" on="1"/>
        <pt x="132" y="700" on="0"/>
        <pt x="222" y="700" on="0"/>
      </contour>
      <contour>
        <pt x="142" y="851" on="1"/>
        <pt x="142" y="812" on="0"/>
        <pt x="94" y="763" on="0"/>
        <pt x="52" y="763" on="1"/>
        <pt x="9" y="763" on="0"/>
        <pt x="-37" y="809" on="0"/>
        <pt x="-37" y="851" on="1"/>
        <pt x="-37" y="890" on="0"/>
        <pt x="11" y="940" on="0"/>
        <pt x="52" y="940" on="1"/>
        <pt x="95" y="940" on="0"/>
        <pt x="142" y="894" on="0"/>
      </contour>
      <contour>
        <pt x="391" y="851" on="1"/>
        <pt x="391" y="812" on="0"/>
        <pt x="343" y="763" on="0"/>
        <pt x="302" y="763" on="1"/>
        <pt x="259" y="763" on="0"/>
        <pt x="212" y="809" on="0"/>
        <pt x="212" y="851" on="1"/>
        <pt x="212" y="890" on="0"/>
        <pt x="260" y="940" on="0"/>
        <pt x="302" y="940" on="1"/>
        <pt x="345" y="940" on="0"/>
        <pt x="391" y="894" on="0"/>
      </contour>
    </TTGlyph>
    <TTGlyph name="Idotaccent" xMin="74" yMin="0" xMax="493" yMax="938">
      <contour>
        <pt x="374" y="700" on="1"/>
        <pt x="374" y="0" on="1"/>
        <pt x="194" y="0" on="1"/>
        <pt x="194" y="700" on="1"/>
        <pt x="221" y="700" on="0"/>
        <pt x="347" y="700" on="0"/>
      </contour>
      <contour>
        <pt x="493" y="700" on="1"/>
        <pt x="493" y="550" on="1"/>
        <pt x="74" y="550" on="1"/>
        <pt x="74" y="700" on="1"/>
      </contour>
      <contour>
        <pt x="493" y="150" on="1"/>
        <pt x="493" y="0" on="1"/>
        <pt x="74" y="0" on="1"/>
        <pt x="74" y="150" on="1"/>
      </contour>
      <contour>
        <pt x="380" y="852" on="1"/>
        <pt x="380" y="814" on="0"/>
        <pt x="326" y="766" on="0"/>
        <pt x="280" y="766" on="1"/>
        <pt x="233" y="766" on="0"/>
        <pt x="181" y="811" on="0"/>
        <pt x="181" y="852" on="1"/>
        <pt x="181" y="890" on="0"/>
        <pt x="234" y="938" on="0"/>
        <pt x="280" y="938" on="1"/>
        <pt x="327" y="938" on="0"/>
        <pt x="380" y="893" on="0"/>
      </contour>
    </TTGlyph>
    <TTGlyph name="Idotaccent.ss01" xMin="77" yMin="0" xMax="276" yMax="938">
      <contour>
        <pt x="267" y="700" on="1"/>
        <pt x="267" y="0" on="1"/>
        <pt x="87" y="0" on="1"/>
        <pt x="87" y="700" on="1"/>
        <pt x="132" y="700" on="0"/>
        <pt x="222" y="700" on="0"/>
      </contour>
      <contour>
        <pt x="276" y="852" on="1"/>
        <pt x="276" y="814" on="0"/>
        <pt x="223" y="766" on="0"/>
        <pt x="177" y="766" on="1"/>
        <pt x="130" y="766" on="0"/>
        <pt x="77" y="811" on="0"/>
        <pt x="77" y="852" on="1"/>
        <pt x="77" y="890" on="0"/>
        <pt x="131" y="938" on="0"/>
        <pt x="177" y="938" on="1"/>
        <pt x="224" y="938" on="0"/>
        <pt x="276" y="893" on="0"/>
      </contour>
    </TTGlyph>
    <TTGlyph name="Igrave" xMin="74" yMin="0" xMax="493" yMax="988">
      <contour>
        <pt x="374" y="700" on="1"/>
        <pt x="374" y="0" on="1"/>
        <pt x="194" y="0" on="1"/>
        <pt x="194" y="700" on="1"/>
        <pt x="221" y="700" on="0"/>
        <pt x="347" y="700" on="0"/>
      </contour>
      <contour>
        <pt x="493" y="700" on="1"/>
        <pt x="493" y="550" on="1"/>
        <pt x="74" y="550" on="1"/>
        <pt x="74" y="700" on="1"/>
      </contour>
      <contour>
        <pt x="493" y="150" on="1"/>
        <pt x="493" y="0" on="1"/>
        <pt x="74" y="0" on="1"/>
        <pt x="74" y="150" on="1"/>
      </contour>
      <contour>
        <pt x="384" y="844" on="1"/>
        <pt x="333" y="765" on="1"/>
        <pt x="123" y="877" on="1"/>
        <pt x="200" y="988" on="1"/>
      </contour>
    </TTGlyph>
    <TTGlyph name="Igrave.ss01" xMin="34" yMin="0" xMax="295" yMax="988">
      <contour>
        <pt x="267" y="700" on="1"/>
        <pt x="267" y="0" on="1"/>
        <pt x="87" y="0" on="1"/>
        <pt x="87" y="700" on="1"/>
        <pt x="132" y="700" on="0"/>
        <pt x="222" y="700" on="0"/>
      </contour>
      <contour>
        <pt x="295" y="844" on="1"/>
        <pt x="244" y="765" on="1"/>
        <pt x="34" y="877" on="1"/>
        <pt x="111" y="988" on="1"/>
      </contour>
    </TTGlyph>
    <TTGlyph name="Imacron" xMin="74" yMin="0" xMax="493" yMax="877">
      <contour>
        <pt x="374" y="700" on="1"/>
        <pt x="374" y="0" on="1"/>
        <pt x="194" y="0" on="1"/>
        <pt x="194" y="700" on="1"/>
        <pt x="221" y="700" on="0"/>
        <pt x="347" y="700" on="0"/>
      </contour>
      <contour>
        <pt x="493" y="700" on="1"/>
        <pt x="493" y="550" on="1"/>
        <pt x="74" y="550" on="1"/>
        <pt x="74" y="700" on="1"/>
      </contour>
      <contour>
        <pt x="493" y="150" on="1"/>
        <pt x="493" y="0" on="1"/>
        <pt x="74" y="0" on="1"/>
        <pt x="74" y="150" on="1"/>
      </contour>
      <contour>
        <pt x="462" y="772" on="1"/>
        <pt x="99" y="772" on="1"/>
        <pt x="99" y="877" on="1"/>
        <pt x="462" y="877" on="1"/>
      </contour>
    </TTGlyph>
    <TTGlyph name="Imacron.ss01" xMin="-5" yMin="0" xMax="358" yMax="891">
      <contour>
        <pt x="267" y="700" on="1"/>
        <pt x="267" y="0" on="1"/>
        <pt x="87" y="0" on="1"/>
        <pt x="87" y="700" on="1"/>
        <pt x="132" y="700" on="0"/>
        <pt x="222" y="700" on="0"/>
      </contour>
      <contour>
        <pt x="358" y="786" on="1"/>
        <pt x="-5" y="786" on="1"/>
        <pt x="-5" y="891" on="1"/>
        <pt x="358" y="891" on="1"/>
      </contour>
    </TTGlyph>
    <TTGlyph name="Iogonek" xMin="74" yMin="-211" xMax="501" yMax="700">
      <contour>
        <pt x="374" y="700" on="1"/>
        <pt x="374" y="0" on="1"/>
        <pt x="194" y="0" on="1"/>
        <pt x="194" y="700" on="1"/>
        <pt x="221" y="700" on="0"/>
        <pt x="347" y="700" on="0"/>
      </contour>
      <contour>
        <pt x="493" y="700" on="1"/>
        <pt x="493" y="550" on="1"/>
        <pt x="74" y="550" on="1"/>
        <pt x="74" y="700" on="1"/>
      </contour>
      <contour>
        <pt x="493" y="150" on="1"/>
        <pt x="493" y="0" on="1"/>
        <pt x="74" y="0" on="1"/>
        <pt x="74" y="150" on="1"/>
      </contour>
      <contour>
        <pt x="379" y="-211" on="1"/>
        <pt x="327" y="-211" on="0"/>
        <pt x="256" y="-146" on="0"/>
        <pt x="256" y="-98" on="1"/>
        <pt x="256" y="-47" on="0"/>
        <pt x="347" y="31" on="0"/>
        <pt x="425" y="52" on="1"/>
        <pt x="447" y="47" on="1"/>
        <pt x="469" y="3" on="1"/>
        <pt x="429" y="-7" on="0"/>
        <pt x="371" y="-51" on="0"/>
        <pt x="371" y="-76" on="1"/>
        <pt x="371" y="-88" on="0"/>
        <pt x="385" y="-103" on="0"/>
        <pt x="397" y="-103" on="1"/>
        <pt x="407" y="-103" on="0"/>
        <pt x="421" y="-91" on="0"/>
        <pt x="429" y="-79" on="1"/>
        <pt x="501" y="-132" on="1"/>
        <pt x="486" y="-160" on="0"/>
        <pt x="419" y="-211" on="0"/>
      </contour>
    </TTGlyph>
    <TTGlyph name="Iogonek.ss01" xMin="40" yMin="-220" xMax="285" yMax="700">
      <contour>
        <pt x="253" y="700" on="1"/>
        <pt x="253" y="0" on="1"/>
        <pt x="73" y="0" on="1"/>
        <pt x="73" y="700" on="1"/>
        <pt x="118" y="700" on="0"/>
        <pt x="208" y="700" on="0"/>
      </contour>
      <contour>
        <pt x="163" y="-220" on="1"/>
        <pt x="111" y="-220" on="0"/>
        <pt x="40" y="-155" on="0"/>
        <pt x="40" y="-108" on="1"/>
        <pt x="40" y="-54" on="0"/>
        <pt x="124" y="27" on="0"/>
        <pt x="209" y="49" on="1"/>
        <pt x="231" y="44" on="1"/>
        <pt x="253" y="0" on="1"/>
        <pt x="212" y="-10" on="0"/>
        <pt x="155" y="-58" on="0"/>
        <pt x="155" y="-86" on="1"/>
        <pt x="155" y="-98" on="0"/>
        <pt x="169" y="-112" on="0"/>
        <pt x="181" y="-112" on="1"/>
        <pt x="191" y="-112" on="0"/>
        <pt x="205" y="-101" on="0"/>
        <pt x="213" y="-89" on="1"/>
        <pt x="285" y="-141" on="1"/>
        <pt x="270" y="-170" on="0"/>
        <pt x="203" y="-220" on="0"/>
      </contour>
    </TTGlyph>
    <TTGlyph name="Itilde" xMin="74" yMin="0" xMax="493" yMax="932">
      <contour>
        <pt x="374" y="700" on="1"/>
        <pt x="374" y="0" on="1"/>
        <pt x="194" y="0" on="1"/>
        <pt x="194" y="700" on="1"/>
        <pt x="221" y="700" on="0"/>
        <pt x="347" y="700" on="0"/>
      </contour>
      <contour>
        <pt x="493" y="700" on="1"/>
        <pt x="493" y="550" on="1"/>
        <pt x="74" y="550" on="1"/>
        <pt x="74" y="700" on="1"/>
      </contour>
      <contour>
        <pt x="493" y="150" on="1"/>
        <pt x="493" y="0" on="1"/>
        <pt x="74" y="0" on="1"/>
        <pt x="74" y="150" on="1"/>
      </contour>
      <contour>
        <pt x="193" y="786" on="1"/>
        <pt x="89" y="786" on="1"/>
        <pt x="89" y="853" on="0"/>
        <pt x="157" y="932" on="0"/>
        <pt x="215" y="932" on="1"/>
        <pt x="230" y="932" on="0"/>
        <pt x="264" y="923" on="0"/>
        <pt x="296" y="909" on="1"/>
        <pt x="318" y="900" on="0"/>
        <pt x="337" y="892" on="0"/>
        <pt x="344" y="892" on="1"/>
        <pt x="357" y="892" on="0"/>
        <pt x="370" y="914" on="0"/>
        <pt x="369" y="932" on="1"/>
        <pt x="472" y="932" on="1"/>
        <pt x="472" y="869" on="0"/>
        <pt x="410" y="785" on="0"/>
        <pt x="360" y="785" on="1"/>
        <pt x="343" y="785" on="0"/>
        <pt x="304" y="795" on="0"/>
        <pt x="267" y="809" on="1"/>
        <pt x="245" y="818" on="0"/>
        <pt x="226" y="825" on="0"/>
        <pt x="220" y="825" on="1"/>
        <pt x="208" y="825" on="0"/>
        <pt x="193" y="804" on="0"/>
      </contour>
    </TTGlyph>
    <TTGlyph name="Itilde.ss01" xMin="-15" yMin="0" xMax="368" yMax="932">
      <contour>
        <pt x="267" y="700" on="1"/>
        <pt x="267" y="0" on="1"/>
        <pt x="87" y="0" on="1"/>
        <pt x="87" y="700" on="1"/>
        <pt x="132" y="700" on="0"/>
        <pt x="222" y="700" on="0"/>
      </contour>
      <contour>
        <pt x="89" y="786" on="1"/>
        <pt x="-15" y="786" on="1"/>
        <pt x="-15" y="853" on="0"/>
        <pt x="53" y="932" on="0"/>
        <pt x="111" y="932" on="1"/>
        <pt x="126" y="932" on="0"/>
        <pt x="160" y="923" on="0"/>
        <pt x="192" y="909" on="1"/>
        <pt x="215" y="900" on="0"/>
        <pt x="233" y="892" on="0"/>
        <pt x="241" y="892" on="1"/>
        <pt x="254" y="892" on="0"/>
        <pt x="267" y="914" on="0"/>
        <pt x="266" y="932" on="1"/>
        <pt x="368" y="932" on="1"/>
        <pt x="368" y="869" on="0"/>
        <pt x="306" y="785" on="0"/>
        <pt x="256" y="785" on="1"/>
        <pt x="239" y="785" on="0"/>
        <pt x="200" y="795" on="0"/>
        <pt x="163" y="809" on="1"/>
        <pt x="141" y="818" on="0"/>
        <pt x="122" y="825" on="0"/>
        <pt x="116" y="825" on="1"/>
        <pt x="104" y="825" on="0"/>
        <pt x="89" y="804" on="0"/>
      </contour>
    </TTGlyph>
    <TTGlyph name="J" xMin="37" yMin="-10" xMax="599" yMax="700">
      <contour>
        <pt x="262" y="-10" on="1"/>
        <pt x="183" y="-10" on="0"/>
        <pt x="69" y="57" on="0"/>
        <pt x="37" y="116" on="1"/>
        <pt x="139" y="221" on="1"/>
        <pt x="165" y="184" on="0"/>
        <pt x="212" y="151" on="0"/>
        <pt x="241" y="151" on="1"/>
        <pt x="275" y="151" on="0"/>
        <pt x="316" y="197" on="0"/>
        <pt x="316" y="234" on="1"/>
        <pt x="316" y="700" on="1"/>
        <pt x="491" y="700" on="1"/>
        <pt x="491" y="213" on="1"/>
        <pt x="491" y="110" on="0"/>
        <pt x="359" y="-10" on="0"/>
      </contour>
      <contour>
        <pt x="599" y="700" on="1"/>
        <pt x="599" y="544" on="1"/>
        <pt x="187" y="544" on="1"/>
        <pt x="187" y="700" on="1"/>
      </contour>
    </TTGlyph>
    <TTGlyph name="J.ss01" xMin="30" yMin="-10" xMax="491" yMax="700">
      <contour>
        <pt x="253" y="-10" on="1"/>
        <pt x="170" y="-10" on="0"/>
        <pt x="57" y="55" on="0"/>
        <pt x="30" y="106" on="1"/>
        <pt x="136" y="214" on="1"/>
        <pt x="161" y="178" on="0"/>
        <pt x="207" y="148" on="0"/>
        <pt x="237" y="148" on="1"/>
        <pt x="271" y="148" on="0"/>
        <pt x="316" y="193" on="0"/>
        <pt x="316" y="232" on="1"/>
        <pt x="316" y="700" on="1"/>
        <pt x="491" y="700" on="1"/>
        <pt x="491" y="213" on="1"/>
        <pt x="491" y="110" on="0"/>
        <pt x="359" y="-10" on="0"/>
      </contour>
    </TTGlyph>
    <TTGlyph name="Jacute.loclNLD" xMin="37" yMin="-10" xMax="599" yMax="992">
      <contour>
        <pt x="262" y="-10" on="1"/>
        <pt x="183" y="-10" on="0"/>
        <pt x="69" y="57" on="0"/>
        <pt x="37" y="116" on="1"/>
        <pt x="139" y="221" on="1"/>
        <pt x="165" y="184" on="0"/>
        <pt x="212" y="151" on="0"/>
        <pt x="241" y="151" on="1"/>
        <pt x="275" y="151" on="0"/>
        <pt x="316" y="197" on="0"/>
        <pt x="316" y="234" on="1"/>
        <pt x="316" y="700" on="1"/>
        <pt x="491" y="700" on="1"/>
        <pt x="491" y="213" on="1"/>
        <pt x="491" y="110" on="0"/>
        <pt x="359" y="-10" on="0"/>
      </contour>
      <contour>
        <pt x="599" y="700" on="1"/>
        <pt x="599" y="544" on="1"/>
        <pt x="187" y="544" on="1"/>
        <pt x="187" y="700" on="1"/>
      </contour>
      <contour>
        <pt x="549" y="881" on="1"/>
        <pt x="339" y="768" on="1"/>
        <pt x="288" y="847" on="1"/>
        <pt x="472" y="992" on="1"/>
      </contour>
    </TTGlyph>
    <TTGlyph name="Jcircumflex" xMin="37" yMin="-10" xMax="599" yMax="945">
      <contour>
        <pt x="262" y="-10" on="1"/>
        <pt x="183" y="-10" on="0"/>
        <pt x="69" y="57" on="0"/>
        <pt x="37" y="116" on="1"/>
        <pt x="139" y="221" on="1"/>
        <pt x="165" y="184" on="0"/>
        <pt x="212" y="151" on="0"/>
        <pt x="241" y="151" on="1"/>
        <pt x="275" y="151" on="0"/>
        <pt x="316" y="197" on="0"/>
        <pt x="316" y="234" on="1"/>
        <pt x="316" y="700" on="1"/>
        <pt x="491" y="700" on="1"/>
        <pt x="491" y="213" on="1"/>
        <pt x="491" y="110" on="0"/>
        <pt x="359" y="-10" on="0"/>
      </contour>
      <contour>
        <pt x="599" y="700" on="1"/>
        <pt x="599" y="544" on="1"/>
        <pt x="187" y="544" on="1"/>
        <pt x="187" y="700" on="1"/>
      </contour>
      <contour>
        <pt x="530" y="767" on="1"/>
        <pt x="384" y="850" on="1"/>
        <pt x="413" y="850" on="1"/>
        <pt x="267" y="767" on="1"/>
        <pt x="209" y="824" on="1"/>
        <pt x="352" y="945" on="1"/>
        <pt x="445" y="945" on="1"/>
        <pt x="588" y="824" on="1"/>
      </contour>
    </TTGlyph>
    <TTGlyph name="Jcircumflex.ss01" xMin="30" yMin="-10" xMax="590" yMax="912">
      <contour>
        <pt x="253" y="-10" on="1"/>
        <pt x="170" y="-10" on="0"/>
        <pt x="57" y="55" on="0"/>
        <pt x="30" y="106" on="1"/>
        <pt x="136" y="214" on="1"/>
        <pt x="161" y="178" on="0"/>
        <pt x="207" y="148" on="0"/>
        <pt x="237" y="148" on="1"/>
        <pt x="271" y="148" on="0"/>
        <pt x="316" y="193" on="0"/>
        <pt x="316" y="232" on="1"/>
        <pt x="316" y="700" on="1"/>
        <pt x="491" y="700" on="1"/>
        <pt x="491" y="213" on="1"/>
        <pt x="491" y="110" on="0"/>
        <pt x="359" y="-10" on="0"/>
      </contour>
      <contour>
        <pt x="532" y="734" on="1"/>
        <pt x="386" y="816" on="1"/>
        <pt x="415" y="816" on="1"/>
        <pt x="269" y="734" on="1"/>
        <pt x="211" y="791" on="1"/>
        <pt x="354" y="912" on="1"/>
        <pt x="447" y="912" on="1"/>
        <pt x="590" y="791" on="1"/>
      </contour>
    </TTGlyph>
    <TTGlyph name="K" xMin="86" yMin="0" xMax="742" yMax="700">
      <contour>
        <pt x="86" y="0" on="1"/>
        <pt x="86" y="700" on="1"/>
        <pt x="266" y="700" on="1"/>
        <pt x="266" y="0" on="1"/>
      </contour>
      <contour>
        <pt x="216" y="203" on="1"/>
        <pt x="165" y="350" on="1"/>
        <pt x="510" y="700" on="1"/>
        <pt x="720" y="700" on="1"/>
      </contour>
      <contour>
        <pt x="533" y="0" on="1"/>
        <pt x="275" y="340" on="1"/>
        <pt x="395" y="444" on="1"/>
        <pt x="742" y="0" on="1"/>
      </contour>
    </TTGlyph>
    <TTGlyph name="L" xMin="86" yMin="0" xMax="575" yMax="700">
      <contour>
        <pt x="186" y="157" on="1"/>
        <pt x="575" y="157" on="1"/>
        <pt x="575" y="0" on="1"/>
        <pt x="86" y="0" on="1"/>
        <pt x="86" y="700" on="1"/>
        <pt x="266" y="700" on="1"/>
        <pt x="266" y="78" on="1"/>
      </contour>
    </TTGlyph>
    <TTGlyph name="Lacute" xMin="49" yMin="0" xMax="575" yMax="987">
      <contour>
        <pt x="186" y="157" on="1"/>
        <pt x="575" y="157" on="1"/>
        <pt x="575" y="0" on="1"/>
        <pt x="86" y="0" on="1"/>
        <pt x="86" y="700" on="1"/>
        <pt x="266" y="700" on="1"/>
        <pt x="266" y="78" on="1"/>
      </contour>
      <contour>
        <pt x="310" y="876" on="1"/>
        <pt x="100" y="763" on="1"/>
        <pt x="49" y="842" on="1"/>
        <pt x="233" y="987" on="1"/>
      </contour>
    </TTGlyph>
    <TTGlyph name="Lcaron" xMin="86" yMin="0" xMax="610" yMax="732">
      <contour>
        <pt x="186" y="157" on="1"/>
        <pt x="575" y="157" on="1"/>
        <pt x="575" y="0" on="1"/>
        <pt x="86" y="0" on="1"/>
        <pt x="86" y="700" on="1"/>
        <pt x="266" y="700" on="1"/>
        <pt x="266" y="78" on="1"/>
      </contour>
      <contour>
        <pt x="505" y="732" on="1"/>
        <pt x="550" y="732" on="0"/>
        <pt x="610" y="661" on="0"/>
        <pt x="610" y="604" on="1"/>
        <pt x="610" y="537" on="0"/>
        <pt x="518" y="418" on="0"/>
        <pt x="446" y="397" on="1"/>
        <pt x="399" y="455" on="1"/>
        <pt x="440" y="473" on="0"/>
        <pt x="489" y="529" on="0"/>
        <pt x="489" y="548" on="1"/>
        <pt x="489" y="558" on="0"/>
        <pt x="480" y="578" on="0"/>
        <pt x="462" y="591" on="1"/>
        <pt x="438" y="608" on="0"/>
        <pt x="421" y="641" on="0"/>
        <pt x="421" y="662" on="1"/>
        <pt x="421" y="694" on="0"/>
        <pt x="468" y="732" on="0"/>
      </contour>
    </TTGlyph>
    <TTGlyph name="Ldot" xMin="86" yMin="0" xMax="575" yMax="700">
      <contour>
        <pt x="186" y="157" on="1"/>
        <pt x="575" y="157" on="1"/>
        <pt x="575" y="0" on="1"/>
        <pt x="86" y="0" on="1"/>
        <pt x="86" y="700" on="1"/>
        <pt x="266" y="700" on="1"/>
        <pt x="266" y="78" on="1"/>
      </contour>
      <contour>
        <pt x="546" y="391" on="1"/>
        <pt x="546" y="350" on="0"/>
        <pt x="497" y="299" on="0"/>
        <pt x="457" y="299" on="1"/>
        <pt x="415" y="299" on="0"/>
        <pt x="368" y="347" on="0"/>
        <pt x="368" y="391" on="1"/>
        <pt x="368" y="431" on="0"/>
        <pt x="418" y="482" on="0"/>
        <pt x="457" y="482" on="1"/>
        <pt x="500" y="482" on="0"/>
        <pt x="546" y="435" on="0"/>
      </contour>
    </TTGlyph>
    <TTGlyph name="Lslash" xMin="-16" yMin="0" xMax="588" yMax="700">
      <contour>
        <pt x="199" y="157" on="1"/>
        <pt x="588" y="157" on="1"/>
        <pt x="588" y="0" on="1"/>
        <pt x="99" y="0" on="1"/>
        <pt x="99" y="700" on="1"/>
        <pt x="279" y="700" on="1"/>
        <pt x="279" y="78" on="1"/>
      </contour>
      <contour>
        <pt x="35" y="235" on="1"/>
        <pt x="-16" y="367" on="1"/>
        <pt x="352" y="529" on="1"/>
        <pt x="404" y="395" on="1"/>
      </contour>
    </TTGlyph>
    <TTGlyph name="M" xMin="86" yMin="0" xMax="794" yMax="700">
      <contour>
        <pt x="86" y="700" on="1"/>
        <pt x="245" y="700" on="1"/>
        <pt x="500" y="285" on="1"/>
        <pt x="383" y="286" on="1"/>
        <pt x="641" y="700" on="1"/>
        <pt x="794" y="700" on="1"/>
        <pt x="794" y="0" on="1"/>
        <pt x="619" y="0" on="1"/>
        <pt x="619" y="207" on="1"/>
        <pt x="619" y="297" on="0"/>
        <pt x="628" y="441" on="0"/>
        <pt x="639" y="512" on="1"/>
        <pt x="660" y="458" on="1"/>
        <pt x="471" y="165" on="1"/>
        <pt x="405" y="165" on="1"/>
        <pt x="220" y="456" on="1"/>
        <pt x="241" y="512" on="1"/>
        <pt x="252" y="445" on="0"/>
        <pt x="261" y="304" on="0"/>
        <pt x="261" y="207" on="1"/>
        <pt x="261" y="0" on="1"/>
        <pt x="86" y="0" on="1"/>
      </contour>
    </TTGlyph>
    <TTGlyph name="N" xMin="79" yMin="0" xMax="716" yMax="700">
      <contour>
        <pt x="542" y="537" on="1"/>
        <pt x="542" y="700" on="1"/>
        <pt x="716" y="700" on="1"/>
        <pt x="716" y="0" on="1"/>
        <pt x="553" y="0" on="1"/>
        <pt x="176" y="511" on="1"/>
        <pt x="234" y="499" on="1"/>
        <pt x="244" y="417" on="0"/>
        <pt x="254" y="301" on="0"/>
        <pt x="254" y="224" on="1"/>
        <pt x="254" y="0" on="1"/>
        <pt x="79" y="0" on="1"/>
        <pt x="79" y="700" on="1"/>
        <pt x="240" y="700" on="1"/>
        <pt x="598" y="212" on="1"/>
        <pt x="562" y="219" on="1"/>
        <pt x="550" y="306" on="0"/>
        <pt x="541" y="433" on="0"/>
      </contour>
    </TTGlyph>
    <TTGlyph name="Nacute" xMin="79" yMin="0" xMax="716" yMax="987">
      <contour>
        <pt x="542" y="537" on="1"/>
        <pt x="542" y="700" on="1"/>
        <pt x="716" y="700" on="1"/>
        <pt x="716" y="0" on="1"/>
        <pt x="553" y="0" on="1"/>
        <pt x="176" y="511" on="1"/>
        <pt x="234" y="499" on="1"/>
        <pt x="244" y="417" on="0"/>
        <pt x="254" y="301" on="0"/>
        <pt x="254" y="224" on="1"/>
        <pt x="254" y="0" on="1"/>
        <pt x="79" y="0" on="1"/>
        <pt x="79" y="700" on="1"/>
        <pt x="240" y="700" on="1"/>
        <pt x="598" y="212" on="1"/>
        <pt x="562" y="219" on="1"/>
        <pt x="550" y="306" on="0"/>
        <pt x="541" y="433" on="0"/>
      </contour>
      <contour>
        <pt x="558" y="876" on="1"/>
        <pt x="348" y="763" on="1"/>
        <pt x="297" y="842" on="1"/>
        <pt x="481" y="987" on="1"/>
      </contour>
    </TTGlyph>
    <TTGlyph name="Ncaron" xMin="79" yMin="0" xMax="716" yMax="950">
      <contour>
        <pt x="542" y="537" on="1"/>
        <pt x="542" y="700" on="1"/>
        <pt x="716" y="700" on="1"/>
        <pt x="716" y="0" on="1"/>
        <pt x="553" y="0" on="1"/>
        <pt x="176" y="511" on="1"/>
        <pt x="234" y="499" on="1"/>
        <pt x="244" y="417" on="0"/>
        <pt x="254" y="301" on="0"/>
        <pt x="254" y="224" on="1"/>
        <pt x="254" y="0" on="1"/>
        <pt x="79" y="0" on="1"/>
        <pt x="79" y="700" on="1"/>
        <pt x="240" y="700" on="1"/>
        <pt x="598" y="212" on="1"/>
        <pt x="562" y="219" on="1"/>
        <pt x="550" y="306" on="0"/>
        <pt x="541" y="433" on="0"/>
      </contour>
      <contour>
        <pt x="526" y="950" on="1"/>
        <pt x="374" y="862" on="1"/>
        <pt x="404" y="862" on="1"/>
        <pt x="252" y="950" on="1"/>
        <pt x="192" y="898" on="1"/>
        <pt x="341" y="765" on="1"/>
        <pt x="437" y="765" on="1"/>
        <pt x="586" y="898" on="1"/>
      </contour>
    </TTGlyph>
    <TTGlyph name="Ntilde" xMin="79" yMin="0" xMax="716" yMax="932">
      <contour>
        <pt x="542" y="537" on="1"/>
        <pt x="542" y="700" on="1"/>
        <pt x="716" y="700" on="1"/>
        <pt x="716" y="0" on="1"/>
        <pt x="553" y="0" on="1"/>
        <pt x="176" y="511" on="1"/>
        <pt x="234" y="499" on="1"/>
        <pt x="244" y="417" on="0"/>
        <pt x="254" y="301" on="0"/>
        <pt x="254" y="224" on="1"/>
        <pt x="254" y="0" on="1"/>
        <pt x="79" y="0" on="1"/>
        <pt x="79" y="700" on="1"/>
        <pt x="240" y="700" on="1"/>
        <pt x="598" y="212" on="1"/>
        <pt x="562" y="219" on="1"/>
        <pt x="550" y="306" on="0"/>
        <pt x="541" y="433" on="0"/>
      </contour>
      <contour>
        <pt x="309" y="786" on="1"/>
        <pt x="206" y="786" on="1"/>
        <pt x="206" y="853" on="0"/>
        <pt x="273" y="932" on="0"/>
        <pt x="332" y="932" on="1"/>
        <pt x="347" y="932" on="0"/>
        <pt x="381" y="923" on="0"/>
        <pt x="413" y="909" on="1"/>
        <pt x="435" y="900" on="0"/>
        <pt x="454" y="892" on="0"/>
        <pt x="461" y="892" on="1"/>
        <pt x="474" y="892" on="0"/>
        <pt x="487" y="914" on="0"/>
        <pt x="486" y="932" on="1"/>
        <pt x="589" y="932" on="1"/>
        <pt x="589" y="869" on="0"/>
        <pt x="526" y="785" on="0"/>
        <pt x="477" y="785" on="1"/>
        <pt x="460" y="785" on="0"/>
        <pt x="421" y="795" on="0"/>
        <pt x="384" y="809" on="1"/>
        <pt x="361" y="818" on="0"/>
        <pt x="343" y="825" on="0"/>
        <pt x="336" y="825" on="1"/>
        <pt x="324" y="825" on="0"/>
        <pt x="309" y="804" on="0"/>
      </contour>
    </TTGlyph>
    <TTGlyph name="O" xMin="43" yMin="-10" xMax="774" yMax="717">
      <contour>
        <pt x="408" y="717" on="1"/>
        <pt x="568" y="717" on="0"/>
        <pt x="774" y="511" on="0"/>
        <pt x="774" y="353" on="1"/>
        <pt x="774" y="196" on="0"/>
        <pt x="568" y="-10" on="0"/>
        <pt x="408" y="-10" on="1"/>
        <pt x="249" y="-10" on="0"/>
        <pt x="43" y="196" on="0"/>
        <pt x="43" y="353" on="1"/>
        <pt x="43" y="511" on="0"/>
        <pt x="249" y="717" on="0"/>
      </contour>
      <contour>
        <pt x="408" y="158" on="1"/>
        <pt x="487" y="158" on="0"/>
        <pt x="591" y="269" on="0"/>
        <pt x="591" y="353" on="1"/>
        <pt x="591" y="438" on="0"/>
        <pt x="487" y="548" on="0"/>
        <pt x="408" y="548" on="1"/>
        <pt x="329" y="548" on="0"/>
        <pt x="226" y="438" on="0"/>
        <pt x="226" y="353" on="1"/>
        <pt x="226" y="268" on="0"/>
        <pt x="329" y="158" on="0"/>
      </contour>
    </TTGlyph>
    <TTGlyph name="OE" xMin="43" yMin="0" xMax="1031" yMax="700">
      <contour>
        <pt x="43" y="350" on="1"/>
        <pt x="43" y="506" on="0"/>
        <pt x="234" y="700" on="0"/>
        <pt x="395" y="700" on="1"/>
        <pt x="1031" y="700" on="1"/>
        <pt x="1031" y="549" on="1"/>
        <pt x="689" y="549" on="1"/>
        <pt x="698" y="567" on="1"/>
        <pt x="698" y="422" on="1"/>
        <pt x="689" y="431" on="1"/>
        <pt x="976" y="431" on="1"/>
        <pt x="976" y="287" on="1"/>
        <pt x="692" y="287" on="1"/>
        <pt x="698" y="296" on="1"/>
        <pt x="698" y="144" on="1"/>
        <pt x="691" y="151" on="1"/>
        <pt x="1031" y="151" on="1"/>
        <pt x="1031" y="0" on="1"/>
        <pt x="375" y="0" on="1"/>
        <pt x="222" y="0" on="0"/>
        <pt x="43" y="193" on="0"/>
      </contour>
      <contour>
        <pt x="551" y="157" on="1"/>
        <pt x="524" y="110" on="1"/>
        <pt x="524" y="587" on="1"/>
        <pt x="551" y="543" on="1"/>
        <pt x="404" y="543" on="1"/>
        <pt x="319" y="543" on="0"/>
        <pt x="225" y="439" on="0"/>
        <pt x="225" y="350" on="1"/>
        <pt x="225" y="260" on="0"/>
        <pt x="315" y="157" on="0"/>
        <pt x="397" y="157" on="1"/>
      </contour>
    </TTGlyph>
    <TTGlyph name="Oacute" xMin="43" yMin="-10" xMax="774" yMax="987">
      <contour>
        <pt x="408" y="717" on="1"/>
        <pt x="568" y="717" on="0"/>
        <pt x="774" y="511" on="0"/>
        <pt x="774" y="353" on="1"/>
        <pt x="774" y="196" on="0"/>
        <pt x="568" y="-10" on="0"/>
        <pt x="408" y="-10" on="1"/>
        <pt x="249" y="-10" on="0"/>
        <pt x="43" y="196" on="0"/>
        <pt x="43" y="353" on="1"/>
        <pt x="43" y="511" on="0"/>
        <pt x="249" y="717" on="0"/>
      </contour>
      <contour>
        <pt x="408" y="158" on="1"/>
        <pt x="487" y="158" on="0"/>
        <pt x="591" y="269" on="0"/>
        <pt x="591" y="353" on="1"/>
        <pt x="591" y="438" on="0"/>
        <pt x="487" y="548" on="0"/>
        <pt x="408" y="548" on="1"/>
        <pt x="329" y="548" on="0"/>
        <pt x="226" y="438" on="0"/>
        <pt x="226" y="353" on="1"/>
        <pt x="226" y="268" on="0"/>
        <pt x="329" y="158" on="0"/>
      </contour>
      <contour>
        <pt x="573" y="876" on="1"/>
        <pt x="363" y="763" on="1"/>
        <pt x="312" y="842" on="1"/>
        <pt x="496" y="987" on="1"/>
      </contour>
    </TTGlyph>
    <TTGlyph name="Obreve" xMin="43" yMin="-10" xMax="774" yMax="936">
      <contour>
        <pt x="408" y="717" on="1"/>
        <pt x="568" y="717" on="0"/>
        <pt x="774" y="511" on="0"/>
        <pt x="774" y="353" on="1"/>
        <pt x="774" y="196" on="0"/>
        <pt x="568" y="-10" on="0"/>
        <pt x="408" y="-10" on="1"/>
        <pt x="249" y="-10" on="0"/>
        <pt x="43" y="196" on="0"/>
        <pt x="43" y="353" on="1"/>
        <pt x="43" y="511" on="0"/>
        <pt x="249" y="717" on="0"/>
      </contour>
      <contour>
        <pt x="408" y="158" on="1"/>
        <pt x="487" y="158" on="0"/>
        <pt x="591" y="269" on="0"/>
        <pt x="591" y="353" on="1"/>
        <pt x="591" y="438" on="0"/>
        <pt x="487" y="548" on="0"/>
        <pt x="408" y="548" on="1"/>
        <pt x="329" y="548" on="0"/>
        <pt x="226" y="438" on="0"/>
        <pt x="226" y="353" on="1"/>
        <pt x="226" y="268" on="0"/>
        <pt x="329" y="158" on="0"/>
      </contour>
      <contour>
        <pt x="406" y="764" on="1"/>
        <pt x="337" y="764" on="0"/>
        <pt x="238" y="849" on="0"/>
        <pt x="224" y="924" on="1"/>
        <pt x="331" y="936" on="1"/>
        <pt x="341" y="906" on="0"/>
        <pt x="383" y="871" on="0"/>
        <pt x="406" y="871" on="1"/>
        <pt x="429" y="871" on="0"/>
        <pt x="470" y="906" on="0"/>
        <pt x="480" y="936" on="1"/>
        <pt x="588" y="924" on="1"/>
        <pt x="573" y="849" on="0"/>
        <pt x="475" y="764" on="0"/>
      </contour>
    </TTGlyph>
    <TTGlyph name="Ocircumflex" xMin="43" yMin="-10" xMax="774" yMax="945">
      <contour>
        <pt x="408" y="717" on="1"/>
        <pt x="568" y="717" on="0"/>
        <pt x="774" y="511" on="0"/>
        <pt x="774" y="353" on="1"/>
        <pt x="774" y="196" on="0"/>
        <pt x="568" y="-10" on="0"/>
        <pt x="408" y="-10" on="1"/>
        <pt x="249" y="-10" on="0"/>
        <pt x="43" y="196" on="0"/>
        <pt x="43" y="353" on="1"/>
        <pt x="43" y="511" on="0"/>
        <pt x="249" y="717" on="0"/>
      </contour>
      <contour>
        <pt x="408" y="158" on="1"/>
        <pt x="487" y="158" on="0"/>
        <pt x="591" y="269" on="0"/>
        <pt x="591" y="353" on="1"/>
        <pt x="591" y="438" on="0"/>
        <pt x="487" y="548" on="0"/>
        <pt x="408" y="548" on="1"/>
        <pt x="329" y="548" on="0"/>
        <pt x="226" y="438" on="0"/>
        <pt x="226" y="353" on="1"/>
        <pt x="226" y="268" on="0"/>
        <pt x="329" y="158" on="0"/>
      </contour>
      <contour>
        <pt x="539" y="767" on="1"/>
        <pt x="392" y="850" on="1"/>
        <pt x="422" y="850" on="1"/>
        <pt x="276" y="767" on="1"/>
        <pt x="218" y="824" on="1"/>
        <pt x="361" y="945" on="1"/>
        <pt x="453" y="945" on="1"/>
        <pt x="596" y="824" on="1"/>
      </contour>
    </TTGlyph>
    <TTGlyph name="Odieresis" xMin="43" yMin="-10" xMax="774" yMax="940">
      <contour>
        <pt x="408" y="717" on="1"/>
        <pt x="568" y="717" on="0"/>
        <pt x="774" y="511" on="0"/>
        <pt x="774" y="353" on="1"/>
        <pt x="774" y="196" on="0"/>
        <pt x="568" y="-10" on="0"/>
        <pt x="408" y="-10" on="1"/>
        <pt x="249" y="-10" on="0"/>
        <pt x="43" y="196" on="0"/>
        <pt x="43" y="353" on="1"/>
        <pt x="43" y="511" on="0"/>
        <pt x="249" y="717" on="0"/>
      </contour>
      <contour>
        <pt x="408" y="158" on="1"/>
        <pt x="487" y="158" on="0"/>
        <pt x="591" y="269" on="0"/>
        <pt x="591" y="353" on="1"/>
        <pt x="591" y="438" on="0"/>
        <pt x="487" y="548" on="0"/>
        <pt x="408" y="548" on="1"/>
        <pt x="329" y="548" on="0"/>
        <pt x="226" y="438" on="0"/>
        <pt x="226" y="353" on="1"/>
        <pt x="226" y="268" on="0"/>
        <pt x="329" y="158" on="0"/>
      </contour>
      <contour>
        <pt x="372" y="851" on="1"/>
        <pt x="372" y="812" on="0"/>
        <pt x="324" y="763" on="0"/>
        <pt x="283" y="763" on="1"/>
        <pt x="240" y="763" on="0"/>
        <pt x="193" y="809" on="0"/>
        <pt x="193" y="851" on="1"/>
        <pt x="193" y="890" on="0"/>
        <pt x="241" y="940" on="0"/>
        <pt x="283" y="940" on="1"/>
        <pt x="326" y="940" on="0"/>
        <pt x="372" y="894" on="0"/>
      </contour>
      <contour>
        <pt x="622" y="851" on="1"/>
        <pt x="622" y="812" on="0"/>
        <pt x="573" y="763" on="0"/>
        <pt x="532" y="763" on="1"/>
        <pt x="489" y="763" on="0"/>
        <pt x="442" y="809" on="0"/>
        <pt x="442" y="851" on="1"/>
        <pt x="442" y="890" on="0"/>
        <pt x="491" y="940" on="0"/>
        <pt x="532" y="940" on="1"/>
        <pt x="575" y="940" on="0"/>
        <pt x="622" y="894" on="0"/>
      </contour>
    </TTGlyph>
    <TTGlyph name="Ograve" xMin="43" yMin="-10" xMax="774" yMax="988">
      <contour>
        <pt x="408" y="717" on="1"/>
        <pt x="568" y="717" on="0"/>
        <pt x="774" y="511" on="0"/>
        <pt x="774" y="353" on="1"/>
        <pt x="774" y="196" on="0"/>
        <pt x="568" y="-10" on="0"/>
        <pt x="408" y="-10" on="1"/>
        <pt x="249" y="-10" on="0"/>
        <pt x="43" y="196" on="0"/>
        <pt x="43" y="353" on="1"/>
        <pt x="43" y="511" on="0"/>
        <pt x="249" y="717" on="0"/>
      </contour>
      <contour>
        <pt x="408" y="158" on="1"/>
        <pt x="487" y="158" on="0"/>
        <pt x="591" y="269" on="0"/>
        <pt x="591" y="353" on="1"/>
        <pt x="591" y="438" on="0"/>
        <pt x="487" y="548" on="0"/>
        <pt x="408" y="548" on="1"/>
        <pt x="329" y="548" on="0"/>
        <pt x="226" y="438" on="0"/>
        <pt x="226" y="353" on="1"/>
        <pt x="226" y="268" on="0"/>
        <pt x="329" y="158" on="0"/>
      </contour>
      <contour>
        <pt x="504" y="844" on="1"/>
        <pt x="453" y="765" on="1"/>
        <pt x="243" y="877" on="1"/>
        <pt x="320" y="988" on="1"/>
      </contour>
    </TTGlyph>
    <TTGlyph name="Ohorn" xMin="43" yMin="-10" xMax="774" yMax="834">
      <contour>
        <pt x="408" y="717" on="1"/>
        <pt x="568" y="717" on="0"/>
        <pt x="774" y="511" on="0"/>
        <pt x="774" y="353" on="1"/>
        <pt x="774" y="196" on="0"/>
        <pt x="568" y="-10" on="0"/>
        <pt x="408" y="-10" on="1"/>
        <pt x="249" y="-10" on="0"/>
        <pt x="43" y="196" on="0"/>
        <pt x="43" y="353" on="1"/>
        <pt x="43" y="511" on="0"/>
        <pt x="249" y="717" on="0"/>
      </contour>
      <contour>
        <pt x="408" y="158" on="1"/>
        <pt x="487" y="158" on="0"/>
        <pt x="591" y="269" on="0"/>
        <pt x="591" y="353" on="1"/>
        <pt x="591" y="438" on="0"/>
        <pt x="487" y="548" on="0"/>
        <pt x="408" y="548" on="1"/>
        <pt x="329" y="548" on="0"/>
        <pt x="226" y="438" on="0"/>
        <pt x="226" y="353" on="1"/>
        <pt x="226" y="268" on="0"/>
        <pt x="329" y="158" on="0"/>
      </contour>
      <contour>
        <pt x="490" y="598" on="1"/>
        <pt x="490" y="707" on="1"/>
        <pt x="535" y="707" on="0"/>
        <pt x="579" y="770" on="0"/>
        <pt x="579" y="834" on="1"/>
        <pt x="711" y="834" on="1"/>
        <pt x="711" y="731" on="0"/>
        <pt x="596" y="598" on="0"/>
      </contour>
    </TTGlyph>
    <TTGlyph name="Ohungarumlaut" xMin="43" yMin="-10" xMax="774" yMax="975">
      <contour>
        <pt x="408" y="717" on="1"/>
        <pt x="568" y="717" on="0"/>
        <pt x="774" y="511" on="0"/>
        <pt x="774" y="353" on="1"/>
        <pt x="774" y="196" on="0"/>
        <pt x="568" y="-10" on="0"/>
        <pt x="408" y="-10" on="1"/>
        <pt x="249" y="-10" on="0"/>
        <pt x="43" y="196" on="0"/>
        <pt x="43" y="353" on="1"/>
        <pt x="43" y="511" on="0"/>
        <pt x="249" y="717" on="0"/>
      </contour>
      <contour>
        <pt x="408" y="158" on="1"/>
        <pt x="487" y="158" on="0"/>
        <pt x="591" y="269" on="0"/>
        <pt x="591" y="353" on="1"/>
        <pt x="591" y="438" on="0"/>
        <pt x="487" y="548" on="0"/>
        <pt x="408" y="548" on="1"/>
        <pt x="329" y="548" on="0"/>
        <pt x="226" y="438" on="0"/>
        <pt x="226" y="353" on="1"/>
        <pt x="226" y="268" on="0"/>
        <pt x="329" y="158" on="0"/>
      </contour>
      <contour>
        <pt x="462" y="867" on="1"/>
        <pt x="252" y="755" on="1"/>
        <pt x="202" y="831" on="1"/>
        <pt x="387" y="975" on="1"/>
      </contour>
      <contour>
        <pt x="716" y="867" on="1"/>
        <pt x="506" y="755" on="1"/>
        <pt x="456" y="831" on="1"/>
        <pt x="641" y="975" on="1"/>
      </contour>
    </TTGlyph>
    <TTGlyph name="Omacron" xMin="43" yMin="-10" xMax="774" yMax="877">
      <contour>
        <pt x="408" y="717" on="1"/>
        <pt x="568" y="717" on="0"/>
        <pt x="774" y="511" on="0"/>
        <pt x="774" y="353" on="1"/>
        <pt x="774" y="196" on="0"/>
        <pt x="568" y="-10" on="0"/>
        <pt x="408" y="-10" on="1"/>
        <pt x="249" y="-10" on="0"/>
        <pt x="43" y="196" on="0"/>
        <pt x="43" y="353" on="1"/>
        <pt x="43" y="511" on="0"/>
        <pt x="249" y="717" on="0"/>
      </contour>
      <contour>
        <pt x="408" y="158" on="1"/>
        <pt x="487" y="158" on="0"/>
        <pt x="591" y="269" on="0"/>
        <pt x="591" y="353" on="1"/>
        <pt x="591" y="438" on="0"/>
        <pt x="487" y="548" on="0"/>
        <pt x="408" y="548" on="1"/>
        <pt x="329" y="548" on="0"/>
        <pt x="226" y="438" on="0"/>
        <pt x="226" y="353" on="1"/>
        <pt x="226" y="268" on="0"/>
        <pt x="329" y="158" on="0"/>
      </contour>
      <contour>
        <pt x="589" y="772" on="1"/>
        <pt x="226" y="772" on="1"/>
        <pt x="226" y="877" on="1"/>
        <pt x="589" y="877" on="1"/>
      </contour>
    </TTGlyph>
    <TTGlyph name="Oslash" xMin="43" yMin="-33" xMax="774" yMax="741">
      <contour>
        <pt x="142" y="-33" on="1"/>
        <pt x="79" y="20" on="1"/>
        <pt x="668" y="741" on="1"/>
        <pt x="736" y="694" on="1"/>
      </contour>
      <contour>
        <pt x="409" y="717" on="1"/>
        <pt x="568" y="717" on="0"/>
        <pt x="774" y="511" on="0"/>
        <pt x="774" y="353" on="1"/>
        <pt x="774" y="196" on="0"/>
        <pt x="568" y="-10" on="0"/>
        <pt x="409" y="-10" on="1"/>
        <pt x="249" y="-10" on="0"/>
        <pt x="43" y="196" on="0"/>
        <pt x="43" y="353" on="1"/>
        <pt x="43" y="511" on="0"/>
        <pt x="249" y="717" on="0"/>
      </contour>
      <contour>
        <pt x="409" y="158" on="1"/>
        <pt x="488" y="158" on="0"/>
        <pt x="591" y="269" on="0"/>
        <pt x="591" y="353" on="1"/>
        <pt x="591" y="438" on="0"/>
        <pt x="488" y="548" on="0"/>
        <pt x="409" y="548" on="1"/>
        <pt x="329" y="548" on="0"/>
        <pt x="226" y="438" on="0"/>
        <pt x="226" y="353" on="1"/>
        <pt x="226" y="268" on="0"/>
        <pt x="329" y="158" on="0"/>
      </contour>
    </TTGlyph>
    <TTGlyph name="Oslashacute" xMin="43" yMin="-33" xMax="774" yMax="987">
      <contour>
        <pt x="142" y="-33" on="1"/>
        <pt x="79" y="20" on="1"/>
        <pt x="668" y="741" on="1"/>
        <pt x="736" y="694" on="1"/>
      </contour>
      <contour>
        <pt x="409" y="717" on="1"/>
        <pt x="568" y="717" on="0"/>
        <pt x="774" y="511" on="0"/>
        <pt x="774" y="353" on="1"/>
        <pt x="774" y="196" on="0"/>
        <pt x="568" y="-10" on="0"/>
        <pt x="409" y="-10" on="1"/>
        <pt x="249" y="-10" on="0"/>
        <pt x="43" y="196" on="0"/>
        <pt x="43" y="353" on="1"/>
        <pt x="43" y="511" on="0"/>
        <pt x="249" y="717" on="0"/>
      </contour>
      <contour>
        <pt x="409" y="158" on="1"/>
        <pt x="488" y="158" on="0"/>
        <pt x="591" y="269" on="0"/>
        <pt x="591" y="353" on="1"/>
        <pt x="591" y="438" on="0"/>
        <pt x="488" y="548" on="0"/>
        <pt x="409" y="548" on="1"/>
        <pt x="329" y="548" on="0"/>
        <pt x="226" y="438" on="0"/>
        <pt x="226" y="353" on="1"/>
        <pt x="226" y="268" on="0"/>
        <pt x="329" y="158" on="0"/>
      </contour>
      <contour>
        <pt x="567" y="876" on="1"/>
        <pt x="357" y="763" on="1"/>
        <pt x="306" y="842" on="1"/>
        <pt x="490" y="987" on="1"/>
      </contour>
    </TTGlyph>
    <TTGlyph name="Otilde" xMin="43" yMin="-10" xMax="774" yMax="932">
      <contour>
        <pt x="408" y="717" on="1"/>
        <pt x="568" y="717" on="0"/>
        <pt x="774" y="511" on="0"/>
        <pt x="774" y="353" on="1"/>
        <pt x="774" y="196" on="0"/>
        <pt x="568" y="-10" on="0"/>
        <pt x="408" y="-10" on="1"/>
        <pt x="249" y="-10" on="0"/>
        <pt x="43" y="196" on="0"/>
        <pt x="43" y="353" on="1"/>
        <pt x="43" y="511" on="0"/>
        <pt x="249" y="717" on="0"/>
      </contour>
      <contour>
        <pt x="408" y="158" on="1"/>
        <pt x="487" y="158" on="0"/>
        <pt x="591" y="269" on="0"/>
        <pt x="591" y="353" on="1"/>
        <pt x="591" y="438" on="0"/>
        <pt x="487" y="548" on="0"/>
        <pt x="408" y="548" on="1"/>
        <pt x="329" y="548" on="0"/>
        <pt x="226" y="438" on="0"/>
        <pt x="226" y="353" on="1"/>
        <pt x="226" y="268" on="0"/>
        <pt x="329" y="158" on="0"/>
      </contour>
      <contour>
        <pt x="319" y="786" on="1"/>
        <pt x="216" y="786" on="1"/>
        <pt x="216" y="853" on="0"/>
        <pt x="283" y="932" on="0"/>
        <pt x="342" y="932" on="1"/>
        <pt x="357" y="932" on="0"/>
        <pt x="391" y="923" on="0"/>
        <pt x="423" y="909" on="1"/>
        <pt x="445" y="900" on="0"/>
        <pt x="464" y="892" on="0"/>
        <pt x="471" y="892" on="1"/>
        <pt x="484" y="892" on="0"/>
        <pt x="497" y="914" on="0"/>
        <pt x="496" y="932" on="1"/>
        <pt x="599" y="932" on="1"/>
        <pt x="599" y="869" on="0"/>
        <pt x="536" y="785" on="0"/>
        <pt x="487" y="785" on="1"/>
        <pt x="470" y="785" on="0"/>
        <pt x="431" y="795" on="0"/>
        <pt x="394" y="809" on="1"/>
        <pt x="371" y="818" on="0"/>
        <pt x="353" y="825" on="0"/>
        <pt x="346" y="825" on="1"/>
        <pt x="334" y="825" on="0"/>
        <pt x="319" y="804" on="0"/>
      </contour>
    </TTGlyph>
    <TTGlyph name="P" xMin="79" yMin="0" xMax="618" yMax="700">
      <contour>
        <pt x="79" y="700" on="1"/>
        <pt x="384" y="700" on="1"/>
        <pt x="485" y="700" on="0"/>
        <pt x="618" y="568" on="0"/>
        <pt x="618" y="468" on="1"/>
        <pt x="618" y="365" on="0"/>
        <pt x="485" y="228" on="0"/>
        <pt x="384" y="228" on="1"/>
        <pt x="233" y="228" on="1"/>
        <pt x="259" y="255" on="1"/>
        <pt x="259" y="0" on="1"/>
        <pt x="79" y="0" on="1"/>
      </contour>
      <contour>
        <pt x="232" y="385" on="1"/>
        <pt x="357" y="385" on="1"/>
        <pt x="390" y="385" on="0"/>
        <pt x="434" y="430" on="0"/>
        <pt x="434" y="466" on="1"/>
        <pt x="434" y="502" on="0"/>
        <pt x="390" y="543" on="0"/>
        <pt x="357" y="543" on="1"/>
        <pt x="232" y="543" on="1"/>
        <pt x="257" y="571" on="1"/>
        <pt x="257" y="358" on="1"/>
      </contour>
    </TTGlyph>
    <TTGlyph name="Q" xMin="43" yMin="-110" xMax="774" yMax="717">
      <contour>
        <pt x="408" y="717" on="1"/>
        <pt x="568" y="717" on="0"/>
        <pt x="774" y="511" on="0"/>
        <pt x="774" y="353" on="1"/>
        <pt x="774" y="196" on="0"/>
        <pt x="568" y="-5" on="0"/>
        <pt x="408" y="-5" on="1"/>
        <pt x="249" y="-5" on="0"/>
        <pt x="43" y="196" on="0"/>
        <pt x="43" y="353" on="1"/>
        <pt x="43" y="511" on="0"/>
        <pt x="249" y="717" on="0"/>
      </contour>
      <contour>
        <pt x="408" y="154" on="1"/>
        <pt x="488" y="154" on="0"/>
        <pt x="591" y="269" on="0"/>
        <pt x="591" y="355" on="1"/>
        <pt x="591" y="440" on="0"/>
        <pt x="488" y="550" on="0"/>
        <pt x="408" y="550" on="1"/>
        <pt x="328" y="550" on="0"/>
        <pt x="225" y="440" on="0"/>
        <pt x="225" y="355" on="1"/>
        <pt x="225" y="268" on="0"/>
        <pt x="328" y="154" on="0"/>
      </contour>
      <contour>
        <pt x="478" y="347" on="1"/>
        <pt x="743" y="-15" on="1"/>
        <pt x="616" y="-110" on="1"/>
        <pt x="347" y="255" on="1"/>
      </contour>
    </TTGlyph>
    <TTGlyph name="R" xMin="79" yMin="0" xMax="667" yMax="700">
      <contour>
        <pt x="638" y="477" on="1"/>
        <pt x="638" y="376" on="0"/>
        <pt x="501" y="243" on="0"/>
        <pt x="397" y="243" on="1"/>
        <pt x="194" y="243" on="1"/>
        <pt x="194" y="378" on="1"/>
        <pt x="378" y="378" on="1"/>
        <pt x="417" y="378" on="0"/>
        <pt x="462" y="426" on="0"/>
        <pt x="462" y="466" on="1"/>
        <pt x="462" y="505" on="0"/>
        <pt x="411" y="552" on="0"/>
        <pt x="366" y="552" on="1"/>
        <pt x="197" y="552" on="1"/>
        <pt x="250" y="630" on="1"/>
        <pt x="250" y="0" on="1"/>
        <pt x="79" y="0" on="1"/>
        <pt x="79" y="700" on="1"/>
        <pt x="397" y="700" on="1"/>
        <pt x="501" y="700" on="0"/>
        <pt x="638" y="573" on="0"/>
      </contour>
      <contour>
        <pt x="285" y="316" on="1"/>
        <pt x="469" y="341" on="1"/>
        <pt x="667" y="0" on="1"/>
        <pt x="463" y="0" on="1"/>
      </contour>
    </TTGlyph>
    <TTGlyph name="Racute" xMin="79" yMin="0" xMax="667" yMax="987">
      <contour>
        <pt x="638" y="477" on="1"/>
        <pt x="638" y="376" on="0"/>
        <pt x="501" y="243" on="0"/>
        <pt x="397" y="243" on="1"/>
        <pt x="194" y="243" on="1"/>
        <pt x="194" y="378" on="1"/>
        <pt x="378" y="378" on="1"/>
        <pt x="417" y="378" on="0"/>
        <pt x="462" y="426" on="0"/>
        <pt x="462" y="466" on="1"/>
        <pt x="462" y="505" on="0"/>
        <pt x="411" y="552" on="0"/>
        <pt x="366" y="552" on="1"/>
        <pt x="197" y="552" on="1"/>
        <pt x="250" y="630" on="1"/>
        <pt x="250" y="0" on="1"/>
        <pt x="79" y="0" on="1"/>
        <pt x="79" y="700" on="1"/>
        <pt x="397" y="700" on="1"/>
        <pt x="501" y="700" on="0"/>
        <pt x="638" y="573" on="0"/>
      </contour>
      <contour>
        <pt x="285" y="316" on="1"/>
        <pt x="469" y="341" on="1"/>
        <pt x="667" y="0" on="1"/>
        <pt x="463" y="0" on="1"/>
      </contour>
      <contour>
        <pt x="503" y="876" on="1"/>
        <pt x="293" y="763" on="1"/>
        <pt x="242" y="842" on="1"/>
        <pt x="426" y="987" on="1"/>
      </contour>
    </TTGlyph>
    <TTGlyph name="Rcaron" xMin="79" yMin="0" xMax="667" yMax="950">
      <contour>
        <pt x="638" y="477" on="1"/>
        <pt x="638" y="376" on="0"/>
        <pt x="501" y="243" on="0"/>
        <pt x="397" y="243" on="1"/>
        <pt x="194" y="243" on="1"/>
        <pt x="194" y="378" on="1"/>
        <pt x="378" y="378" on="1"/>
        <pt x="417" y="378" on="0"/>
        <pt x="462" y="426" on="0"/>
        <pt x="462" y="466" on="1"/>
        <pt x="462" y="505" on="0"/>
        <pt x="411" y="552" on="0"/>
        <pt x="366" y="552" on="1"/>
        <pt x="197" y="552" on="1"/>
        <pt x="250" y="630" on="1"/>
        <pt x="250" y="0" on="1"/>
        <pt x="79" y="0" on="1"/>
        <pt x="79" y="700" on="1"/>
        <pt x="397" y="700" on="1"/>
        <pt x="501" y="700" on="0"/>
        <pt x="638" y="573" on="0"/>
      </contour>
      <contour>
        <pt x="285" y="316" on="1"/>
        <pt x="469" y="341" on="1"/>
        <pt x="667" y="0" on="1"/>
        <pt x="463" y="0" on="1"/>
      </contour>
      <contour>
        <pt x="480" y="950" on="1"/>
        <pt x="328" y="862" on="1"/>
        <pt x="358" y="862" on="1"/>
        <pt x="206" y="950" on="1"/>
        <pt x="146" y="898" on="1"/>
        <pt x="295" y="765" on="1"/>
        <pt x="391" y="765" on="1"/>
        <pt x="540" y="898" on="1"/>
      </contour>
    </TTGlyph>
    <TTGlyph name="S" xMin="15" yMin="-10" xMax="598" yMax="717">
      <contour>
        <pt x="15" y="130" on="1"/>
        <pt x="123" y="252" on="1"/>
        <pt x="173" y="186" on="0"/>
        <pt x="276" y="140" on="0"/>
        <pt x="328" y="140" on="1"/>
        <pt x="367" y="140" on="0"/>
        <pt x="417" y="168" on="0"/>
        <pt x="417" y="196" on="1"/>
        <pt x="417" y="228" on="0"/>
        <pt x="352" y="262" on="0"/>
        <pt x="282" y="278" on="1"/>
        <pt x="166" y="303" on="0"/>
        <pt x="52" y="411" on="0"/>
        <pt x="52" y="500" on="1"/>
        <pt x="52" y="597" on="0"/>
        <pt x="213" y="717" on="0"/>
        <pt x="319" y="717" on="1"/>
        <pt x="425" y="717" on="0"/>
        <pt x="549" y="652" on="0"/>
        <pt x="587" y="596" on="1"/>
        <pt x="478" y="491" on="1"/>
        <pt x="446" y="528" on="0"/>
        <pt x="368" y="565" on="0"/>
        <pt x="326" y="565" on="1"/>
        <pt x="284" y="565" on="0"/>
        <pt x="234" y="537" on="0"/>
        <pt x="234" y="510" on="1"/>
        <pt x="234" y="485" on="0"/>
        <pt x="283" y="452" on="0"/>
        <pt x="352" y="438" on="1"/>
        <pt x="462" y="417" on="0"/>
        <pt x="598" y="315" on="0"/>
        <pt x="598" y="219" on="1"/>
        <pt x="598" y="109" on="0"/>
        <pt x="441" y="-10" on="0"/>
        <pt x="321" y="-10" on="1"/>
        <pt x="213" y="-10" on="0"/>
        <pt x="67" y="64" on="0"/>
      </contour>
    </TTGlyph>
    <TTGlyph name="Sacute" xMin="15" yMin="-10" xMax="598" yMax="987">
      <contour>
        <pt x="15" y="130" on="1"/>
        <pt x="123" y="252" on="1"/>
        <pt x="173" y="186" on="0"/>
        <pt x="276" y="140" on="0"/>
        <pt x="328" y="140" on="1"/>
        <pt x="367" y="140" on="0"/>
        <pt x="417" y="168" on="0"/>
        <pt x="417" y="196" on="1"/>
        <pt x="417" y="228" on="0"/>
        <pt x="352" y="262" on="0"/>
        <pt x="282" y="278" on="1"/>
        <pt x="166" y="303" on="0"/>
        <pt x="52" y="411" on="0"/>
        <pt x="52" y="500" on="1"/>
        <pt x="52" y="597" on="0"/>
        <pt x="213" y="717" on="0"/>
        <pt x="319" y="717" on="1"/>
        <pt x="425" y="717" on="0"/>
        <pt x="549" y="652" on="0"/>
        <pt x="587" y="596" on="1"/>
        <pt x="478" y="491" on="1"/>
        <pt x="446" y="528" on="0"/>
        <pt x="368" y="565" on="0"/>
        <pt x="326" y="565" on="1"/>
        <pt x="284" y="565" on="0"/>
        <pt x="234" y="537" on="0"/>
        <pt x="234" y="510" on="1"/>
        <pt x="234" y="485" on="0"/>
        <pt x="283" y="452" on="0"/>
        <pt x="352" y="438" on="1"/>
        <pt x="462" y="417" on="0"/>
        <pt x="598" y="315" on="0"/>
        <pt x="598" y="219" on="1"/>
        <pt x="598" y="109" on="0"/>
        <pt x="441" y="-10" on="0"/>
        <pt x="321" y="-10" on="1"/>
        <pt x="213" y="-10" on="0"/>
        <pt x="67" y="64" on="0"/>
      </contour>
      <contour>
        <pt x="486" y="876" on="1"/>
        <pt x="276" y="763" on="1"/>
        <pt x="224" y="842" on="1"/>
        <pt x="409" y="987" on="1"/>
      </contour>
    </TTGlyph>
    <TTGlyph name="Scaron" xMin="15" yMin="-10" xMax="598" yMax="950">
      <contour>
        <pt x="15" y="130" on="1"/>
        <pt x="123" y="252" on="1"/>
        <pt x="173" y="186" on="0"/>
        <pt x="276" y="140" on="0"/>
        <pt x="328" y="140" on="1"/>
        <pt x="367" y="140" on="0"/>
        <pt x="417" y="168" on="0"/>
        <pt x="417" y="196" on="1"/>
        <pt x="417" y="228" on="0"/>
        <pt x="352" y="262" on="0"/>
        <pt x="282" y="278" on="1"/>
        <pt x="166" y="303" on="0"/>
        <pt x="52" y="411" on="0"/>
        <pt x="52" y="500" on="1"/>
        <pt x="52" y="597" on="0"/>
        <pt x="213" y="717" on="0"/>
        <pt x="319" y="717" on="1"/>
        <pt x="425" y="717" on="0"/>
        <pt x="549" y="652" on="0"/>
        <pt x="587" y="596" on="1"/>
        <pt x="478" y="491" on="1"/>
        <pt x="446" y="528" on="0"/>
        <pt x="368" y="565" on="0"/>
        <pt x="326" y="565" on="1"/>
        <pt x="284" y="565" on="0"/>
        <pt x="234" y="537" on="0"/>
        <pt x="234" y="510" on="1"/>
        <pt x="234" y="485" on="0"/>
        <pt x="283" y="452" on="0"/>
        <pt x="352" y="438" on="1"/>
        <pt x="462" y="417" on="0"/>
        <pt x="598" y="315" on="0"/>
        <pt x="598" y="219" on="1"/>
        <pt x="598" y="109" on="0"/>
        <pt x="441" y="-10" on="0"/>
        <pt x="321" y="-10" on="1"/>
        <pt x="213" y="-10" on="0"/>
        <pt x="67" y="64" on="0"/>
      </contour>
      <contour>
        <pt x="459" y="950" on="1"/>
        <pt x="308" y="862" on="1"/>
        <pt x="338" y="862" on="1"/>
        <pt x="186" y="950" on="1"/>
        <pt x="125" y="898" on="1"/>
        <pt x="274" y="765" on="1"/>
        <pt x="371" y="765" on="1"/>
        <pt x="520" y="898" on="1"/>
      </contour>
    </TTGlyph>
    <TTGlyph name="Scedilla" xMin="15" yMin="-247" xMax="598" yMax="717">
      <contour>
        <pt x="15" y="130" on="1"/>
        <pt x="123" y="252" on="1"/>
        <pt x="173" y="186" on="0"/>
        <pt x="276" y="140" on="0"/>
        <pt x="328" y="140" on="1"/>
        <pt x="367" y="140" on="0"/>
        <pt x="417" y="168" on="0"/>
        <pt x="417" y="196" on="1"/>
        <pt x="417" y="228" on="0"/>
        <pt x="352" y="262" on="0"/>
        <pt x="282" y="278" on="1"/>
        <pt x="166" y="303" on="0"/>
        <pt x="52" y="411" on="0"/>
        <pt x="52" y="500" on="1"/>
        <pt x="52" y="597" on="0"/>
        <pt x="213" y="717" on="0"/>
        <pt x="319" y="717" on="1"/>
        <pt x="425" y="717" on="0"/>
        <pt x="549" y="652" on="0"/>
        <pt x="587" y="596" on="1"/>
        <pt x="478" y="491" on="1"/>
        <pt x="446" y="528" on="0"/>
        <pt x="368" y="565" on="0"/>
        <pt x="326" y="565" on="1"/>
        <pt x="284" y="565" on="0"/>
        <pt x="234" y="537" on="0"/>
        <pt x="234" y="510" on="1"/>
        <pt x="234" y="485" on="0"/>
        <pt x="283" y="452" on="0"/>
        <pt x="352" y="438" on="1"/>
        <pt x="462" y="417" on="0"/>
        <pt x="598" y="315" on="0"/>
        <pt x="598" y="219" on="1"/>
        <pt x="598" y="109" on="0"/>
        <pt x="441" y="-10" on="0"/>
        <pt x="321" y="-10" on="1"/>
        <pt x="213" y="-10" on="0"/>
        <pt x="67" y="64" on="0"/>
      </contour>
      <contour>
        <pt x="312" y="-90" on="1"/>
        <pt x="238" y="-83" on="1"/>
        <pt x="306" y="24" on="1"/>
        <pt x="392" y="24" on="1"/>
      </contour>
      <contour>
        <pt x="449" y="-139" on="1"/>
        <pt x="449" y="-163" on="0"/>
        <pt x="412" y="-212" on="0"/>
        <pt x="379" y="-227" on="1"/>
        <pt x="350" y="-239" on="0"/>
        <pt x="279" y="-247" on="0"/>
        <pt x="239" y="-246" on="1"/>
        <pt x="229" y="-168" on="1"/>
        <pt x="259" y="-168" on="0"/>
        <pt x="324" y="-147" on="0"/>
        <pt x="324" y="-129" on="1"/>
        <pt x="324" y="-115" on="0"/>
        <pt x="286" y="-98" on="0"/>
        <pt x="256" y="-97" on="1"/>
        <pt x="238" y="-85" on="1"/>
        <pt x="238" y="-83" on="1"/>
        <pt x="326" y="-40" on="1"/>
        <pt x="389" y="-42" on="0"/>
        <pt x="449" y="-98" on="0"/>
      </contour>
    </TTGlyph>
    <TTGlyph name="Scircumflex" xMin="15" yMin="-10" xMax="598" yMax="945">
      <contour>
        <pt x="15" y="130" on="1"/>
        <pt x="123" y="252" on="1"/>
        <pt x="173" y="186" on="0"/>
        <pt x="276" y="140" on="0"/>
        <pt x="328" y="140" on="1"/>
        <pt x="367" y="140" on="0"/>
        <pt x="417" y="168" on="0"/>
        <pt x="417" y="196" on="1"/>
        <pt x="417" y="228" on="0"/>
        <pt x="352" y="262" on="0"/>
        <pt x="282" y="278" on="1"/>
        <pt x="166" y="303" on="0"/>
        <pt x="52" y="411" on="0"/>
        <pt x="52" y="500" on="1"/>
        <pt x="52" y="597" on="0"/>
        <pt x="213" y="717" on="0"/>
        <pt x="319" y="717" on="1"/>
        <pt x="425" y="717" on="0"/>
        <pt x="549" y="652" on="0"/>
        <pt x="587" y="596" on="1"/>
        <pt x="478" y="491" on="1"/>
        <pt x="446" y="528" on="0"/>
        <pt x="368" y="565" on="0"/>
        <pt x="326" y="565" on="1"/>
        <pt x="284" y="565" on="0"/>
        <pt x="234" y="537" on="0"/>
        <pt x="234" y="510" on="1"/>
        <pt x="234" y="485" on="0"/>
        <pt x="283" y="452" on="0"/>
        <pt x="352" y="438" on="1"/>
        <pt x="462" y="417" on="0"/>
        <pt x="598" y="315" on="0"/>
        <pt x="598" y="219" on="1"/>
        <pt x="598" y="109" on="0"/>
        <pt x="441" y="-10" on="0"/>
        <pt x="321" y="-10" on="1"/>
        <pt x="213" y="-10" on="0"/>
        <pt x="67" y="64" on="0"/>
      </contour>
      <contour>
        <pt x="456" y="767" on="1"/>
        <pt x="309" y="850" on="1"/>
        <pt x="339" y="850" on="1"/>
        <pt x="193" y="767" on="1"/>
        <pt x="135" y="824" on="1"/>
        <pt x="278" y="945" on="1"/>
        <pt x="370" y="945" on="1"/>
        <pt x="513" y="824" on="1"/>
      </contour>
    </TTGlyph>
    <TTGlyph name="T" xMin="32" yMin="0" xMax="636" yMax="700">
      <contour>
        <pt x="421" y="0" on="1"/>
        <pt x="241" y="0" on="1"/>
        <pt x="241" y="651" on="1"/>
        <pt x="421" y="651" on="1"/>
      </contour>
      <contour>
        <pt x="636" y="543" on="1"/>
        <pt x="32" y="543" on="1"/>
        <pt x="32" y="700" on="1"/>
        <pt x="636" y="700" on="1"/>
      </contour>
    </TTGlyph>
    <TTGlyph name="Tbar" xMin="32" yMin="0" xMax="636" yMax="700">
      <contour>
        <pt x="421" y="0" on="1"/>
        <pt x="241" y="0" on="1"/>
        <pt x="241" y="651" on="1"/>
        <pt x="421" y="651" on="1"/>
      </contour>
      <contour>
        <pt x="636" y="543" on="1"/>
        <pt x="32" y="543" on="1"/>
        <pt x="32" y="700" on="1"/>
        <pt x="636" y="700" on="1"/>
      </contour>
      <contour>
        <pt x="504" y="282" on="1"/>
        <pt x="169" y="282" on="1"/>
        <pt x="169" y="406" on="1"/>
        <pt x="504" y="406" on="1"/>
      </contour>
    </TTGlyph>
    <TTGlyph name="Tcaron" xMin="32" yMin="0" xMax="636" yMax="950">
      <contour>
        <pt x="421" y="0" on="1"/>
        <pt x="241" y="0" on="1"/>
        <pt x="241" y="651" on="1"/>
        <pt x="421" y="651" on="1"/>
      </contour>
      <contour>
        <pt x="636" y="543" on="1"/>
        <pt x="32" y="543" on="1"/>
        <pt x="32" y="700" on="1"/>
        <pt x="636" y="700" on="1"/>
      </contour>
      <contour>
        <pt x="469" y="950" on="1"/>
        <pt x="318" y="862" on="1"/>
        <pt x="348" y="862" on="1"/>
        <pt x="196" y="950" on="1"/>
        <pt x="135" y="898" on="1"/>
        <pt x="284" y="765" on="1"/>
        <pt x="381" y="765" on="1"/>
        <pt x="530" y="898" on="1"/>
      </contour>
    </TTGlyph>
    <TTGlyph name="Thorn" xMin="79" yMin="0" xMax="618" yMax="700">
      <contour>
        <pt x="79" y="700" on="1"/>
        <pt x="259" y="700" on="1"/>
        <pt x="259" y="0" on="1"/>
        <pt x="79" y="0" on="1"/>
      </contour>
      <contour>
        <pt x="199" y="119" on="1"/>
        <pt x="198" y="276" on="1"/>
        <pt x="357" y="276" on="1"/>
        <pt x="390" y="276" on="0"/>
        <pt x="434" y="321" on="0"/>
        <pt x="434" y="357" on="1"/>
        <pt x="434" y="393" on="0"/>
        <pt x="390" y="434" on="0"/>
        <pt x="357" y="434" on="1"/>
        <pt x="182" y="434" on="1"/>
        <pt x="172" y="591" on="1"/>
        <pt x="384" y="591" on="1"/>
        <pt x="485" y="591" on="0"/>
        <pt x="618" y="459" on="0"/>
        <pt x="618" y="359" on="1"/>
        <pt x="618" y="256" on="0"/>
        <pt x="485" y="119" on="0"/>
        <pt x="384" y="119" on="1"/>
      </contour>
    </TTGlyph>
    <TTGlyph name="U" xMin="83" yMin="-6" xMax="687" yMax="700">
      <contour>
        <pt x="510" y="700" on="1"/>
        <pt x="687" y="700" on="1"/>
        <pt x="687" y="269" on="1"/>
        <pt x="687" y="149" on="0"/>
        <pt x="516" y="-6" on="0"/>
        <pt x="385" y="-6" on="1"/>
        <pt x="253" y="-6" on="0"/>
        <pt x="83" y="149" on="0"/>
        <pt x="83" y="269" on="1"/>
        <pt x="83" y="700" on="1"/>
        <pt x="264" y="700" on="1"/>
        <pt x="264" y="278" on="1"/>
        <pt x="264" y="223" on="0"/>
        <pt x="334" y="151" on="0"/>
        <pt x="385" y="151" on="1"/>
        <pt x="438" y="151" on="0"/>
        <pt x="510" y="223" on="0"/>
        <pt x="510" y="278" on="1"/>
      </contour>
    </TTGlyph>
    <TTGlyph name="Uacute" xMin="83" yMin="-6" xMax="687" yMax="987">
      <contour>
        <pt x="510" y="700" on="1"/>
        <pt x="687" y="700" on="1"/>
        <pt x="687" y="269" on="1"/>
        <pt x="687" y="149" on="0"/>
        <pt x="516" y="-6" on="0"/>
        <pt x="385" y="-6" on="1"/>
        <pt x="253" y="-6" on="0"/>
        <pt x="83" y="149" on="0"/>
        <pt x="83" y="269" on="1"/>
        <pt x="83" y="700" on="1"/>
        <pt x="264" y="700" on="1"/>
        <pt x="264" y="278" on="1"/>
        <pt x="264" y="223" on="0"/>
        <pt x="334" y="151" on="0"/>
        <pt x="385" y="151" on="1"/>
        <pt x="438" y="151" on="0"/>
        <pt x="510" y="223" on="0"/>
        <pt x="510" y="278" on="1"/>
      </contour>
      <contour>
        <pt x="548" y="876" on="1"/>
        <pt x="338" y="763" on="1"/>
        <pt x="287" y="842" on="1"/>
        <pt x="471" y="987" on="1"/>
      </contour>
    </TTGlyph>
    <TTGlyph name="Ubreve" xMin="83" yMin="-6" xMax="687" yMax="936">
      <contour>
        <pt x="510" y="700" on="1"/>
        <pt x="687" y="700" on="1"/>
        <pt x="687" y="269" on="1"/>
        <pt x="687" y="149" on="0"/>
        <pt x="516" y="-6" on="0"/>
        <pt x="385" y="-6" on="1"/>
        <pt x="253" y="-6" on="0"/>
        <pt x="83" y="149" on="0"/>
        <pt x="83" y="269" on="1"/>
        <pt x="83" y="700" on="1"/>
        <pt x="264" y="700" on="1"/>
        <pt x="264" y="278" on="1"/>
        <pt x="264" y="223" on="0"/>
        <pt x="334" y="151" on="0"/>
        <pt x="385" y="151" on="1"/>
        <pt x="438" y="151" on="0"/>
        <pt x="510" y="223" on="0"/>
        <pt x="510" y="278" on="1"/>
      </contour>
      <contour>
        <pt x="384" y="764" on="1"/>
        <pt x="315" y="764" on="0"/>
        <pt x="216" y="849" on="0"/>
        <pt x="202" y="924" on="1"/>
        <pt x="309" y="936" on="1"/>
        <pt x="319" y="906" on="0"/>
        <pt x="361" y="871" on="0"/>
        <pt x="384" y="871" on="1"/>
        <pt x="407" y="871" on="0"/>
        <pt x="448" y="906" on="0"/>
        <pt x="458" y="936" on="1"/>
        <pt x="566" y="924" on="1"/>
        <pt x="551" y="849" on="0"/>
        <pt x="453" y="764" on="0"/>
      </contour>
    </TTGlyph>
    <TTGlyph name="Ucircumflex" xMin="83" yMin="-6" xMax="687" yMax="945">
      <contour>
        <pt x="510" y="700" on="1"/>
        <pt x="687" y="700" on="1"/>
        <pt x="687" y="269" on="1"/>
        <pt x="687" y="149" on="0"/>
        <pt x="516" y="-6" on="0"/>
        <pt x="385" y="-6" on="1"/>
        <pt x="253" y="-6" on="0"/>
        <pt x="83" y="149" on="0"/>
        <pt x="83" y="269" on="1"/>
        <pt x="83" y="700" on="1"/>
        <pt x="264" y="700" on="1"/>
        <pt x="264" y="278" on="1"/>
        <pt x="264" y="223" on="0"/>
        <pt x="334" y="151" on="0"/>
        <pt x="385" y="151" on="1"/>
        <pt x="438" y="151" on="0"/>
        <pt x="510" y="223" on="0"/>
        <pt x="510" y="278" on="1"/>
      </contour>
      <contour>
        <pt x="517" y="767" on="1"/>
        <pt x="370" y="850" on="1"/>
        <pt x="400" y="850" on="1"/>
        <pt x="254" y="767" on="1"/>
        <pt x="196" y="824" on="1"/>
        <pt x="339" y="945" on="1"/>
        <pt x="431" y="945" on="1"/>
        <pt x="574" y="824" on="1"/>
      </contour>
    </TTGlyph>
    <TTGlyph name="Udieresis" xMin="83" yMin="-6" xMax="687" yMax="940">
      <contour>
        <pt x="510" y="700" on="1"/>
        <pt x="687" y="700" on="1"/>
        <pt x="687" y="269" on="1"/>
        <pt x="687" y="149" on="0"/>
        <pt x="516" y="-6" on="0"/>
        <pt x="385" y="-6" on="1"/>
        <pt x="253" y="-6" on="0"/>
        <pt x="83" y="149" on="0"/>
        <pt x="83" y="269" on="1"/>
        <pt x="83" y="700" on="1"/>
        <pt x="264" y="700" on="1"/>
        <pt x="264" y="278" on="1"/>
        <pt x="264" y="223" on="0"/>
        <pt x="334" y="151" on="0"/>
        <pt x="385" y="151" on="1"/>
        <pt x="438" y="151" on="0"/>
        <pt x="510" y="223" on="0"/>
        <pt x="510" y="278" on="1"/>
      </contour>
      <contour>
        <pt x="351" y="851" on="1"/>
        <pt x="351" y="812" on="0"/>
        <pt x="303" y="763" on="0"/>
        <pt x="262" y="763" on="1"/>
        <pt x="219" y="763" on="0"/>
        <pt x="172" y="809" on="0"/>
        <pt x="172" y="851" on="1"/>
        <pt x="172" y="890" on="0"/>
        <pt x="220" y="940" on="0"/>
        <pt x="262" y="940" on="1"/>
        <pt x="305" y="940" on="0"/>
        <pt x="351" y="894" on="0"/>
      </contour>
      <contour>
        <pt x="601" y="851" on="1"/>
        <pt x="601" y="812" on="0"/>
        <pt x="552" y="763" on="0"/>
        <pt x="511" y="763" on="1"/>
        <pt x="468" y="763" on="0"/>
        <pt x="421" y="809" on="0"/>
        <pt x="421" y="851" on="1"/>
        <pt x="421" y="890" on="0"/>
        <pt x="470" y="940" on="0"/>
        <pt x="511" y="940" on="1"/>
        <pt x="554" y="940" on="0"/>
        <pt x="601" y="894" on="0"/>
      </contour>
    </TTGlyph>
    <TTGlyph name="Ugrave" xMin="83" yMin="-6" xMax="687" yMax="988">
      <contour>
        <pt x="510" y="700" on="1"/>
        <pt x="687" y="700" on="1"/>
        <pt x="687" y="269" on="1"/>
        <pt x="687" y="149" on="0"/>
        <pt x="516" y="-6" on="0"/>
        <pt x="385" y="-6" on="1"/>
        <pt x="253" y="-6" on="0"/>
        <pt x="83" y="149" on="0"/>
        <pt x="83" y="269" on="1"/>
        <pt x="83" y="700" on="1"/>
        <pt x="264" y="700" on="1"/>
        <pt x="264" y="278" on="1"/>
        <pt x="264" y="223" on="0"/>
        <pt x="334" y="151" on="0"/>
        <pt x="385" y="151" on="1"/>
        <pt x="438" y="151" on="0"/>
        <pt x="510" y="223" on="0"/>
        <pt x="510" y="278" on="1"/>
      </contour>
      <contour>
        <pt x="485" y="844" on="1"/>
        <pt x="434" y="765" on="1"/>
        <pt x="224" y="877" on="1"/>
        <pt x="301" y="988" on="1"/>
      </contour>
    </TTGlyph>
    <TTGlyph name="Uhorn" xMin="83" yMin="-6" xMax="831" yMax="827">
      <contour>
        <pt x="510" y="700" on="1"/>
        <pt x="687" y="700" on="1"/>
        <pt x="687" y="269" on="1"/>
        <pt x="687" y="149" on="0"/>
        <pt x="516" y="-6" on="0"/>
        <pt x="385" y="-6" on="1"/>
        <pt x="253" y="-6" on="0"/>
        <pt x="83" y="149" on="0"/>
        <pt x="83" y="269" on="1"/>
        <pt x="83" y="700" on="1"/>
        <pt x="264" y="700" on="1"/>
        <pt x="264" y="278" on="1"/>
        <pt x="264" y="223" on="0"/>
        <pt x="334" y="151" on="0"/>
        <pt x="385" y="151" on="1"/>
        <pt x="438" y="151" on="0"/>
        <pt x="510" y="223" on="0"/>
        <pt x="510" y="278" on="1"/>
      </contour>
      <contour>
        <pt x="610" y="591" on="1"/>
        <pt x="610" y="700" on="1"/>
        <pt x="655" y="700" on="0"/>
        <pt x="699" y="764" on="0"/>
        <pt x="699" y="827" on="1"/>
        <pt x="831" y="827" on="1"/>
        <pt x="831" y="724" on="0"/>
        <pt x="715" y="591" on="0"/>
      </contour>
    </TTGlyph>
    <TTGlyph name="Uhungarumlaut" xMin="83" yMin="-6" xMax="687" yMax="975">
      <contour>
        <pt x="510" y="700" on="1"/>
        <pt x="687" y="700" on="1"/>
        <pt x="687" y="269" on="1"/>
        <pt x="687" y="149" on="0"/>
        <pt x="516" y="-6" on="0"/>
        <pt x="385" y="-6" on="1"/>
        <pt x="253" y="-6" on="0"/>
        <pt x="83" y="149" on="0"/>
        <pt x="83" y="269" on="1"/>
        <pt x="83" y="700" on="1"/>
        <pt x="264" y="700" on="1"/>
        <pt x="264" y="278" on="1"/>
        <pt x="264" y="223" on="0"/>
        <pt x="334" y="151" on="0"/>
        <pt x="385" y="151" on="1"/>
        <pt x="438" y="151" on="0"/>
        <pt x="510" y="223" on="0"/>
        <pt x="510" y="278" on="1"/>
      </contour>
      <contour>
        <pt x="424" y="867" on="1"/>
        <pt x="214" y="755" on="1"/>
        <pt x="164" y="831" on="1"/>
        <pt x="349" y="975" on="1"/>
      </contour>
      <contour>
        <pt x="678" y="867" on="1"/>
        <pt x="468" y="755" on="1"/>
        <pt x="418" y="831" on="1"/>
        <pt x="603" y="975" on="1"/>
      </contour>
    </TTGlyph>
    <TTGlyph name="Umacron" xMin="83" yMin="-6" xMax="687" yMax="877">
      <contour>
        <pt x="510" y="700" on="1"/>
        <pt x="687" y="700" on="1"/>
        <pt x="687" y="269" on="1"/>
        <pt x="687" y="149" on="0"/>
        <pt x="516" y="-6" on="0"/>
        <pt x="385" y="-6" on="1"/>
        <pt x="253" y="-6" on="0"/>
        <pt x="83" y="149" on="0"/>
        <pt x="83" y="269" on="1"/>
        <pt x="83" y="700" on="1"/>
        <pt x="264" y="700" on="1"/>
        <pt x="264" y="278" on="1"/>
        <pt x="264" y="223" on="0"/>
        <pt x="334" y="151" on="0"/>
        <pt x="385" y="151" on="1"/>
        <pt x="438" y="151" on="0"/>
        <pt x="510" y="223" on="0"/>
        <pt x="510" y="278" on="1"/>
      </contour>
      <contour>
        <pt x="567" y="772" on="1"/>
        <pt x="204" y="772" on="1"/>
        <pt x="204" y="877" on="1"/>
        <pt x="567" y="877" on="1"/>
      </contour>
    </TTGlyph>
    <TTGlyph name="Uogonek" xMin="81" yMin="-208" xMax="685" yMax="700">
      <contour>
        <pt x="401" y="-11" on="1"/>
        <pt x="248" y="-11" on="0"/>
        <pt x="81" y="156" on="0"/>
        <pt x="81" y="269" on="1"/>
        <pt x="81" y="700" on="1"/>
        <pt x="262" y="700" on="1"/>
        <pt x="262" y="278" on="1"/>
        <pt x="262" y="222" on="0"/>
        <pt x="332" y="148" on="0"/>
        <pt x="383" y="148" on="1"/>
        <pt x="436" y="148" on="0"/>
        <pt x="508" y="222" on="0"/>
        <pt x="508" y="278" on="1"/>
        <pt x="508" y="700" on="1"/>
        <pt x="685" y="700" on="1"/>
        <pt x="685" y="269" on="1"/>
        <pt x="685" y="176" on="0"/>
        <pt x="579" y="40" on="0"/>
        <pt x="492" y="8" on="1"/>
        <pt x="462" y="-3" on="0"/>
        <pt x="427" y="-50" on="0"/>
        <pt x="427" y="-72" on="1"/>
        <pt x="427" y="-87" on="0"/>
        <pt x="442" y="-103" on="0"/>
        <pt x="457" y="-103" on="1"/>
        <pt x="467" y="-103" on="0"/>
        <pt x="481" y="-92" on="0"/>
        <pt x="489" y="-80" on="1"/>
        <pt x="555" y="-140" on="1"/>
        <pt x="541" y="-166" on="0"/>
        <pt x="477" y="-208" on="0"/>
        <pt x="438" y="-208" on="1"/>
        <pt x="386" y="-208" on="0"/>
        <pt x="316" y="-145" on="0"/>
        <pt x="316" y="-95" on="1"/>
        <pt x="316" y="-62" on="0"/>
        <pt x="353" y="-6" on="0"/>
        <pt x="402" y="29" on="1"/>
        <pt x="456" y="6" on="1"/>
        <pt x="445" y="-2" on="0"/>
        <pt x="417" y="-11" on="0"/>
      </contour>
    </TTGlyph>
    <TTGlyph name="Uring" xMin="83" yMin="-6" xMax="687" yMax="1020">
      <contour>
        <pt x="510" y="700" on="1"/>
        <pt x="687" y="700" on="1"/>
        <pt x="687" y="269" on="1"/>
        <pt x="687" y="149" on="0"/>
        <pt x="516" y="-6" on="0"/>
        <pt x="385" y="-6" on="1"/>
        <pt x="253" y="-6" on="0"/>
        <pt x="83" y="149" on="0"/>
        <pt x="83" y="269" on="1"/>
        <pt x="83" y="700" on="1"/>
        <pt x="264" y="700" on="1"/>
        <pt x="264" y="278" on="1"/>
        <pt x="264" y="223" on="0"/>
        <pt x="334" y="151" on="0"/>
        <pt x="385" y="151" on="1"/>
        <pt x="438" y="151" on="0"/>
        <pt x="510" y="223" on="0"/>
        <pt x="510" y="278" on="1"/>
      </contour>
      <contour>
        <pt x="521" y="887" on="1"/>
        <pt x="521" y="837" on="0"/>
        <pt x="440" y="762" on="0"/>
        <pt x="385" y="762" on="1"/>
        <pt x="331" y="762" on="0"/>
        <pt x="249" y="837" on="0"/>
        <pt x="249" y="887" on="1"/>
        <pt x="249" y="942" on="0"/>
        <pt x="330" y="1020" on="0"/>
        <pt x="385" y="1020" on="1"/>
        <pt x="440" y="1020" on="0"/>
        <pt x="521" y="942" on="0"/>
      </contour>
      <contour>
        <pt x="345" y="887" on="1"/>
        <pt x="345" y="871" on="0"/>
        <pt x="369" y="848" on="0"/>
        <pt x="385" y="848" on="1"/>
        <pt x="401" y="848" on="0"/>
        <pt x="425" y="871" on="0"/>
        <pt x="425" y="887" on="1"/>
        <pt x="425" y="905" on="0"/>
        <pt x="401" y="928" on="0"/>
        <pt x="385" y="928" on="1"/>
        <pt x="369" y="928" on="0"/>
        <pt x="345" y="905" on="0"/>
      </contour>
    </TTGlyph>
    <TTGlyph name="Utilde" xMin="83" yMin="-6" xMax="687" yMax="932">
      <contour>
        <pt x="510" y="700" on="1"/>
        <pt x="687" y="700" on="1"/>
        <pt x="687" y="269" on="1"/>
        <pt x="687" y="149" on="0"/>
        <pt x="516" y="-6" on="0"/>
        <pt x="385" y="-6" on="1"/>
        <pt x="253" y="-6" on="0"/>
        <pt x="83" y="149" on="0"/>
        <pt x="83" y="269" on="1"/>
        <pt x="83" y="700" on="1"/>
        <pt x="264" y="700" on="1"/>
        <pt x="264" y="278" on="1"/>
        <pt x="264" y="223" on="0"/>
        <pt x="334" y="151" on="0"/>
        <pt x="385" y="151" on="1"/>
        <pt x="438" y="151" on="0"/>
        <pt x="510" y="223" on="0"/>
        <pt x="510" y="278" on="1"/>
      </contour>
      <contour>
        <pt x="298" y="786" on="1"/>
        <pt x="195" y="786" on="1"/>
        <pt x="195" y="853" on="0"/>
        <pt x="262" y="932" on="0"/>
        <pt x="321" y="932" on="1"/>
        <pt x="336" y="932" on="0"/>
        <pt x="370" y="923" on="0"/>
        <pt x="402" y="909" on="1"/>
        <pt x="424" y="900" on="0"/>
        <pt x="443" y="892" on="0"/>
        <pt x="450" y="892" on="1"/>
        <pt x="463" y="892" on="0"/>
        <pt x="476" y="914" on="0"/>
        <pt x="475" y="932" on="1"/>
        <pt x="578" y="932" on="1"/>
        <pt x="578" y="869" on="0"/>
        <pt x="515" y="785" on="0"/>
        <pt x="466" y="785" on="1"/>
        <pt x="449" y="785" on="0"/>
        <pt x="410" y="795" on="0"/>
        <pt x="373" y="809" on="1"/>
        <pt x="350" y="818" on="0"/>
        <pt x="332" y="825" on="0"/>
        <pt x="325" y="825" on="1"/>
        <pt x="313" y="825" on="0"/>
        <pt x="298" y="804" on="0"/>
      </contour>
    </TTGlyph>
    <TTGlyph name="V" xMin="1" yMin="0" xMax="710" yMax="700">
      <contour>
        <pt x="281" y="0" on="1"/>
        <pt x="1" y="700" on="1"/>
        <pt x="186" y="700" on="1"/>
        <pt x="317" y="354" on="1"/>
        <pt x="340" y="292" on="0"/>
        <pt x="363" y="223" on="0"/>
        <pt x="376" y="169" on="1"/>
        <pt x="344" y="169" on="1"/>
        <pt x="357" y="223" on="0"/>
        <pt x="380" y="293" on="0"/>
        <pt x="403" y="354" on="1"/>
        <pt x="529" y="700" on="1"/>
        <pt x="710" y="700" on="1"/>
        <pt x="429" y="0" on="1"/>
      </contour>
    </TTGlyph>
    <TTGlyph name="W" xMin="1" yMin="0" xMax="991" yMax="700">
      <contour>
        <pt x="208" y="0" on="1"/>
        <pt x="1" y="700" on="1"/>
        <pt x="184" y="700" on="1"/>
        <pt x="283" y="343" on="1"/>
        <pt x="298" y="291" on="0"/>
        <pt x="312" y="191" on="0"/>
        <pt x="313" y="166" on="1"/>
        <pt x="293" y="166" on="1"/>
        <pt x="295" y="199" on="0"/>
        <pt x="310" y="292" on="0"/>
        <pt x="328" y="344" on="1"/>
        <pt x="428" y="614" on="1"/>
        <pt x="570" y="614" on="1"/>
        <pt x="669" y="344" on="1"/>
        <pt x="686" y="296" on="0"/>
        <pt x="701" y="222" on="0"/>
        <pt x="708" y="169" on="1"/>
        <pt x="689" y="167" on="1"/>
        <pt x="695" y="214" on="0"/>
        <pt x="701" y="295" on="0"/>
        <pt x="714" y="344" on="1"/>
        <pt x="813" y="700" on="1"/>
        <pt x="991" y="700" on="1"/>
        <pt x="782" y="0" on="1"/>
        <pt x="644" y="0" on="1"/>
        <pt x="481" y="397" on="1"/>
        <pt x="502" y="396" on="1"/>
        <pt x="353" y="0" on="1"/>
      </contour>
    </TTGlyph>
    <TTGlyph name="Wacute" xMin="1" yMin="0" xMax="991" yMax="987">
      <contour>
        <pt x="208" y="0" on="1"/>
        <pt x="1" y="700" on="1"/>
        <pt x="184" y="700" on="1"/>
        <pt x="283" y="343" on="1"/>
        <pt x="298" y="291" on="0"/>
        <pt x="312" y="191" on="0"/>
        <pt x="313" y="166" on="1"/>
        <pt x="293" y="166" on="1"/>
        <pt x="295" y="199" on="0"/>
        <pt x="310" y="292" on="0"/>
        <pt x="328" y="344" on="1"/>
        <pt x="428" y="614" on="1"/>
        <pt x="570" y="614" on="1"/>
        <pt x="669" y="344" on="1"/>
        <pt x="686" y="296" on="0"/>
        <pt x="701" y="222" on="0"/>
        <pt x="708" y="169" on="1"/>
        <pt x="689" y="167" on="1"/>
        <pt x="695" y="214" on="0"/>
        <pt x="701" y="295" on="0"/>
        <pt x="714" y="344" on="1"/>
        <pt x="813" y="700" on="1"/>
        <pt x="991" y="700" on="1"/>
        <pt x="782" y="0" on="1"/>
        <pt x="644" y="0" on="1"/>
        <pt x="481" y="397" on="1"/>
        <pt x="502" y="396" on="1"/>
        <pt x="353" y="0" on="1"/>
      </contour>
      <contour>
        <pt x="648" y="876" on="1"/>
        <pt x="438" y="763" on="1"/>
        <pt x="386" y="842" on="1"/>
        <pt x="571" y="987" on="1"/>
      </contour>
    </TTGlyph>
    <TTGlyph name="Wcircumflex" xMin="1" yMin="0" xMax="991" yMax="945">
      <contour>
        <pt x="208" y="0" on="1"/>
        <pt x="1" y="700" on="1"/>
        <pt x="184" y="700" on="1"/>
        <pt x="283" y="343" on="1"/>
        <pt x="298" y="291" on="0"/>
        <pt x="312" y="191" on="0"/>
        <pt x="313" y="166" on="1"/>
        <pt x="293" y="166" on="1"/>
        <pt x="295" y="199" on="0"/>
        <pt x="310" y="292" on="0"/>
        <pt x="328" y="344" on="1"/>
        <pt x="428" y="614" on="1"/>
        <pt x="570" y="614" on="1"/>
        <pt x="669" y="344" on="1"/>
        <pt x="686" y="296" on="0"/>
        <pt x="701" y="222" on="0"/>
        <pt x="708" y="169" on="1"/>
        <pt x="689" y="167" on="1"/>
        <pt x="695" y="214" on="0"/>
        <pt x="701" y="295" on="0"/>
        <pt x="714" y="344" on="1"/>
        <pt x="813" y="700" on="1"/>
        <pt x="991" y="700" on="1"/>
        <pt x="782" y="0" on="1"/>
        <pt x="644" y="0" on="1"/>
        <pt x="481" y="397" on="1"/>
        <pt x="502" y="396" on="1"/>
        <pt x="353" y="0" on="1"/>
      </contour>
      <contour>
        <pt x="628" y="767" on="1"/>
        <pt x="481" y="850" on="1"/>
        <pt x="511" y="850" on="1"/>
        <pt x="365" y="767" on="1"/>
        <pt x="307" y="824" on="1"/>
        <pt x="450" y="945" on="1"/>
        <pt x="542" y="945" on="1"/>
        <pt x="685" y="824" on="1"/>
      </contour>
    </TTGlyph>
    <TTGlyph name="Wdieresis" xMin="1" yMin="0" xMax="991" yMax="940">
      <contour>
        <pt x="208" y="0" on="1"/>
        <pt x="1" y="700" on="1"/>
        <pt x="184" y="700" on="1"/>
        <pt x="283" y="343" on="1"/>
        <pt x="298" y="291" on="0"/>
        <pt x="312" y="191" on="0"/>
        <pt x="313" y="166" on="1"/>
        <pt x="293" y="166" on="1"/>
        <pt x="295" y="199" on="0"/>
        <pt x="310" y="292" on="0"/>
        <pt x="328" y="344" on="1"/>
        <pt x="428" y="614" on="1"/>
        <pt x="570" y="614" on="1"/>
        <pt x="669" y="344" on="1"/>
        <pt x="686" y="296" on="0"/>
        <pt x="701" y="222" on="0"/>
        <pt x="708" y="169" on="1"/>
        <pt x="689" y="167" on="1"/>
        <pt x="695" y="214" on="0"/>
        <pt x="701" y="295" on="0"/>
        <pt x="714" y="344" on="1"/>
        <pt x="813" y="700" on="1"/>
        <pt x="991" y="700" on="1"/>
        <pt x="782" y="0" on="1"/>
        <pt x="644" y="0" on="1"/>
        <pt x="481" y="397" on="1"/>
        <pt x="502" y="396" on="1"/>
        <pt x="353" y="0" on="1"/>
      </contour>
      <contour>
        <pt x="461" y="851" on="1"/>
        <pt x="461" y="812" on="0"/>
        <pt x="413" y="763" on="0"/>
        <pt x="372" y="763" on="1"/>
        <pt x="329" y="763" on="0"/>
        <pt x="282" y="809" on="0"/>
        <pt x="282" y="851" on="1"/>
        <pt x="282" y="890" on="0"/>
        <pt x="330" y="940" on="0"/>
        <pt x="372" y="940" on="1"/>
        <pt x="415" y="940" on="0"/>
        <pt x="461" y="894" on="0"/>
      </contour>
      <contour>
        <pt x="711" y="851" on="1"/>
        <pt x="711" y="812" on="0"/>
        <pt x="662" y="763" on="0"/>
        <pt x="621" y="763" on="1"/>
        <pt x="578" y="763" on="0"/>
        <pt x="531" y="809" on="0"/>
        <pt x="531" y="851" on="1"/>
        <pt x="531" y="890" on="0"/>
        <pt x="580" y="940" on="0"/>
        <pt x="621" y="940" on="1"/>
        <pt x="664" y="940" on="0"/>
        <pt x="711" y="894" on="0"/>
      </contour>
    </TTGlyph>
    <TTGlyph name="Wgrave" xMin="1" yMin="0" xMax="991" yMax="988">
      <contour>
        <pt x="208" y="0" on="1"/>
        <pt x="1" y="700" on="1"/>
        <pt x="184" y="700" on="1"/>
        <pt x="283" y="343" on="1"/>
        <pt x="298" y="291" on="0"/>
        <pt x="312" y="191" on="0"/>
        <pt x="313" y="166" on="1"/>
        <pt x="293" y="166" on="1"/>
        <pt x="295" y="199" on="0"/>
        <pt x="310" y="292" on="0"/>
        <pt x="328" y="344" on="1"/>
        <pt x="428" y="614" on="1"/>
        <pt x="570" y="614" on="1"/>
        <pt x="669" y="344" on="1"/>
        <pt x="686" y="296" on="0"/>
        <pt x="701" y="222" on="0"/>
        <pt x="708" y="169" on="1"/>
        <pt x="689" y="167" on="1"/>
        <pt x="695" y="214" on="0"/>
        <pt x="701" y="295" on="0"/>
        <pt x="714" y="344" on="1"/>
        <pt x="813" y="700" on="1"/>
        <pt x="991" y="700" on="1"/>
        <pt x="782" y="0" on="1"/>
        <pt x="644" y="0" on="1"/>
        <pt x="481" y="397" on="1"/>
        <pt x="502" y="396" on="1"/>
        <pt x="353" y="0" on="1"/>
      </contour>
      <contour>
        <pt x="614" y="844" on="1"/>
        <pt x="563" y="765" on="1"/>
        <pt x="353" y="877" on="1"/>
        <pt x="430" y="988" on="1"/>
      </contour>
    </TTGlyph>
    <TTGlyph name="X" xMin="-5" yMin="0" xMax="713" yMax="700">
      <contour>
        <pt x="495" y="700" on="1"/>
        <pt x="703" y="700" on="1"/>
        <pt x="446" y="325" on="1"/>
        <pt x="299" y="401" on="1"/>
      </contour>
      <contour>
        <pt x="0" y="700" on="1"/>
        <pt x="218" y="700" on="1"/>
        <pt x="430" y="390" on="1"/>
        <pt x="713" y="0" on="1"/>
        <pt x="495" y="0" on="1"/>
        <pt x="278" y="314" on="1"/>
      </contour>
      <contour>
        <pt x="203" y="0" on="1"/>
        <pt x="-5" y="0" on="1"/>
        <pt x="262" y="381" on="1"/>
        <pt x="410" y="302" on="1"/>
      </contour>
    </TTGlyph>
    <TTGlyph name="Y" xMin="-10" yMin="0" xMax="703" yMax="700">
      <contour>
        <pt x="506" y="700" on="1"/>
        <pt x="703" y="700" on="1"/>
        <pt x="432" y="289" on="1"/>
        <pt x="447" y="357" on="1"/>
        <pt x="447" y="0" on="1"/>
        <pt x="266" y="0" on="1"/>
        <pt x="266" y="349" on="1"/>
        <pt x="273" y="300" on="1"/>
        <pt x="-10" y="700" on="1"/>
        <pt x="193" y="700" on="1"/>
        <pt x="409" y="390" on="1"/>
        <pt x="311" y="393" on="1"/>
      </contour>
    </TTGlyph>
    <TTGlyph name="Yacute" xMin="-10" yMin="0" xMax="703" yMax="987">
      <contour>
        <pt x="506" y="700" on="1"/>
        <pt x="703" y="700" on="1"/>
        <pt x="432" y="289" on="1"/>
        <pt x="447" y="357" on="1"/>
        <pt x="447" y="0" on="1"/>
        <pt x="266" y="0" on="1"/>
        <pt x="266" y="349" on="1"/>
        <pt x="273" y="300" on="1"/>
        <pt x="-10" y="700" on="1"/>
        <pt x="193" y="700" on="1"/>
        <pt x="409" y="390" on="1"/>
        <pt x="311" y="393" on="1"/>
      </contour>
      <contour>
        <pt x="527" y="876" on="1"/>
        <pt x="317" y="763" on="1"/>
        <pt x="266" y="842" on="1"/>
        <pt x="450" y="987" on="1"/>
      </contour>
    </TTGlyph>
    <TTGlyph name="Ycircumflex" xMin="-10" yMin="0" xMax="703" yMax="945">
      <contour>
        <pt x="506" y="700" on="1"/>
        <pt x="703" y="700" on="1"/>
        <pt x="432" y="289" on="1"/>
        <pt x="447" y="357" on="1"/>
        <pt x="447" y="0" on="1"/>
        <pt x="266" y="0" on="1"/>
        <pt x="266" y="349" on="1"/>
        <pt x="273" y="300" on="1"/>
        <pt x="-10" y="700" on="1"/>
        <pt x="193" y="700" on="1"/>
        <pt x="409" y="390" on="1"/>
        <pt x="311" y="393" on="1"/>
      </contour>
      <contour>
        <pt x="479" y="767" on="1"/>
        <pt x="333" y="850" on="1"/>
        <pt x="362" y="850" on="1"/>
        <pt x="216" y="767" on="1"/>
        <pt x="158" y="824" on="1"/>
        <pt x="301" y="945" on="1"/>
        <pt x="394" y="945" on="1"/>
        <pt x="537" y="824" on="1"/>
      </contour>
    </TTGlyph>
    <TTGlyph name="Ydieresis" xMin="-10" yMin="0" xMax="703" yMax="940">
      <contour>
        <pt x="506" y="700" on="1"/>
        <pt x="703" y="700" on="1"/>
        <pt x="432" y="289" on="1"/>
        <pt x="447" y="357" on="1"/>
        <pt x="447" y="0" on="1"/>
        <pt x="266" y="0" on="1"/>
        <pt x="266" y="349" on="1"/>
        <pt x="273" y="300" on="1"/>
        <pt x="-10" y="700" on="1"/>
        <pt x="193" y="700" on="1"/>
        <pt x="409" y="390" on="1"/>
        <pt x="311" y="393" on="1"/>
      </contour>
      <contour>
        <pt x="313" y="851" on="1"/>
        <pt x="313" y="812" on="0"/>
        <pt x="264" y="763" on="0"/>
        <pt x="223" y="763" on="1"/>
        <pt x="180" y="763" on="0"/>
        <pt x="133" y="809" on="0"/>
        <pt x="133" y="851" on="1"/>
        <pt x="133" y="890" on="0"/>
        <pt x="182" y="940" on="0"/>
        <pt x="223" y="940" on="1"/>
        <pt x="266" y="940" on="0"/>
        <pt x="313" y="894" on="0"/>
      </contour>
      <contour>
        <pt x="562" y="851" on="1"/>
        <pt x="562" y="812" on="0"/>
        <pt x="514" y="763" on="0"/>
        <pt x="472" y="763" on="1"/>
        <pt x="429" y="763" on="0"/>
        <pt x="383" y="809" on="0"/>
        <pt x="383" y="851" on="1"/>
        <pt x="383" y="890" on="0"/>
        <pt x="431" y="940" on="0"/>
        <pt x="472" y="940" on="1"/>
        <pt x="515" y="940" on="0"/>
        <pt x="562" y="894" on="0"/>
      </contour>
    </TTGlyph>
    <TTGlyph name="Ygrave" xMin="-10" yMin="0" xMax="703" yMax="988">
      <contour>
        <pt x="506" y="700" on="1"/>
        <pt x="703" y="700" on="1"/>
        <pt x="432" y="289" on="1"/>
        <pt x="447" y="357" on="1"/>
        <pt x="447" y="0" on="1"/>
        <pt x="266" y="0" on="1"/>
        <pt x="266" y="349" on="1"/>
        <pt x="273" y="300" on="1"/>
        <pt x="-10" y="700" on="1"/>
        <pt x="193" y="700" on="1"/>
        <pt x="409" y="390" on="1"/>
        <pt x="311" y="393" on="1"/>
      </contour>
      <contour>
        <pt x="431" y="844" on="1"/>
        <pt x="380" y="765" on="1"/>
        <pt x="170" y="877" on="1"/>
        <pt x="247" y="988" on="1"/>
      </contour>
    </TTGlyph>
    <TTGlyph name="Z" xMin="60" yMin="0" xMax="629" yMax="700">
      <contour>
        <pt x="86" y="700" on="1"/>
        <pt x="618" y="700" on="1"/>
        <pt x="618" y="582" on="1"/>
        <pt x="247" y="87" on="1"/>
        <pt x="180" y="156" on="1"/>
        <pt x="629" y="156" on="1"/>
        <pt x="629" y="0" on="1"/>
        <pt x="60" y="0" on="1"/>
        <pt x="60" y="119" on="1"/>
        <pt x="432" y="613" on="1"/>
        <pt x="499" y="536" on="1"/>
        <pt x="86" y="536" on="1"/>
      </contour>
    </TTGlyph>
    <TTGlyph name="Zacute" xMin="60" yMin="0" xMax="629" yMax="987">
      <contour>
        <pt x="86" y="700" on="1"/>
        <pt x="618" y="700" on="1"/>
        <pt x="618" y="582" on="1"/>
        <pt x="247" y="87" on="1"/>
        <pt x="180" y="156" on="1"/>
        <pt x="629" y="156" on="1"/>
        <pt x="629" y="0" on="1"/>
        <pt x="60" y="0" on="1"/>
        <pt x="60" y="119" on="1"/>
        <pt x="432" y="613" on="1"/>
        <pt x="499" y="536" on="1"/>
        <pt x="86" y="536" on="1"/>
      </contour>
      <contour>
        <pt x="518" y="876" on="1"/>
        <pt x="308" y="763" on="1"/>
        <pt x="257" y="842" on="1"/>
        <pt x="441" y="987" on="1"/>
      </contour>
    </TTGlyph>
    <TTGlyph name="Zcaron" xMin="60" yMin="0" xMax="629" yMax="950">
      <contour>
        <pt x="86" y="700" on="1"/>
        <pt x="618" y="700" on="1"/>
        <pt x="618" y="582" on="1"/>
        <pt x="247" y="87" on="1"/>
        <pt x="180" y="156" on="1"/>
        <pt x="629" y="156" on="1"/>
        <pt x="629" y="0" on="1"/>
        <pt x="60" y="0" on="1"/>
        <pt x="60" y="119" on="1"/>
        <pt x="432" y="613" on="1"/>
        <pt x="499" y="536" on="1"/>
        <pt x="86" y="536" on="1"/>
      </contour>
      <contour>
        <pt x="479" y="950" on="1"/>
        <pt x="327" y="862" on="1"/>
        <pt x="357" y="862" on="1"/>
        <pt x="206" y="950" on="1"/>
        <pt x="145" y="898" on="1"/>
        <pt x="294" y="765" on="1"/>
        <pt x="391" y="765" on="1"/>
        <pt x="540" y="898" on="1"/>
      </contour>
    </TTGlyph>
    <TTGlyph name="Zdotaccent" xMin="60" yMin="0" xMax="629" yMax="938">
      <contour>
        <pt x="86" y="700" on="1"/>
        <pt x="618" y="700" on="1"/>
        <pt x="618" y="582" on="1"/>
        <pt x="247" y="87" on="1"/>
        <pt x="180" y="156" on="1"/>
        <pt x="629" y="156" on="1"/>
        <pt x="629" y="0" on="1"/>
        <pt x="60" y="0" on="1"/>
        <pt x="60" y="119" on="1"/>
        <pt x="432" y="613" on="1"/>
        <pt x="499" y="536" on="1"/>
        <pt x="86" y="536" on="1"/>
      </contour>
      <contour>
        <pt x="444" y="852" on="1"/>
        <pt x="444" y="814" on="0"/>
        <pt x="390" y="766" on="0"/>
        <pt x="344" y="766" on="1"/>
        <pt x="297" y="766" on="0"/>
        <pt x="244" y="811" on="0"/>
        <pt x="244" y="852" on="1"/>
        <pt x="244" y="890" on="0"/>
        <pt x="298" y="938" on="0"/>
        <pt x="344" y="938" on="1"/>
        <pt x="391" y="938" on="0"/>
        <pt x="444" y="893" on="0"/>
      </contour>
    </TTGlyph>
    <TTGlyph name="_connection" xMin="-30" yMin="0" xMax="90" yMax="102">
      <contour>
        <pt x="-30" y="0" on="1"/>
        <pt x="-30" y="102" on="1"/>
        <pt x="90" y="102" on="1"/>
        <pt x="90" y="0" on="1"/>
      </contour>
    </TTGlyph>
    <TTGlyph name="_connection.round" xMin="-79" yMin="0" xMax="120" yMax="149">
      <contour>
        <pt x="-79" y="102" on="1"/>
        <pt x="-31" y="149" on="1"/>
        <pt x="-5" y="124" on="0"/>
        <pt x="65" y="102" on="0"/>
        <pt x="120" y="102" on="1"/>
        <pt x="120" y="0" on="1"/>
        <pt x="54" y="0" on="0"/>
        <pt x="-49" y="52" on="0"/>
      </contour>
    </TTGlyph>
    <TTGlyph name="_guide" xMin="72" yMin="0" xMax="1213" yMax="536">
      <contour>
        <pt x="963" y="536" on="1"/>
        <pt x="1078" y="536" on="0"/>
        <pt x="1213" y="412" on="0"/>
        <pt x="1213" y="310" on="1"/>
        <pt x="1213" y="0" on="1"/>
        <pt x="1110" y="0" on="1"/>
        <pt x="1110" y="293" on="1"/>
        <pt x="1110" y="356" on="0"/>
        <pt x="1012" y="440" on="0"/>
        <pt x="939" y="440" on="1"/>
        <pt x="861" y="440" on="0"/>
        <pt x="741" y="336" on="0"/>
        <pt x="741" y="278" on="1"/>
        <pt x="741" y="0" on="1"/>
        <pt x="715" y="0" on="0"/>
        <pt x="664" y="0" on="0"/>
        <pt x="638" y="0" on="1"/>
        <pt x="638" y="525" on="1"/>
        <pt x="741" y="525" on="1"/>
        <pt x="741" y="377" on="1"/>
        <pt x="703" y="375" on="1"/>
        <pt x="748" y="450" on="0"/>
        <pt x="884" y="536" on="0"/>
      </contour>
      <contour>
        <pt x="347" y="536" on="1"/>
        <pt x="437" y="536" on="0"/>
        <pt x="527" y="429" on="0"/>
        <pt x="527" y="320" on="1"/>
        <pt x="527" y="0" on="1"/>
        <pt x="424" y="0" on="1"/>
        <pt x="424" y="313" on="1"/>
        <pt x="424" y="381" on="0"/>
        <pt x="369" y="445" on="0"/>
        <pt x="313" y="442" on="1"/>
        <pt x="254" y="442" on="0"/>
        <pt x="175" y="370" on="0"/>
        <pt x="175" y="318" on="1"/>
        <pt x="175" y="0" on="1"/>
        <pt x="149" y="0" on="0"/>
        <pt x="98" y="0" on="0"/>
        <pt x="72" y="0" on="1"/>
        <pt x="72" y="525" on="1"/>
        <pt x="175" y="525" on="1"/>
        <pt x="175" y="417" on="1"/>
        <pt x="157" y="405" on="1"/>
        <pt x="172" y="457" on="0"/>
        <pt x="284" y="536" on="0"/>
      </contour>
    </TTGlyph>
    <TTGlyph name="_spacingBehDotless" xMin="0" yMin="0" xMax="161" yMax="221">
      <contour>
        <pt x="0" y="0" on="1"/>
        <pt x="0" y="221" on="1"/>
        <pt x="161" y="221" on="1"/>
        <pt x="161" y="0" on="1"/>
      </contour>
    </TTGlyph>
    <TTGlyph name="_spacingDal" xMin="0" yMin="0" xMax="161" yMax="221">
      <contour>
        <pt x="0" y="0" on="1"/>
        <pt x="0" y="221" on="1"/>
        <pt x="161" y="221" on="1"/>
        <pt x="161" y="0" on="1"/>
      </contour>
    </TTGlyph>
    <TTGlyph name="a" xMin="33" yMin="-9" xMax="593" yMax="543">
      <contour>
        <pt x="426" y="532" on="1"/>
        <pt x="593" y="532" on="1"/>
        <pt x="593" y="0" on="1"/>
        <pt x="422" y="0" on="1"/>
        <pt x="422" y="129" on="1"/>
        <pt x="460" y="129" on="1"/>
        <pt x="442" y="72" on="0"/>
        <pt x="339" y="-9" on="0"/>
        <pt x="265" y="-9" on="1"/>
        <pt x="166" y="-9" on="0"/>
        <pt x="33" y="147" on="0"/>
        <pt x="33" y="267" on="1"/>
        <pt x="33" y="388" on="0"/>
        <pt x="166" y="543" on="0"/>
        <pt x="270" y="543" on="1"/>
        <pt x="345" y="543" on="0"/>
        <pt x="442" y="462" on="0"/>
        <pt x="461" y="404" on="1"/>
        <pt x="426" y="408" on="1"/>
      </contour>
      <contour>
        <pt x="200" y="267" on="1"/>
        <pt x="200" y="205" on="0"/>
        <pt x="261" y="132" on="0"/>
        <pt x="313" y="132" on="1"/>
        <pt x="366" y="132" on="0"/>
        <pt x="427" y="205" on="0"/>
        <pt x="427" y="267" on="1"/>
        <pt x="427" y="328" on="0"/>
        <pt x="366" y="401" on="0"/>
        <pt x="313" y="401" on="1"/>
        <pt x="261" y="401" on="0"/>
        <pt x="200" y="328" on="0"/>
      </contour>
    </TTGlyph>
    <TTGlyph name="a.ss01" xMin="36" yMin="-10" xMax="516" yMax="543">
      <contour>
        <pt x="293" y="543" on="1"/>
        <pt x="394" y="543" on="0"/>
        <pt x="516" y="451" on="0"/>
        <pt x="516" y="356" on="1"/>
        <pt x="516" y="0" on="1"/>
        <pt x="351" y="0" on="1"/>
        <pt x="351" y="324" on="1"/>
        <pt x="351" y="365" on="0"/>
        <pt x="308" y="402" on="0"/>
        <pt x="267" y="402" on="1"/>
        <pt x="230" y="402" on="0"/>
        <pt x="170" y="374" on="0"/>
        <pt x="141" y="341" on="1"/>
        <pt x="42" y="438" on="1"/>
        <pt x="91" y="485" on="0"/>
        <pt x="216" y="543" on="0"/>
      </contour>
      <contour>
        <pt x="272" y="312" on="1"/>
        <pt x="438" y="312" on="1"/>
        <pt x="429" y="210" on="1"/>
        <pt x="279" y="210" on="1"/>
        <pt x="241" y="210" on="0"/>
        <pt x="200" y="183" on="0"/>
        <pt x="200" y="158" on="1"/>
        <pt x="200" y="137" on="0"/>
        <pt x="232" y="111" on="0"/>
        <pt x="258" y="111" on="1"/>
        <pt x="295" y="111" on="0"/>
        <pt x="357" y="147" on="0"/>
        <pt x="373" y="178" on="1"/>
        <pt x="401" y="107" on="1"/>
        <pt x="370" y="56" on="0"/>
        <pt x="270" y="-10" on="0"/>
        <pt x="214" y="-10" on="1"/>
        <pt x="138" y="-10" on="0"/>
        <pt x="36" y="77" on="0"/>
        <pt x="36" y="149" on="1"/>
        <pt x="36" y="230" on="0"/>
        <pt x="155" y="312" on="0"/>
      </contour>
    </TTGlyph>
    <TTGlyph name="aabreve.ss01" xMin="36" yMin="-10" xMax="516" yMax="788">
      <contour>
        <pt x="293" y="543" on="1"/>
        <pt x="394" y="543" on="0"/>
        <pt x="516" y="451" on="0"/>
        <pt x="516" y="356" on="1"/>
        <pt x="516" y="0" on="1"/>
        <pt x="351" y="0" on="1"/>
        <pt x="351" y="324" on="1"/>
        <pt x="351" y="365" on="0"/>
        <pt x="308" y="402" on="0"/>
        <pt x="267" y="402" on="1"/>
        <pt x="230" y="402" on="0"/>
        <pt x="170" y="374" on="0"/>
        <pt x="141" y="341" on="1"/>
        <pt x="42" y="438" on="1"/>
        <pt x="91" y="485" on="0"/>
        <pt x="216" y="543" on="0"/>
      </contour>
      <contour>
        <pt x="272" y="312" on="1"/>
        <pt x="438" y="312" on="1"/>
        <pt x="429" y="210" on="1"/>
        <pt x="279" y="210" on="1"/>
        <pt x="241" y="210" on="0"/>
        <pt x="200" y="183" on="0"/>
        <pt x="200" y="158" on="1"/>
        <pt x="200" y="137" on="0"/>
        <pt x="232" y="111" on="0"/>
        <pt x="258" y="111" on="1"/>
        <pt x="295" y="111" on="0"/>
        <pt x="357" y="147" on="0"/>
        <pt x="373" y="178" on="1"/>
        <pt x="401" y="107" on="1"/>
        <pt x="370" y="56" on="0"/>
        <pt x="270" y="-10" on="0"/>
        <pt x="214" y="-10" on="1"/>
        <pt x="138" y="-10" on="0"/>
        <pt x="36" y="77" on="0"/>
        <pt x="36" y="149" on="1"/>
        <pt x="36" y="230" on="0"/>
        <pt x="155" y="312" on="0"/>
      </contour>
      <contour>
        <pt x="289" y="615" on="1"/>
        <pt x="220" y="615" on="0"/>
        <pt x="122" y="701" on="0"/>
        <pt x="107" y="776" on="1"/>
        <pt x="214" y="788" on="1"/>
        <pt x="225" y="757" on="0"/>
        <pt x="266" y="723" on="0"/>
        <pt x="289" y="723" on="1"/>
        <pt x="312" y="723" on="0"/>
        <pt x="353" y="757" on="0"/>
        <pt x="364" y="788" on="1"/>
        <pt x="471" y="776" on="1"/>
        <pt x="456" y="701" on="0"/>
        <pt x="358" y="615" on="0"/>
      </contour>
    </TTGlyph>
    <TTGlyph name="aacute" xMin="33" yMin="-9" xMax="593" yMax="841">
      <contour>
        <pt x="426" y="532" on="1"/>
        <pt x="593" y="532" on="1"/>
        <pt x="593" y="0" on="1"/>
        <pt x="422" y="0" on="1"/>
        <pt x="422" y="129" on="1"/>
        <pt x="460" y="129" on="1"/>
        <pt x="442" y="72" on="0"/>
        <pt x="339" y="-9" on="0"/>
        <pt x="265" y="-9" on="1"/>
        <pt x="166" y="-9" on="0"/>
        <pt x="33" y="147" on="0"/>
        <pt x="33" y="267" on="1"/>
        <pt x="33" y="388" on="0"/>
        <pt x="166" y="543" on="0"/>
        <pt x="270" y="543" on="1"/>
        <pt x="345" y="543" on="0"/>
        <pt x="442" y="462" on="0"/>
        <pt x="461" y="404" on="1"/>
        <pt x="426" y="408" on="1"/>
      </contour>
      <contour>
        <pt x="200" y="267" on="1"/>
        <pt x="200" y="205" on="0"/>
        <pt x="261" y="132" on="0"/>
        <pt x="313" y="132" on="1"/>
        <pt x="366" y="132" on="0"/>
        <pt x="427" y="205" on="0"/>
        <pt x="427" y="267" on="1"/>
        <pt x="427" y="328" on="0"/>
        <pt x="366" y="401" on="0"/>
        <pt x="313" y="401" on="1"/>
        <pt x="261" y="401" on="0"/>
        <pt x="200" y="328" on="0"/>
      </contour>
      <contour>
        <pt x="492" y="733" on="1"/>
        <pt x="282" y="620" on="1"/>
        <pt x="232" y="697" on="1"/>
        <pt x="417" y="841" on="1"/>
      </contour>
    </TTGlyph>
    <TTGlyph name="aacute.ss01" xMin="36" yMin="-10" xMax="516" yMax="841">
      <contour>
        <pt x="293" y="543" on="1"/>
        <pt x="394" y="543" on="0"/>
        <pt x="516" y="451" on="0"/>
        <pt x="516" y="356" on="1"/>
        <pt x="516" y="0" on="1"/>
        <pt x="351" y="0" on="1"/>
        <pt x="351" y="324" on="1"/>
        <pt x="351" y="365" on="0"/>
        <pt x="308" y="402" on="0"/>
        <pt x="267" y="402" on="1"/>
        <pt x="230" y="402" on="0"/>
        <pt x="170" y="374" on="0"/>
        <pt x="141" y="341" on="1"/>
        <pt x="42" y="438" on="1"/>
        <pt x="91" y="485" on="0"/>
        <pt x="216" y="543" on="0"/>
      </contour>
      <contour>
        <pt x="272" y="312" on="1"/>
        <pt x="438" y="312" on="1"/>
        <pt x="429" y="210" on="1"/>
        <pt x="279" y="210" on="1"/>
        <pt x="241" y="210" on="0"/>
        <pt x="200" y="183" on="0"/>
        <pt x="200" y="158" on="1"/>
        <pt x="200" y="137" on="0"/>
        <pt x="232" y="111" on="0"/>
        <pt x="258" y="111" on="1"/>
        <pt x="295" y="111" on="0"/>
        <pt x="357" y="147" on="0"/>
        <pt x="373" y="178" on="1"/>
        <pt x="401" y="107" on="1"/>
        <pt x="370" y="56" on="0"/>
        <pt x="270" y="-10" on="0"/>
        <pt x="214" y="-10" on="1"/>
        <pt x="138" y="-10" on="0"/>
        <pt x="36" y="77" on="0"/>
        <pt x="36" y="149" on="1"/>
        <pt x="36" y="230" on="0"/>
        <pt x="155" y="312" on="0"/>
      </contour>
      <contour>
        <pt x="445" y="733" on="1"/>
        <pt x="235" y="620" on="1"/>
        <pt x="185" y="697" on="1"/>
        <pt x="370" y="841" on="1"/>
      </contour>
    </TTGlyph>
    <TTGlyph name="abreve" xMin="33" yMin="-9" xMax="593" yMax="794">
      <contour>
        <pt x="426" y="532" on="1"/>
        <pt x="593" y="532" on="1"/>
        <pt x="593" y="0" on="1"/>
        <pt x="422" y="0" on="1"/>
        <pt x="422" y="129" on="1"/>
        <pt x="460" y="129" on="1"/>
        <pt x="442" y="72" on="0"/>
        <pt x="339" y="-9" on="0"/>
        <pt x="265" y="-9" on="1"/>
        <pt x="166" y="-9" on="0"/>
        <pt x="33" y="147" on="0"/>
        <pt x="33" y="267" on="1"/>
        <pt x="33" y="388" on="0"/>
        <pt x="166" y="543" on="0"/>
        <pt x="270" y="543" on="1"/>
        <pt x="345" y="543" on="0"/>
        <pt x="442" y="462" on="0"/>
        <pt x="461" y="404" on="1"/>
        <pt x="426" y="408" on="1"/>
      </contour>
      <contour>
        <pt x="200" y="267" on="1"/>
        <pt x="200" y="205" on="0"/>
        <pt x="261" y="132" on="0"/>
        <pt x="313" y="132" on="1"/>
        <pt x="366" y="132" on="0"/>
        <pt x="427" y="205" on="0"/>
        <pt x="427" y="267" on="1"/>
        <pt x="427" y="328" on="0"/>
        <pt x="366" y="401" on="0"/>
        <pt x="313" y="401" on="1"/>
        <pt x="261" y="401" on="0"/>
        <pt x="200" y="328" on="0"/>
      </contour>
      <contour>
        <pt x="327" y="621" on="1"/>
        <pt x="258" y="621" on="0"/>
        <pt x="160" y="707" on="0"/>
        <pt x="145" y="782" on="1"/>
        <pt x="253" y="794" on="1"/>
        <pt x="263" y="764" on="0"/>
        <pt x="304" y="729" on="0"/>
        <pt x="327" y="729" on="1"/>
        <pt x="350" y="729" on="0"/>
        <pt x="392" y="764" on="0"/>
        <pt x="402" y="794" on="1"/>
        <pt x="509" y="782" on="1"/>
        <pt x="495" y="707" on="0"/>
        <pt x="396" y="621" on="0"/>
      </contour>
    </TTGlyph>
    <TTGlyph name="abreve.ss01" xMin="36" yMin="-10" xMax="516" yMax="794">
      <contour>
        <pt x="293" y="543" on="1"/>
        <pt x="394" y="543" on="0"/>
        <pt x="516" y="451" on="0"/>
        <pt x="516" y="356" on="1"/>
        <pt x="516" y="0" on="1"/>
        <pt x="351" y="0" on="1"/>
        <pt x="351" y="324" on="1"/>
        <pt x="351" y="365" on="0"/>
        <pt x="308" y="402" on="0"/>
        <pt x="267" y="402" on="1"/>
        <pt x="230" y="402" on="0"/>
        <pt x="170" y="374" on="0"/>
        <pt x="141" y="341" on="1"/>
        <pt x="42" y="438" on="1"/>
        <pt x="91" y="485" on="0"/>
        <pt x="216" y="543" on="0"/>
      </contour>
      <contour>
        <pt x="272" y="312" on="1"/>
        <pt x="438" y="312" on="1"/>
        <pt x="429" y="210" on="1"/>
        <pt x="279" y="210" on="1"/>
        <pt x="241" y="210" on="0"/>
        <pt x="200" y="183" on="0"/>
        <pt x="200" y="158" on="1"/>
        <pt x="200" y="137" on="0"/>
        <pt x="232" y="111" on="0"/>
        <pt x="258" y="111" on="1"/>
        <pt x="295" y="111" on="0"/>
        <pt x="357" y="147" on="0"/>
        <pt x="373" y="178" on="1"/>
        <pt x="401" y="107" on="1"/>
        <pt x="370" y="56" on="0"/>
        <pt x="270" y="-10" on="0"/>
        <pt x="214" y="-10" on="1"/>
        <pt x="138" y="-10" on="0"/>
        <pt x="36" y="77" on="0"/>
        <pt x="36" y="149" on="1"/>
        <pt x="36" y="230" on="0"/>
        <pt x="155" y="312" on="0"/>
      </contour>
      <contour>
        <pt x="293" y="621" on="1"/>
        <pt x="224" y="621" on="0"/>
        <pt x="125" y="707" on="0"/>
        <pt x="111" y="782" on="1"/>
        <pt x="218" y="794" on="1"/>
        <pt x="228" y="764" on="0"/>
        <pt x="270" y="729" on="0"/>
        <pt x="293" y="729" on="1"/>
        <pt x="316" y="729" on="0"/>
        <pt x="357" y="764" on="0"/>
        <pt x="367" y="794" on="1"/>
        <pt x="475" y="782" on="1"/>
        <pt x="460" y="707" on="0"/>
        <pt x="362" y="621" on="0"/>
      </contour>
    </TTGlyph>
    <TTGlyph name="acircumflex" xMin="33" yMin="-9" xMax="593" yMax="806">
      <contour>
        <pt x="426" y="532" on="1"/>
        <pt x="593" y="532" on="1"/>
        <pt x="593" y="0" on="1"/>
        <pt x="422" y="0" on="1"/>
        <pt x="422" y="129" on="1"/>
        <pt x="460" y="129" on="1"/>
        <pt x="442" y="72" on="0"/>
        <pt x="339" y="-9" on="0"/>
        <pt x="265" y="-9" on="1"/>
        <pt x="166" y="-9" on="0"/>
        <pt x="33" y="147" on="0"/>
        <pt x="33" y="267" on="1"/>
        <pt x="33" y="388" on="0"/>
        <pt x="166" y="543" on="0"/>
        <pt x="270" y="543" on="1"/>
        <pt x="345" y="543" on="0"/>
        <pt x="442" y="462" on="0"/>
        <pt x="461" y="404" on="1"/>
        <pt x="426" y="408" on="1"/>
      </contour>
      <contour>
        <pt x="200" y="267" on="1"/>
        <pt x="200" y="205" on="0"/>
        <pt x="261" y="132" on="0"/>
        <pt x="313" y="132" on="1"/>
        <pt x="366" y="132" on="0"/>
        <pt x="427" y="205" on="0"/>
        <pt x="427" y="267" on="1"/>
        <pt x="427" y="328" on="0"/>
        <pt x="366" y="401" on="0"/>
        <pt x="313" y="401" on="1"/>
        <pt x="261" y="401" on="0"/>
        <pt x="200" y="328" on="0"/>
      </contour>
      <contour>
        <pt x="466" y="621" on="1"/>
        <pt x="314" y="709" on="1"/>
        <pt x="344" y="709" on="1"/>
        <pt x="193" y="621" on="1"/>
        <pt x="132" y="673" on="1"/>
        <pt x="281" y="806" on="1"/>
        <pt x="378" y="806" on="1"/>
        <pt x="527" y="673" on="1"/>
      </contour>
    </TTGlyph>
    <TTGlyph name="acircumflex.ss01" xMin="36" yMin="-10" xMax="516" yMax="806">
      <contour>
        <pt x="293" y="543" on="1"/>
        <pt x="394" y="543" on="0"/>
        <pt x="516" y="451" on="0"/>
        <pt x="516" y="356" on="1"/>
        <pt x="516" y="0" on="1"/>
        <pt x="351" y="0" on="1"/>
        <pt x="351" y="324" on="1"/>
        <pt x="351" y="365" on="0"/>
        <pt x="308" y="402" on="0"/>
        <pt x="267" y="402" on="1"/>
        <pt x="230" y="402" on="0"/>
        <pt x="170" y="374" on="0"/>
        <pt x="141" y="341" on="1"/>
        <pt x="42" y="438" on="1"/>
        <pt x="91" y="485" on="0"/>
        <pt x="216" y="543" on="0"/>
      </contour>
      <contour>
        <pt x="272" y="312" on="1"/>
        <pt x="438" y="312" on="1"/>
        <pt x="429" y="210" on="1"/>
        <pt x="279" y="210" on="1"/>
        <pt x="241" y="210" on="0"/>
        <pt x="200" y="183" on="0"/>
        <pt x="200" y="158" on="1"/>
        <pt x="200" y="137" on="0"/>
        <pt x="232" y="111" on="0"/>
        <pt x="258" y="111" on="1"/>
        <pt x="295" y="111" on="0"/>
        <pt x="357" y="147" on="0"/>
        <pt x="373" y="178" on="1"/>
        <pt x="401" y="107" on="1"/>
        <pt x="370" y="56" on="0"/>
        <pt x="270" y="-10" on="0"/>
        <pt x="214" y="-10" on="1"/>
        <pt x="138" y="-10" on="0"/>
        <pt x="36" y="77" on="0"/>
        <pt x="36" y="149" on="1"/>
        <pt x="36" y="230" on="0"/>
        <pt x="155" y="312" on="0"/>
      </contour>
      <contour>
        <pt x="431" y="621" on="1"/>
        <pt x="280" y="709" on="1"/>
        <pt x="310" y="709" on="1"/>
        <pt x="158" y="621" on="1"/>
        <pt x="97" y="673" on="1"/>
        <pt x="246" y="806" on="1"/>
        <pt x="343" y="806" on="1"/>
        <pt x="492" y="673" on="1"/>
      </contour>
    </TTGlyph>
    <TTGlyph name="acute" xMin="19" yMin="560" xMax="279" yMax="781">
      <contour>
        <pt x="279" y="673" on="1"/>
        <pt x="69" y="560" on="1"/>
        <pt x="19" y="637" on="1"/>
        <pt x="204" y="781" on="1"/>
      </contour>
    </TTGlyph>
    <TTGlyph name="acute.case" xMin="5" yMin="558" xMax="266" yMax="781">
      <contour>
        <pt x="266" y="670" on="1"/>
        <pt x="56" y="558" on="1"/>
        <pt x="5" y="637" on="1"/>
        <pt x="189" y="781" on="1"/>
      </contour>
    </TTGlyph>
    <TTGlyph name="acutecomb" xMin="20" yMin="580" xMax="280" yMax="801">
      <contour>
        <pt x="280" y="693" on="1"/>
        <pt x="70" y="580" on="1"/>
        <pt x="20" y="657" on="1"/>
        <pt x="205" y="801" on="1"/>
      </contour>
    </TTGlyph>
    <TTGlyph name="acutecomb.case" xMin="5" yMin="558" xMax="266" yMax="781">
      <contour>
        <pt x="266" y="670" on="1"/>
        <pt x="56" y="558" on="1"/>
        <pt x="5" y="637" on="1"/>
        <pt x="189" y="781" on="1"/>
      </contour>
    </TTGlyph>
    <TTGlyph name="acutecomb_dotaccentcomb" xMin="-2" yMin="584" xMax="258" yMax="994">
      <contour>
        <pt x="258" y="696" on="1"/>
        <pt x="48" y="584" on="1"/>
        <pt x="-2" y="660" on="1"/>
        <pt x="183" y="804" on="1"/>
      </contour>
      <contour>
        <pt x="204" y="908" on="1"/>
        <pt x="204" y="870" on="0"/>
        <pt x="150" y="822" on="0"/>
        <pt x="104" y="822" on="1"/>
        <pt x="57" y="822" on="0"/>
        <pt x="4" y="867" on="0"/>
        <pt x="4" y="908" on="1"/>
        <pt x="4" y="946" on="0"/>
        <pt x="58" y="994" on="0"/>
        <pt x="104" y="994" on="1"/>
        <pt x="151" y="994" on="0"/>
        <pt x="204" y="949" on="0"/>
      </contour>
    </TTGlyph>
    <TTGlyph name="adieresis" xMin="33" yMin="-9" xMax="593" yMax="800">
      <contour>
        <pt x="426" y="532" on="1"/>
        <pt x="593" y="532" on="1"/>
        <pt x="593" y="0" on="1"/>
        <pt x="422" y="0" on="1"/>
        <pt x="422" y="129" on="1"/>
        <pt x="460" y="129" on="1"/>
        <pt x="442" y="72" on="0"/>
        <pt x="339" y="-9" on="0"/>
        <pt x="265" y="-9" on="1"/>
        <pt x="166" y="-9" on="0"/>
        <pt x="33" y="147" on="0"/>
        <pt x="33" y="267" on="1"/>
        <pt x="33" y="388" on="0"/>
        <pt x="166" y="543" on="0"/>
        <pt x="270" y="543" on="1"/>
        <pt x="345" y="543" on="0"/>
        <pt x="442" y="462" on="0"/>
        <pt x="461" y="404" on="1"/>
        <pt x="426" y="408" on="1"/>
      </contour>
      <contour>
        <pt x="200" y="267" on="1"/>
        <pt x="200" y="205" on="0"/>
        <pt x="261" y="132" on="0"/>
        <pt x="313" y="132" on="1"/>
        <pt x="366" y="132" on="0"/>
        <pt x="427" y="205" on="0"/>
        <pt x="427" y="267" on="1"/>
        <pt x="427" y="328" on="0"/>
        <pt x="366" y="401" on="0"/>
        <pt x="313" y="401" on="1"/>
        <pt x="261" y="401" on="0"/>
        <pt x="200" y="328" on="0"/>
      </contour>
      <contour>
        <pt x="307" y="712" on="1"/>
        <pt x="307" y="673" on="0"/>
        <pt x="258" y="624" on="0"/>
        <pt x="217" y="624" on="1"/>
        <pt x="174" y="624" on="0"/>
        <pt x="127" y="670" on="0"/>
        <pt x="127" y="712" on="1"/>
        <pt x="127" y="751" on="0"/>
        <pt x="176" y="800" on="0"/>
        <pt x="217" y="800" on="1"/>
        <pt x="260" y="800" on="0"/>
        <pt x="307" y="755" on="0"/>
      </contour>
      <contour>
        <pt x="554" y="712" on="1"/>
        <pt x="554" y="673" on="0"/>
        <pt x="506" y="624" on="0"/>
        <pt x="464" y="624" on="1"/>
        <pt x="421" y="624" on="0"/>
        <pt x="375" y="670" on="0"/>
        <pt x="375" y="712" on="1"/>
        <pt x="375" y="751" on="0"/>
        <pt x="423" y="800" on="0"/>
        <pt x="464" y="800" on="1"/>
        <pt x="507" y="800" on="0"/>
        <pt x="554" y="755" on="0"/>
      </contour>
    </TTGlyph>
    <TTGlyph name="adieresis.ss01" xMin="36" yMin="-10" xMax="516" yMax="809">
      <contour>
        <pt x="293" y="543" on="1"/>
        <pt x="394" y="543" on="0"/>
        <pt x="516" y="451" on="0"/>
        <pt x="516" y="356" on="1"/>
        <pt x="516" y="0" on="1"/>
        <pt x="351" y="0" on="1"/>
        <pt x="351" y="324" on="1"/>
        <pt x="351" y="365" on="0"/>
        <pt x="308" y="402" on="0"/>
        <pt x="267" y="402" on="1"/>
        <pt x="230" y="402" on="0"/>
        <pt x="170" y="374" on="0"/>
        <pt x="141" y="341" on="1"/>
        <pt x="42" y="438" on="1"/>
        <pt x="91" y="485" on="0"/>
        <pt x="216" y="543" on="0"/>
      </contour>
      <contour>
        <pt x="272" y="312" on="1"/>
        <pt x="438" y="312" on="1"/>
        <pt x="429" y="210" on="1"/>
        <pt x="279" y="210" on="1"/>
        <pt x="241" y="210" on="0"/>
        <pt x="200" y="183" on="0"/>
        <pt x="200" y="158" on="1"/>
        <pt x="200" y="137" on="0"/>
        <pt x="232" y="111" on="0"/>
        <pt x="258" y="111" on="1"/>
        <pt x="295" y="111" on="0"/>
        <pt x="357" y="147" on="0"/>
        <pt x="373" y="178" on="1"/>
        <pt x="401" y="107" on="1"/>
        <pt x="370" y="56" on="0"/>
        <pt x="270" y="-10" on="0"/>
        <pt x="214" y="-10" on="1"/>
        <pt x="138" y="-10" on="0"/>
        <pt x="36" y="77" on="0"/>
        <pt x="36" y="149" on="1"/>
        <pt x="36" y="230" on="0"/>
        <pt x="155" y="312" on="0"/>
      </contour>
      <contour>
        <pt x="257" y="721" on="1"/>
        <pt x="257" y="682" on="0"/>
        <pt x="208" y="632" on="0"/>
        <pt x="167" y="632" on="1"/>
        <pt x="124" y="632" on="0"/>
        <pt x="77" y="678" on="0"/>
        <pt x="77" y="721" on="1"/>
        <pt x="77" y="760" on="0"/>
        <pt x="126" y="809" on="0"/>
        <pt x="167" y="809" on="1"/>
        <pt x="210" y="809" on="0"/>
        <pt x="257" y="764" on="0"/>
      </contour>
      <contour>
        <pt x="504" y="721" on="1"/>
        <pt x="504" y="682" on="0"/>
        <pt x="456" y="632" on="0"/>
        <pt x="414" y="632" on="1"/>
        <pt x="371" y="632" on="0"/>
        <pt x="325" y="678" on="0"/>
        <pt x="325" y="721" on="1"/>
        <pt x="325" y="760" on="0"/>
        <pt x="373" y="809" on="0"/>
        <pt x="414" y="809" on="1"/>
        <pt x="457" y="809" on="0"/>
        <pt x="504" y="764" on="0"/>
      </contour>
    </TTGlyph>
</ttFont>
